%TF.GenerationSoftware,KiCad,Pcbnew,5.1.6+dfsg1-1*%
%TF.CreationDate,2020-08-08T17:15:22+09:00*%
%TF.ProjectId,portable_spectro_sch,706f7274-6162-46c6-955f-737065637472,rev?*%
%TF.SameCoordinates,Original*%
%TF.FileFunction,Legend,Top*%
%TF.FilePolarity,Positive*%
%FSLAX46Y46*%
G04 Gerber Fmt 4.6, Leading zero omitted, Abs format (unit mm)*
G04 Created by KiCad (PCBNEW 5.1.6+dfsg1-1) date 2020-08-08 17:15:22*
%MOMM*%
%LPD*%
G01*
G04 APERTURE LIST*
%ADD10C,0.070000*%
%ADD11C,0.050000*%
%ADD12C,0.120000*%
%ADD13C,0.127000*%
%ADD14C,0.200000*%
%ADD15C,0.150000*%
G04 APERTURE END LIST*
D10*
X217588571Y-83866428D02*
X217588571Y-83266428D01*
X217817142Y-83266428D01*
X217874285Y-83295000D01*
X217902857Y-83323571D01*
X217931428Y-83380714D01*
X217931428Y-83466428D01*
X217902857Y-83523571D01*
X217874285Y-83552142D01*
X217817142Y-83580714D01*
X217588571Y-83580714D01*
X218274285Y-83866428D02*
X218217142Y-83837857D01*
X218188571Y-83809285D01*
X218160000Y-83752142D01*
X218160000Y-83580714D01*
X218188571Y-83523571D01*
X218217142Y-83495000D01*
X218274285Y-83466428D01*
X218360000Y-83466428D01*
X218417142Y-83495000D01*
X218445714Y-83523571D01*
X218474285Y-83580714D01*
X218474285Y-83752142D01*
X218445714Y-83809285D01*
X218417142Y-83837857D01*
X218360000Y-83866428D01*
X218274285Y-83866428D01*
X218731428Y-83866428D02*
X218731428Y-83466428D01*
X218731428Y-83580714D02*
X218760000Y-83523571D01*
X218788571Y-83495000D01*
X218845714Y-83466428D01*
X218902857Y-83466428D01*
X219017142Y-83466428D02*
X219245714Y-83466428D01*
X219102857Y-83266428D02*
X219102857Y-83780714D01*
X219131428Y-83837857D01*
X219188571Y-83866428D01*
X219245714Y-83866428D01*
X219702857Y-83866428D02*
X219702857Y-83552142D01*
X219674285Y-83495000D01*
X219617142Y-83466428D01*
X219502857Y-83466428D01*
X219445714Y-83495000D01*
X219702857Y-83837857D02*
X219645714Y-83866428D01*
X219502857Y-83866428D01*
X219445714Y-83837857D01*
X219417142Y-83780714D01*
X219417142Y-83723571D01*
X219445714Y-83666428D01*
X219502857Y-83637857D01*
X219645714Y-83637857D01*
X219702857Y-83609285D01*
X219988571Y-83866428D02*
X219988571Y-83266428D01*
X219988571Y-83495000D02*
X220045714Y-83466428D01*
X220160000Y-83466428D01*
X220217142Y-83495000D01*
X220245714Y-83523571D01*
X220274285Y-83580714D01*
X220274285Y-83752142D01*
X220245714Y-83809285D01*
X220217142Y-83837857D01*
X220160000Y-83866428D01*
X220045714Y-83866428D01*
X219988571Y-83837857D01*
X220617142Y-83866428D02*
X220560000Y-83837857D01*
X220531428Y-83780714D01*
X220531428Y-83266428D01*
X221074285Y-83837857D02*
X221017142Y-83866428D01*
X220902857Y-83866428D01*
X220845714Y-83837857D01*
X220817142Y-83780714D01*
X220817142Y-83552142D01*
X220845714Y-83495000D01*
X220902857Y-83466428D01*
X221017142Y-83466428D01*
X221074285Y-83495000D01*
X221102857Y-83552142D01*
X221102857Y-83609285D01*
X220817142Y-83666428D01*
X221788571Y-83837857D02*
X221874285Y-83866428D01*
X222017142Y-83866428D01*
X222074285Y-83837857D01*
X222102857Y-83809285D01*
X222131428Y-83752142D01*
X222131428Y-83695000D01*
X222102857Y-83637857D01*
X222074285Y-83609285D01*
X222017142Y-83580714D01*
X221902857Y-83552142D01*
X221845714Y-83523571D01*
X221817142Y-83495000D01*
X221788571Y-83437857D01*
X221788571Y-83380714D01*
X221817142Y-83323571D01*
X221845714Y-83295000D01*
X221902857Y-83266428D01*
X222045714Y-83266428D01*
X222131428Y-83295000D01*
X222388571Y-83466428D02*
X222388571Y-84066428D01*
X222388571Y-83495000D02*
X222445714Y-83466428D01*
X222560000Y-83466428D01*
X222617142Y-83495000D01*
X222645714Y-83523571D01*
X222674285Y-83580714D01*
X222674285Y-83752142D01*
X222645714Y-83809285D01*
X222617142Y-83837857D01*
X222560000Y-83866428D01*
X222445714Y-83866428D01*
X222388571Y-83837857D01*
X223160000Y-83837857D02*
X223102857Y-83866428D01*
X222988571Y-83866428D01*
X222931428Y-83837857D01*
X222902857Y-83780714D01*
X222902857Y-83552142D01*
X222931428Y-83495000D01*
X222988571Y-83466428D01*
X223102857Y-83466428D01*
X223160000Y-83495000D01*
X223188571Y-83552142D01*
X223188571Y-83609285D01*
X222902857Y-83666428D01*
X223702857Y-83837857D02*
X223645714Y-83866428D01*
X223531428Y-83866428D01*
X223474285Y-83837857D01*
X223445714Y-83809285D01*
X223417142Y-83752142D01*
X223417142Y-83580714D01*
X223445714Y-83523571D01*
X223474285Y-83495000D01*
X223531428Y-83466428D01*
X223645714Y-83466428D01*
X223702857Y-83495000D01*
X223874285Y-83466428D02*
X224102857Y-83466428D01*
X223960000Y-83266428D02*
X223960000Y-83780714D01*
X223988571Y-83837857D01*
X224045714Y-83866428D01*
X224102857Y-83866428D01*
X224302857Y-83866428D02*
X224302857Y-83466428D01*
X224302857Y-83580714D02*
X224331428Y-83523571D01*
X224360000Y-83495000D01*
X224417142Y-83466428D01*
X224474285Y-83466428D01*
X224760000Y-83866428D02*
X224702857Y-83837857D01*
X224674285Y-83809285D01*
X224645714Y-83752142D01*
X224645714Y-83580714D01*
X224674285Y-83523571D01*
X224702857Y-83495000D01*
X224760000Y-83466428D01*
X224845714Y-83466428D01*
X224902857Y-83495000D01*
X224931428Y-83523571D01*
X224960000Y-83580714D01*
X224960000Y-83752142D01*
X224931428Y-83809285D01*
X224902857Y-83837857D01*
X224845714Y-83866428D01*
X224760000Y-83866428D01*
X214602857Y-84836428D02*
X214602857Y-84236428D01*
X214602857Y-84465000D02*
X214660000Y-84436428D01*
X214774285Y-84436428D01*
X214831428Y-84465000D01*
X214860000Y-84493571D01*
X214888571Y-84550714D01*
X214888571Y-84722142D01*
X214860000Y-84779285D01*
X214831428Y-84807857D01*
X214774285Y-84836428D01*
X214660000Y-84836428D01*
X214602857Y-84807857D01*
X215088571Y-84436428D02*
X215231428Y-84836428D01*
X215374285Y-84436428D02*
X215231428Y-84836428D01*
X215174285Y-84979285D01*
X215145714Y-85007857D01*
X215088571Y-85036428D01*
X216060000Y-84836428D02*
X216060000Y-84236428D01*
X216060000Y-84522142D02*
X216402857Y-84522142D01*
X216402857Y-84836428D02*
X216402857Y-84236428D01*
X216774285Y-84836428D02*
X216717142Y-84807857D01*
X216688571Y-84779285D01*
X216660000Y-84722142D01*
X216660000Y-84550714D01*
X216688571Y-84493571D01*
X216717142Y-84465000D01*
X216774285Y-84436428D01*
X216860000Y-84436428D01*
X216917142Y-84465000D01*
X216945714Y-84493571D01*
X216974285Y-84550714D01*
X216974285Y-84722142D01*
X216945714Y-84779285D01*
X216917142Y-84807857D01*
X216860000Y-84836428D01*
X216774285Y-84836428D01*
X217174285Y-84436428D02*
X217317142Y-84836428D01*
X217460000Y-84436428D02*
X217317142Y-84836428D01*
X217260000Y-84979285D01*
X217231428Y-85007857D01*
X217174285Y-85036428D01*
X217774285Y-84836428D02*
X217717142Y-84807857D01*
X217688571Y-84779285D01*
X217660000Y-84722142D01*
X217660000Y-84550714D01*
X217688571Y-84493571D01*
X217717142Y-84465000D01*
X217774285Y-84436428D01*
X217860000Y-84436428D01*
X217917142Y-84465000D01*
X217945714Y-84493571D01*
X217974285Y-84550714D01*
X217974285Y-84722142D01*
X217945714Y-84779285D01*
X217917142Y-84807857D01*
X217860000Y-84836428D01*
X217774285Y-84836428D01*
X218488571Y-84436428D02*
X218488571Y-84836428D01*
X218231428Y-84436428D02*
X218231428Y-84750714D01*
X218260000Y-84807857D01*
X218317142Y-84836428D01*
X218402857Y-84836428D01*
X218460000Y-84807857D01*
X218488571Y-84779285D01*
X218774285Y-84436428D02*
X218774285Y-84836428D01*
X218774285Y-84493571D02*
X218802857Y-84465000D01*
X218860000Y-84436428D01*
X218945714Y-84436428D01*
X219002857Y-84465000D01*
X219031428Y-84522142D01*
X219031428Y-84836428D01*
X219574285Y-84436428D02*
X219574285Y-84922142D01*
X219545714Y-84979285D01*
X219517142Y-85007857D01*
X219460000Y-85036428D01*
X219374285Y-85036428D01*
X219317142Y-85007857D01*
X219574285Y-84807857D02*
X219517142Y-84836428D01*
X219402857Y-84836428D01*
X219345714Y-84807857D01*
X219317142Y-84779285D01*
X219288571Y-84722142D01*
X219288571Y-84550714D01*
X219317142Y-84493571D01*
X219345714Y-84465000D01*
X219402857Y-84436428D01*
X219517142Y-84436428D01*
X219574285Y-84465000D01*
X220602857Y-84836428D02*
X220317142Y-84836428D01*
X220317142Y-84236428D01*
X221031428Y-84807857D02*
X220974285Y-84836428D01*
X220860000Y-84836428D01*
X220802857Y-84807857D01*
X220774285Y-84750714D01*
X220774285Y-84522142D01*
X220802857Y-84465000D01*
X220860000Y-84436428D01*
X220974285Y-84436428D01*
X221031428Y-84465000D01*
X221060000Y-84522142D01*
X221060000Y-84579285D01*
X220774285Y-84636428D01*
X221545714Y-84807857D02*
X221488571Y-84836428D01*
X221374285Y-84836428D01*
X221317142Y-84807857D01*
X221288571Y-84750714D01*
X221288571Y-84522142D01*
X221317142Y-84465000D01*
X221374285Y-84436428D01*
X221488571Y-84436428D01*
X221545714Y-84465000D01*
X221574285Y-84522142D01*
X221574285Y-84579285D01*
X221288571Y-84636428D01*
X222545714Y-84836428D02*
X222545714Y-84522142D01*
X222517142Y-84465000D01*
X222460000Y-84436428D01*
X222345714Y-84436428D01*
X222288571Y-84465000D01*
X222545714Y-84807857D02*
X222488571Y-84836428D01*
X222345714Y-84836428D01*
X222288571Y-84807857D01*
X222260000Y-84750714D01*
X222260000Y-84693571D01*
X222288571Y-84636428D01*
X222345714Y-84607857D01*
X222488571Y-84607857D01*
X222545714Y-84579285D01*
X222745714Y-84436428D02*
X222974285Y-84436428D01*
X222831428Y-84236428D02*
X222831428Y-84750714D01*
X222860000Y-84807857D01*
X222917142Y-84836428D01*
X222974285Y-84836428D01*
X223602857Y-84293571D02*
X223631428Y-84265000D01*
X223688571Y-84236428D01*
X223831428Y-84236428D01*
X223888571Y-84265000D01*
X223917142Y-84293571D01*
X223945714Y-84350714D01*
X223945714Y-84407857D01*
X223917142Y-84493571D01*
X223574285Y-84836428D01*
X223945714Y-84836428D01*
X224317142Y-84236428D02*
X224374285Y-84236428D01*
X224431428Y-84265000D01*
X224460000Y-84293571D01*
X224488571Y-84350714D01*
X224517142Y-84465000D01*
X224517142Y-84607857D01*
X224488571Y-84722142D01*
X224460000Y-84779285D01*
X224431428Y-84807857D01*
X224374285Y-84836428D01*
X224317142Y-84836428D01*
X224260000Y-84807857D01*
X224231428Y-84779285D01*
X224202857Y-84722142D01*
X224174285Y-84607857D01*
X224174285Y-84465000D01*
X224202857Y-84350714D01*
X224231428Y-84293571D01*
X224260000Y-84265000D01*
X224317142Y-84236428D01*
X224745714Y-84293571D02*
X224774285Y-84265000D01*
X224831428Y-84236428D01*
X224974285Y-84236428D01*
X225031428Y-84265000D01*
X225060000Y-84293571D01*
X225088571Y-84350714D01*
X225088571Y-84407857D01*
X225060000Y-84493571D01*
X224717142Y-84836428D01*
X225088571Y-84836428D01*
X225460000Y-84236428D02*
X225517142Y-84236428D01*
X225574285Y-84265000D01*
X225602857Y-84293571D01*
X225631428Y-84350714D01*
X225660000Y-84465000D01*
X225660000Y-84607857D01*
X225631428Y-84722142D01*
X225602857Y-84779285D01*
X225574285Y-84807857D01*
X225517142Y-84836428D01*
X225460000Y-84836428D01*
X225402857Y-84807857D01*
X225374285Y-84779285D01*
X225345714Y-84722142D01*
X225317142Y-84607857D01*
X225317142Y-84465000D01*
X225345714Y-84350714D01*
X225374285Y-84293571D01*
X225402857Y-84265000D01*
X225460000Y-84236428D01*
X226031428Y-84236428D02*
X226088571Y-84236428D01*
X226145714Y-84265000D01*
X226174285Y-84293571D01*
X226202857Y-84350714D01*
X226231428Y-84465000D01*
X226231428Y-84607857D01*
X226202857Y-84722142D01*
X226174285Y-84779285D01*
X226145714Y-84807857D01*
X226088571Y-84836428D01*
X226031428Y-84836428D01*
X225974285Y-84807857D01*
X225945714Y-84779285D01*
X225917142Y-84722142D01*
X225888571Y-84607857D01*
X225888571Y-84465000D01*
X225917142Y-84350714D01*
X225945714Y-84293571D01*
X225974285Y-84265000D01*
X226031428Y-84236428D01*
X226574285Y-84493571D02*
X226517142Y-84465000D01*
X226488571Y-84436428D01*
X226460000Y-84379285D01*
X226460000Y-84350714D01*
X226488571Y-84293571D01*
X226517142Y-84265000D01*
X226574285Y-84236428D01*
X226688571Y-84236428D01*
X226745714Y-84265000D01*
X226774285Y-84293571D01*
X226802857Y-84350714D01*
X226802857Y-84379285D01*
X226774285Y-84436428D01*
X226745714Y-84465000D01*
X226688571Y-84493571D01*
X226574285Y-84493571D01*
X226517142Y-84522142D01*
X226488571Y-84550714D01*
X226460000Y-84607857D01*
X226460000Y-84722142D01*
X226488571Y-84779285D01*
X226517142Y-84807857D01*
X226574285Y-84836428D01*
X226688571Y-84836428D01*
X226745714Y-84807857D01*
X226774285Y-84779285D01*
X226802857Y-84722142D01*
X226802857Y-84607857D01*
X226774285Y-84550714D01*
X226745714Y-84522142D01*
X226688571Y-84493571D01*
X227174285Y-84236428D02*
X227231428Y-84236428D01*
X227288571Y-84265000D01*
X227317142Y-84293571D01*
X227345714Y-84350714D01*
X227374285Y-84465000D01*
X227374285Y-84607857D01*
X227345714Y-84722142D01*
X227317142Y-84779285D01*
X227288571Y-84807857D01*
X227231428Y-84836428D01*
X227174285Y-84836428D01*
X227117142Y-84807857D01*
X227088571Y-84779285D01*
X227060000Y-84722142D01*
X227031428Y-84607857D01*
X227031428Y-84465000D01*
X227060000Y-84350714D01*
X227088571Y-84293571D01*
X227117142Y-84265000D01*
X227174285Y-84236428D01*
X227717142Y-84493571D02*
X227660000Y-84465000D01*
X227631428Y-84436428D01*
X227602857Y-84379285D01*
X227602857Y-84350714D01*
X227631428Y-84293571D01*
X227660000Y-84265000D01*
X227717142Y-84236428D01*
X227831428Y-84236428D01*
X227888571Y-84265000D01*
X227917142Y-84293571D01*
X227945714Y-84350714D01*
X227945714Y-84379285D01*
X227917142Y-84436428D01*
X227888571Y-84465000D01*
X227831428Y-84493571D01*
X227717142Y-84493571D01*
X227660000Y-84522142D01*
X227631428Y-84550714D01*
X227602857Y-84607857D01*
X227602857Y-84722142D01*
X227631428Y-84779285D01*
X227660000Y-84807857D01*
X227717142Y-84836428D01*
X227831428Y-84836428D01*
X227888571Y-84807857D01*
X227917142Y-84779285D01*
X227945714Y-84722142D01*
X227945714Y-84607857D01*
X227917142Y-84550714D01*
X227888571Y-84522142D01*
X227831428Y-84493571D01*
D11*
X195895671Y-52720090D02*
G75*
G03*
X195895671Y-52720090I-3250000J0D01*
G01*
X210779801Y-103652841D02*
G75*
G03*
X210779801Y-103652841I-3250000J0D01*
G01*
X237140199Y-40667159D02*
G75*
G03*
X237140199Y-40667159I-3250000J0D01*
G01*
X255452841Y-85340199D02*
G75*
G03*
X255452841Y-85340199I-3250000J0D01*
G01*
D12*
%TO.C,J1*%
X186145462Y-66770976D02*
X186073779Y-67590316D01*
X185909485Y-69468203D02*
X185837802Y-70287543D01*
X186020173Y-68203035D02*
X185963091Y-68855483D01*
X191141378Y-67208062D02*
X186145462Y-66770976D01*
X192283182Y-70851441D02*
X185837802Y-70287543D01*
X191141378Y-67208062D02*
X191092002Y-67772435D01*
X190993782Y-68895088D02*
X190981314Y-69037602D01*
X191029921Y-69095530D02*
X191172435Y-69107998D01*
X192295088Y-69206218D02*
X192426117Y-69217681D01*
X192426117Y-69217681D02*
X192408471Y-69419381D01*
X192354865Y-70032100D02*
X192283182Y-70851441D01*
X191898486Y-67274300D02*
X192655594Y-67340538D01*
X192655594Y-67340538D02*
X192557108Y-68466238D01*
%TO.C,U15*%
X235185000Y-93490000D02*
X235910000Y-93490000D01*
X235910000Y-93490000D02*
X235910000Y-94215000D01*
X232415000Y-97710000D02*
X231690000Y-97710000D01*
X231690000Y-97710000D02*
X231690000Y-96985000D01*
X235185000Y-97710000D02*
X235910000Y-97710000D01*
X235910000Y-97710000D02*
X235910000Y-96985000D01*
X232415000Y-93490000D02*
X231690000Y-93490000D01*
%TO.C,TP10*%
X205880000Y-91890000D02*
G75*
G03*
X205880000Y-91890000I-700000J0D01*
G01*
%TO.C,R31*%
X209110000Y-88858578D02*
X209110000Y-88341422D01*
X207690000Y-88858578D02*
X207690000Y-88341422D01*
%TO.C,C29*%
X205634115Y-72731359D02*
X205544312Y-72222060D01*
X204235688Y-72977940D02*
X204145885Y-72468641D01*
%TO.C,J2*%
X231150000Y-74420000D02*
X231150000Y-73785000D01*
X231150000Y-73785000D02*
X231785000Y-73785000D01*
%TO.C,U13*%
X205500000Y-60590000D02*
X211510000Y-60590000D01*
X207750000Y-67410000D02*
X211510000Y-67410000D01*
X211510000Y-60590000D02*
X211510000Y-61850000D01*
X211510000Y-67410000D02*
X211510000Y-66150000D01*
D11*
%TO.C,BZ1*%
X202129986Y-44280369D02*
X200966853Y-42344591D01*
X200966853Y-42344591D02*
X205252690Y-39769401D01*
X205252690Y-39769401D02*
X206415822Y-41705179D01*
X206415822Y-41705178D02*
G75*
G02*
X202129986Y-44280369I-215822J-4494822D01*
G01*
D12*
%TO.C,C30*%
X226790000Y-100797936D02*
X226790000Y-102002064D01*
X228610000Y-100797936D02*
X228610000Y-102002064D01*
%TO.C,D16*%
X236326116Y-102020747D02*
X237668616Y-104346025D01*
X237988884Y-101060747D02*
X236326116Y-102020747D01*
X239331384Y-103386025D02*
X237988884Y-101060747D01*
%TO.C,J5*%
X229390000Y-103165000D02*
X230192470Y-103165000D01*
X230807530Y-103165000D02*
X231610000Y-103165000D01*
X229390000Y-101960000D02*
X229390000Y-103165000D01*
X231610000Y-101960000D02*
X231610000Y-103165000D01*
X229390000Y-101960000D02*
X229936529Y-101960000D01*
X231063471Y-101960000D02*
X231610000Y-101960000D01*
X229390000Y-101200000D02*
X229390000Y-100440000D01*
X229390000Y-100440000D02*
X230500000Y-100440000D01*
D13*
%TO.C,J4*%
X216230000Y-101260000D02*
X225190000Y-101260000D01*
X225190000Y-101260000D02*
X225190000Y-102760000D01*
X216230000Y-101260000D02*
X216230000Y-102760000D01*
X225190000Y-107260000D02*
X225190000Y-105260000D01*
X216230000Y-105260000D02*
X216230000Y-107260000D01*
X216230000Y-109760000D02*
X216230000Y-110610000D01*
X216230000Y-110610000D02*
X225190000Y-110610000D01*
X225190000Y-110610000D02*
X225190000Y-109760000D01*
D14*
X215560000Y-101850000D02*
G75*
G03*
X215560000Y-101850000I-100000J0D01*
G01*
D12*
%TO.C,SW2*%
X201458714Y-97433965D02*
X201615574Y-97265754D01*
X199336084Y-100472672D02*
X193690033Y-95207645D01*
X193690033Y-95207645D02*
X196349827Y-92355366D01*
X204116892Y-95345883D02*
X203736588Y-94991244D01*
X199336084Y-100472672D02*
X201995877Y-97620393D01*
X196573271Y-92878216D02*
X196730131Y-92710005D01*
X203388769Y-95364234D02*
X203736588Y-94991244D01*
X203769073Y-95718873D02*
X204116892Y-95345883D01*
X196968202Y-93246495D02*
X196573271Y-92878216D01*
X198503327Y-90808485D02*
X198851146Y-90435495D01*
X198851146Y-90435495D02*
X198470842Y-90080856D01*
X198123023Y-90453846D02*
X198470842Y-90080856D01*
X201458714Y-97433965D02*
X201063783Y-97065686D01*
X200259294Y-96315488D02*
X197772691Y-93996693D01*
%TO.C,TP14*%
X203570000Y-87650000D02*
G75*
G03*
X203570000Y-87650000I-700000J0D01*
G01*
D11*
%TO.C,SW3*%
X251074859Y-64491678D02*
X256671448Y-64296241D01*
X251528552Y-77483759D02*
X251074859Y-64491678D01*
X257125141Y-77288322D02*
X251528552Y-77483759D01*
X256671448Y-64296241D02*
X257125141Y-77288322D01*
D12*
%TO.C,C1*%
X225090000Y-58341422D02*
X225090000Y-58858578D01*
X226510000Y-58341422D02*
X226510000Y-58858578D01*
%TO.C,C2*%
X222058578Y-45310000D02*
X221541422Y-45310000D01*
X222058578Y-43890000D02*
X221541422Y-43890000D01*
%TO.C,C3*%
X227710000Y-64741422D02*
X227710000Y-65258578D01*
X226290000Y-64741422D02*
X226290000Y-65258578D01*
%TO.C,C4*%
X228490000Y-64997936D02*
X228490000Y-66202064D01*
X230310000Y-64997936D02*
X230310000Y-66202064D01*
%TO.C,C5*%
X226290000Y-75258578D02*
X226290000Y-74741422D01*
X227710000Y-75258578D02*
X227710000Y-74741422D01*
%TO.C,C6*%
X246002064Y-80110000D02*
X244797936Y-80110000D01*
X246002064Y-78290000D02*
X244797936Y-78290000D01*
%TO.C,C7*%
X242941422Y-71910000D02*
X243458578Y-71910000D01*
X242941422Y-70490000D02*
X243458578Y-70490000D01*
%TO.C,C8*%
X218058578Y-43890000D02*
X217541422Y-43890000D01*
X218058578Y-45310000D02*
X217541422Y-45310000D01*
%TO.C,C9*%
X224112500Y-51597500D02*
X224112500Y-50972500D01*
X224425000Y-51285000D02*
X223800000Y-51285000D01*
X223560000Y-47904437D02*
X222495563Y-46840000D01*
X223560000Y-51295563D02*
X222495563Y-52360000D01*
X223560000Y-51295563D02*
X223560000Y-50660000D01*
X223560000Y-47904437D02*
X223560000Y-48540000D01*
X222495563Y-46840000D02*
X218040000Y-46840000D01*
X222495563Y-52360000D02*
X218040000Y-52360000D01*
X218040000Y-52360000D02*
X218040000Y-50660000D01*
X218040000Y-46840000D02*
X218040000Y-48540000D01*
%TO.C,C10*%
X229602064Y-52490000D02*
X228397936Y-52490000D01*
X229602064Y-54310000D02*
X228397936Y-54310000D01*
%TO.C,C11*%
X217141422Y-57910000D02*
X217658578Y-57910000D01*
X217141422Y-56490000D02*
X217658578Y-56490000D01*
%TO.C,C12*%
X224290000Y-40941422D02*
X224290000Y-41458578D01*
X225710000Y-40941422D02*
X225710000Y-41458578D01*
%TO.C,C13*%
X230490000Y-46458578D02*
X230490000Y-45941422D01*
X231910000Y-46458578D02*
X231910000Y-45941422D01*
%TO.C,C15*%
X205777940Y-79054312D02*
X205268641Y-79144115D01*
X205531359Y-77655885D02*
X205022060Y-77745688D01*
%TO.C,C16*%
X205131359Y-75655885D02*
X204622060Y-75745688D01*
X205377940Y-77054312D02*
X204868641Y-77144115D01*
%TO.C,C23*%
X206978578Y-97940000D02*
X206461422Y-97940000D01*
X206978578Y-99360000D02*
X206461422Y-99360000D01*
%TO.C,C24*%
X216890000Y-90058578D02*
X216890000Y-89541422D01*
X218310000Y-90058578D02*
X218310000Y-89541422D01*
%TO.C,C27*%
X202058372Y-73730937D02*
X201849278Y-72545103D01*
X203850722Y-73414897D02*
X203641628Y-72229063D01*
%TO.C,C28*%
X201640722Y-73804897D02*
X201431628Y-72619063D01*
X199848372Y-74120937D02*
X199639278Y-72935103D01*
%TO.C,C31*%
X233090000Y-90101422D02*
X233090000Y-90618578D01*
X234510000Y-90101422D02*
X234510000Y-90618578D01*
%TO.C,C32*%
X232510000Y-90542064D02*
X232510000Y-89337936D01*
X230690000Y-90542064D02*
X230690000Y-89337936D01*
%TO.C,C33*%
X212110000Y-70397936D02*
X212110000Y-71602064D01*
X210290000Y-70397936D02*
X210290000Y-71602064D01*
%TO.C,C35*%
X212658578Y-48490000D02*
X212141422Y-48490000D01*
X212658578Y-49910000D02*
X212141422Y-49910000D01*
%TO.C,C36*%
X238858578Y-48910000D02*
X238341422Y-48910000D01*
X238858578Y-47490000D02*
X238341422Y-47490000D01*
%TO.C,C37*%
X243610000Y-56410000D02*
X243610000Y-54060000D01*
X243610000Y-49590000D02*
X243610000Y-51940000D01*
X237854437Y-49590000D02*
X243610000Y-49590000D01*
X237854437Y-56410000D02*
X243610000Y-56410000D01*
X236790000Y-55345563D02*
X236790000Y-54060000D01*
X236790000Y-50654437D02*
X236790000Y-51940000D01*
X236790000Y-50654437D02*
X237854437Y-49590000D01*
X236790000Y-55345563D02*
X237854437Y-56410000D01*
X235762500Y-51152500D02*
X236550000Y-51152500D01*
X236156250Y-50758750D02*
X236156250Y-51546250D01*
%TO.C,D1*%
X241700000Y-72350000D02*
X241700000Y-74050000D01*
X241700000Y-74050000D02*
X244250000Y-74050000D01*
X241700000Y-72350000D02*
X244250000Y-72350000D01*
%TO.C,D12*%
X191130362Y-94422862D02*
X193329785Y-92882810D01*
X190029095Y-92850090D02*
X191130362Y-94422862D01*
X192228519Y-91310038D02*
X190029095Y-92850090D01*
%TO.C,D13*%
X244781716Y-47725929D02*
X246680297Y-45827348D01*
X246680297Y-45827348D02*
X245322652Y-44469703D01*
X245322652Y-44469703D02*
X243424071Y-46368284D01*
%TO.C,D14*%
X249211481Y-53029962D02*
X251410905Y-51489910D01*
X251410905Y-51489910D02*
X250309638Y-49917138D01*
X250309638Y-49917138D02*
X248110215Y-51457190D01*
%TO.C,D15*%
X233274125Y-106231353D02*
X232355801Y-103708279D01*
X232355801Y-103708279D02*
X230551591Y-104364957D01*
X230551591Y-104364957D02*
X231469915Y-106888032D01*
%TO.C,J3*%
X244296966Y-95331851D02*
X247965095Y-98302243D01*
X247965095Y-98302243D02*
X251816536Y-93546110D01*
X251816536Y-93546110D02*
X248148407Y-90575717D01*
X248148407Y-90575717D02*
X244296966Y-95331851D01*
X245404570Y-93964074D02*
X245249141Y-93838210D01*
X245249141Y-93838210D02*
X245060344Y-94071354D01*
X245060344Y-94071354D02*
X245215774Y-94197218D01*
X245326855Y-93901142D02*
X245138059Y-94134286D01*
X245908026Y-93342357D02*
X246382085Y-93726243D01*
X246382085Y-93726243D02*
X245154910Y-95241677D01*
X245154910Y-95241677D02*
X247874921Y-97444299D01*
X247874921Y-97444299D02*
X250958591Y-93636283D01*
X250958591Y-93636283D02*
X248238580Y-91433662D01*
X248238580Y-91433662D02*
X247011405Y-92949097D01*
X247011405Y-92949097D02*
X246537346Y-92565211D01*
X245315027Y-96156260D02*
X245698912Y-95682201D01*
X246325317Y-96974377D02*
X246709202Y-96500318D01*
X249166468Y-91400127D02*
X248782582Y-91874186D01*
X250176758Y-92218244D02*
X249792872Y-92692303D01*
X249353824Y-95618006D02*
X248965251Y-95303345D01*
X248965251Y-95303345D02*
X249091115Y-95147916D01*
X249091115Y-95147916D02*
X249479688Y-95462576D01*
X249416756Y-95540291D02*
X249028183Y-95225631D01*
X244661676Y-94404766D02*
X243875026Y-95376198D01*
X243875026Y-95376198D02*
X244846458Y-96162849D01*
%TO.C,Q3*%
X188969555Y-86437783D02*
X189884857Y-86273094D01*
X192079613Y-85878195D02*
X191164312Y-86042884D01*
X192079613Y-85878195D02*
X191697110Y-83752332D01*
X188969555Y-86437783D02*
X188711012Y-85000857D01*
%TO.C,Q4*%
X248580000Y-60240000D02*
X247650000Y-60240000D01*
X245420000Y-60240000D02*
X246350000Y-60240000D01*
X245420000Y-60240000D02*
X245420000Y-62400000D01*
X248580000Y-60240000D02*
X248580000Y-61700000D01*
%TO.C,R1*%
X220090000Y-37258578D02*
X220090000Y-36741422D01*
X221510000Y-37258578D02*
X221510000Y-36741422D01*
%TO.C,R2*%
X217658578Y-58490000D02*
X217141422Y-58490000D01*
X217658578Y-59910000D02*
X217141422Y-59910000D01*
%TO.C,R3*%
X227741422Y-42710000D02*
X228258578Y-42710000D01*
X227741422Y-41290000D02*
X228258578Y-41290000D01*
%TO.C,R4*%
X217890000Y-36741422D02*
X217890000Y-37258578D01*
X219310000Y-36741422D02*
X219310000Y-37258578D01*
%TO.C,R5*%
X225858578Y-45310000D02*
X225341422Y-45310000D01*
X225858578Y-43890000D02*
X225341422Y-43890000D01*
%TO.C,R6*%
X217141422Y-60490000D02*
X217658578Y-60490000D01*
X217141422Y-61910000D02*
X217658578Y-61910000D01*
%TO.C,R7*%
X212941422Y-41690000D02*
X213458578Y-41690000D01*
X212941422Y-43110000D02*
X213458578Y-43110000D01*
%TO.C,R8*%
X212941422Y-40910000D02*
X213458578Y-40910000D01*
X212941422Y-39490000D02*
X213458578Y-39490000D01*
%TO.C,R9*%
X212941422Y-37290000D02*
X213458578Y-37290000D01*
X212941422Y-38710000D02*
X213458578Y-38710000D01*
%TO.C,R10*%
X241310000Y-75397936D02*
X241310000Y-76602064D01*
X239490000Y-75397936D02*
X239490000Y-76602064D01*
%TO.C,R11*%
X227741422Y-39090000D02*
X228258578Y-39090000D01*
X227741422Y-40510000D02*
X228258578Y-40510000D01*
%TO.C,R12*%
X234110000Y-46458578D02*
X234110000Y-45941422D01*
X232690000Y-46458578D02*
X232690000Y-45941422D01*
%TO.C,R13*%
X241658578Y-78690000D02*
X241141422Y-78690000D01*
X241658578Y-80110000D02*
X241141422Y-80110000D01*
%TO.C,R14*%
X228290000Y-60341422D02*
X228290000Y-60858578D01*
X229710000Y-60341422D02*
X229710000Y-60858578D01*
%TO.C,R15*%
X229710000Y-56541422D02*
X229710000Y-57058578D01*
X228290000Y-56541422D02*
X228290000Y-57058578D01*
%TO.C,R17*%
X212710000Y-79141422D02*
X212710000Y-79658578D01*
X211290000Y-79141422D02*
X211290000Y-79658578D01*
%TO.C,R18*%
X209290000Y-79141422D02*
X209290000Y-79658578D01*
X210710000Y-79141422D02*
X210710000Y-79658578D01*
%TO.C,R19*%
X220058578Y-97310000D02*
X219541422Y-97310000D01*
X220058578Y-95890000D02*
X219541422Y-95890000D01*
%TO.C,R26*%
X217658578Y-55910000D02*
X217141422Y-55910000D01*
X217658578Y-54490000D02*
X217141422Y-54490000D01*
%TO.C,R30*%
X190549779Y-87747011D02*
X191058761Y-87655431D01*
X190801239Y-89144569D02*
X191310221Y-89052989D01*
%TO.C,R29*%
X194941422Y-89710000D02*
X195458578Y-89710000D01*
X194941422Y-88290000D02*
X195458578Y-88290000D01*
%TO.C,R32*%
X205690000Y-88858578D02*
X205690000Y-88341422D01*
X207110000Y-88858578D02*
X207110000Y-88341422D01*
%TO.C,R33*%
X225090000Y-95141422D02*
X225090000Y-95658578D01*
X226510000Y-95141422D02*
X226510000Y-95658578D01*
%TO.C,R34*%
X238341422Y-46910000D02*
X238858578Y-46910000D01*
X238341422Y-45490000D02*
X238858578Y-45490000D01*
%TO.C,R35*%
X250910000Y-61258578D02*
X250910000Y-60741422D01*
X249490000Y-61258578D02*
X249490000Y-60741422D01*
%TO.C,R36*%
X226990000Y-95658578D02*
X226990000Y-95141422D01*
X228410000Y-95658578D02*
X228410000Y-95141422D01*
%TO.C,R37*%
X240541422Y-58910000D02*
X241058578Y-58910000D01*
X240541422Y-57490000D02*
X241058578Y-57490000D01*
%TO.C,R38*%
X246090000Y-69258578D02*
X246090000Y-68741422D01*
X247510000Y-69258578D02*
X247510000Y-68741422D01*
%TO.C,R39*%
X244141422Y-57490000D02*
X244658578Y-57490000D01*
X244141422Y-58910000D02*
X244658578Y-58910000D01*
%TO.C,R40*%
X241910000Y-97141422D02*
X241910000Y-97658578D01*
X240490000Y-97141422D02*
X240490000Y-97658578D01*
%TO.C,R41*%
X247510000Y-65858578D02*
X247510000Y-65341422D01*
X246090000Y-65858578D02*
X246090000Y-65341422D01*
%TO.C,R42*%
X238590000Y-97141422D02*
X238590000Y-97658578D01*
X240010000Y-97141422D02*
X240010000Y-97658578D01*
%TO.C,R43*%
X212890000Y-103658578D02*
X212890000Y-103141422D01*
X214310000Y-103658578D02*
X214310000Y-103141422D01*
%TO.C,R44*%
X249510000Y-69258578D02*
X249510000Y-68741422D01*
X248090000Y-69258578D02*
X248090000Y-68741422D01*
%TO.C,R45*%
X233710000Y-101741422D02*
X233710000Y-102258578D01*
X232290000Y-101741422D02*
X232290000Y-102258578D01*
%TO.C,R46*%
X235610000Y-101741422D02*
X235610000Y-102258578D01*
X234190000Y-101741422D02*
X234190000Y-102258578D01*
%TO.C,R47*%
X228310000Y-107658578D02*
X228310000Y-107141422D01*
X226890000Y-107658578D02*
X226890000Y-107141422D01*
%TO.C,R48*%
X249510000Y-65858578D02*
X249510000Y-65341422D01*
X248090000Y-65858578D02*
X248090000Y-65341422D01*
%TO.C,TP1*%
X229680000Y-46160000D02*
G75*
G03*
X229680000Y-46160000I-700000J0D01*
G01*
%TO.C,TP2*%
X200300000Y-49400000D02*
G75*
G03*
X200300000Y-49400000I-700000J0D01*
G01*
%TO.C,TP3*%
X238370000Y-78020000D02*
G75*
G03*
X238370000Y-78020000I-700000J0D01*
G01*
%TO.C,TP4*%
X199100000Y-51000000D02*
G75*
G03*
X199100000Y-51000000I-700000J0D01*
G01*
%TO.C,TP5*%
X197900000Y-49400000D02*
G75*
G03*
X197900000Y-49400000I-700000J0D01*
G01*
%TO.C,TP6*%
X227490000Y-47080000D02*
G75*
G03*
X227490000Y-47080000I-700000J0D01*
G01*
%TO.C,TP7*%
X205850000Y-94800000D02*
G75*
G03*
X205850000Y-94800000I-700000J0D01*
G01*
%TO.C,TP11*%
X204100000Y-90600000D02*
G75*
G03*
X204100000Y-90600000I-700000J0D01*
G01*
%TO.C,TP8*%
X204100000Y-93380000D02*
G75*
G03*
X204100000Y-93380000I-700000J0D01*
G01*
%TO.C,TP9*%
X205240000Y-86380000D02*
G75*
G03*
X205240000Y-86380000I-700000J0D01*
G01*
%TO.C,TP12*%
X196360000Y-68850000D02*
G75*
G03*
X196360000Y-68850000I-700000J0D01*
G01*
%TO.C,TP13*%
X194650000Y-68870000D02*
G75*
G03*
X194650000Y-68870000I-700000J0D01*
G01*
%TO.C,TP15*%
X196500000Y-61300000D02*
G75*
G03*
X196500000Y-61300000I-700000J0D01*
G01*
%TO.C,TP16*%
X246610000Y-90600000D02*
G75*
G03*
X246610000Y-90600000I-700000J0D01*
G01*
%TO.C,TP17*%
X213500000Y-59200000D02*
G75*
G03*
X213500000Y-59200000I-700000J0D01*
G01*
%TO.C,TP18*%
X236500000Y-57800000D02*
G75*
G03*
X236500000Y-57800000I-700000J0D01*
G01*
%TO.C,U1*%
X222900000Y-56990000D02*
X220450000Y-56990000D01*
X221100000Y-60210000D02*
X222900000Y-60210000D01*
%TO.C,U2*%
X244360000Y-76700000D02*
X244360000Y-74800000D01*
X242040000Y-75300000D02*
X242040000Y-76700000D01*
%TO.C,U3*%
X229000000Y-51620000D02*
X232000000Y-51620000D01*
X228000000Y-48380000D02*
X230000000Y-48380000D01*
%TO.C,U5*%
X219800000Y-43010000D02*
X222725000Y-43010000D01*
X219800000Y-43010000D02*
X218300000Y-43010000D01*
X219800000Y-39790000D02*
X221300000Y-39790000D01*
X219800000Y-39790000D02*
X218300000Y-39790000D01*
D15*
%TO.C,U7*%
X209075000Y-91975000D02*
X209075000Y-92100000D01*
X213725000Y-91975000D02*
X213725000Y-92200000D01*
X213725000Y-97225000D02*
X213725000Y-97000000D01*
X209075000Y-97225000D02*
X209075000Y-97000000D01*
X209075000Y-91975000D02*
X213725000Y-91975000D01*
X209075000Y-97225000D02*
X213725000Y-97225000D01*
X209075000Y-92100000D02*
X207725000Y-92100000D01*
D11*
%TO.C,U11*%
X199777211Y-81244620D02*
X197917821Y-70910566D01*
X197917821Y-70910566D02*
X182662789Y-73655380D01*
X182662789Y-73655380D02*
X184522179Y-83989434D01*
X184522179Y-83989434D02*
X199777211Y-81244620D01*
X187456387Y-78838420D02*
X188637421Y-78625919D01*
X188637421Y-78625919D02*
X188920757Y-80200633D01*
X188920757Y-80200633D02*
X187739723Y-80413134D01*
X188102747Y-82430735D02*
X188208998Y-83021253D01*
X187739722Y-80413135D02*
X188262122Y-83316512D01*
X187456387Y-78838422D02*
X186402732Y-72982458D01*
X188262122Y-83316512D02*
X182662789Y-73655380D01*
X186402732Y-72982458D02*
X184522179Y-83989434D01*
X188920757Y-80200633D02*
X187456387Y-78838422D01*
X187739722Y-80413135D02*
X188637421Y-78625920D01*
D12*
%TO.C,U14*%
X242410000Y-60890000D02*
X243110000Y-60890000D01*
X243110000Y-60890000D02*
X243110000Y-61590000D01*
X239590000Y-65110000D02*
X238890000Y-65110000D01*
X238890000Y-65110000D02*
X238890000Y-64410000D01*
X242410000Y-65110000D02*
X243110000Y-65110000D01*
X243110000Y-65110000D02*
X243110000Y-64410000D01*
X239590000Y-60890000D02*
X238890000Y-60890000D01*
D15*
%TO.C,Y1*%
X202616443Y-79445456D02*
X202060769Y-76294071D01*
X202060769Y-76294071D02*
X200583557Y-76554544D01*
X200583557Y-76554544D02*
X201139231Y-79705929D01*
X201139231Y-79705929D02*
X202616443Y-79445456D01*
%TO.C,L1*%
X245400000Y-73000000D02*
X249400000Y-73000000D01*
X245400000Y-77000000D02*
X245400000Y-73000000D01*
X249400000Y-77000000D02*
X245400000Y-77000000D01*
X249400000Y-73000000D02*
X249400000Y-77000000D01*
%TO.C,L2*%
X231900000Y-67500000D02*
X231900000Y-62500000D01*
X231900000Y-62500000D02*
X236900000Y-62500000D01*
X236900000Y-62500000D02*
X236900000Y-67500000D01*
X236900000Y-67500000D02*
X231900000Y-67500000D01*
D12*
%TO.C,C34*%
X214512500Y-55197500D02*
X214512500Y-54572500D01*
X214825000Y-54885000D02*
X214200000Y-54885000D01*
X213960000Y-51504437D02*
X212895563Y-50440000D01*
X213960000Y-54895563D02*
X212895563Y-55960000D01*
X213960000Y-54895563D02*
X213960000Y-54260000D01*
X213960000Y-51504437D02*
X213960000Y-52140000D01*
X212895563Y-50440000D02*
X208440000Y-50440000D01*
X212895563Y-55960000D02*
X208440000Y-55960000D01*
X208440000Y-55960000D02*
X208440000Y-54260000D01*
X208440000Y-50440000D02*
X208440000Y-52140000D01*
%TO.C,SW1*%
X190012284Y-64246416D02*
X190229753Y-64321297D01*
X186372935Y-63543251D02*
X188886321Y-56243847D01*
X188886321Y-56243847D02*
X192573844Y-57513563D01*
X193001020Y-65825484D02*
X193170316Y-65333814D01*
X186372935Y-63543251D02*
X190060458Y-64812967D01*
X192187079Y-57930352D02*
X192404548Y-58005233D01*
X192688101Y-65167774D02*
X193170316Y-65333814D01*
X192518806Y-65659444D02*
X193001020Y-65825484D01*
X192011272Y-58440932D02*
X192187079Y-57930352D01*
X194862897Y-58851710D02*
X195345111Y-59017750D01*
X195345111Y-59017750D02*
X195514406Y-58526080D01*
X195032192Y-58360040D02*
X195514406Y-58526080D01*
X190012284Y-64246416D02*
X190188091Y-63735836D01*
X190546216Y-62695766D02*
X191653147Y-59481003D01*
%TO.C,D11*%
X203250000Y-53600000D02*
X203250000Y-54800000D01*
X205100000Y-53600000D02*
X203250000Y-53600000D01*
X205100000Y-54800000D02*
X203250000Y-54800000D01*
%TO.C,Q1*%
X203180000Y-59840000D02*
X202250000Y-59840000D01*
X200020000Y-59840000D02*
X200950000Y-59840000D01*
X200020000Y-59840000D02*
X200020000Y-62000000D01*
X203180000Y-59840000D02*
X203180000Y-61300000D01*
%TO.C,R20*%
X201858578Y-64510000D02*
X201341422Y-64510000D01*
X201858578Y-63090000D02*
X201341422Y-63090000D01*
%TO.C,C26*%
X232690000Y-69891422D02*
X232690000Y-70408578D01*
X234110000Y-69891422D02*
X234110000Y-70408578D01*
%TO.C,Q2*%
X229840000Y-68490000D02*
X231300000Y-68490000D01*
X229840000Y-71650000D02*
X232000000Y-71650000D01*
X229840000Y-71650000D02*
X229840000Y-70720000D01*
X229840000Y-68490000D02*
X229840000Y-69420000D01*
%TO.C,C39*%
X239851422Y-83250000D02*
X240368578Y-83250000D01*
X239851422Y-81830000D02*
X240368578Y-81830000D01*
%TO.C,C40*%
X242802064Y-89690000D02*
X241597936Y-89690000D01*
X242802064Y-91510000D02*
X241597936Y-91510000D01*
%TO.C,D17*%
X238610000Y-83690000D02*
X241160000Y-83690000D01*
X238610000Y-85390000D02*
X241160000Y-85390000D01*
X238610000Y-83690000D02*
X238610000Y-85390000D01*
D15*
%TO.C,L3*%
X246310000Y-84000000D02*
X246310000Y-88000000D01*
X246310000Y-88000000D02*
X242310000Y-88000000D01*
X242310000Y-88000000D02*
X242310000Y-84000000D01*
X242310000Y-84000000D02*
X246310000Y-84000000D01*
D12*
%TO.C,R49*%
X236290000Y-86597936D02*
X236290000Y-87802064D01*
X238110000Y-86597936D02*
X238110000Y-87802064D01*
%TO.C,R50*%
X238458578Y-90030000D02*
X237941422Y-90030000D01*
X238458578Y-91450000D02*
X237941422Y-91450000D01*
%TO.C,TP19*%
X234700000Y-87200000D02*
G75*
G03*
X234700000Y-87200000I-700000J0D01*
G01*
%TO.C,U16*%
X238950000Y-86500000D02*
X238950000Y-87900000D01*
X241270000Y-87900000D02*
X241270000Y-86000000D01*
%TO.C,J1*%
D10*
X187217831Y-65732706D02*
X187186704Y-66088490D01*
X187156760Y-66157571D01*
X187105172Y-66200859D01*
X187031940Y-66218352D01*
X186984502Y-66214202D01*
X187672351Y-66274381D02*
X187387724Y-66249480D01*
X187530037Y-66261930D02*
X187573615Y-65763833D01*
X187519952Y-65830839D01*
X187468364Y-65874127D01*
X187418851Y-65893696D01*
%TO.C,U15*%
X230050952Y-93156190D02*
X230050952Y-93560952D01*
X230074761Y-93608571D01*
X230098571Y-93632380D01*
X230146190Y-93656190D01*
X230241428Y-93656190D01*
X230289047Y-93632380D01*
X230312857Y-93608571D01*
X230336666Y-93560952D01*
X230336666Y-93156190D01*
X230836666Y-93656190D02*
X230550952Y-93656190D01*
X230693809Y-93656190D02*
X230693809Y-93156190D01*
X230646190Y-93227619D01*
X230598571Y-93275238D01*
X230550952Y-93299047D01*
X231289047Y-93156190D02*
X231050952Y-93156190D01*
X231027142Y-93394285D01*
X231050952Y-93370476D01*
X231098571Y-93346666D01*
X231217619Y-93346666D01*
X231265238Y-93370476D01*
X231289047Y-93394285D01*
X231312857Y-93441904D01*
X231312857Y-93560952D01*
X231289047Y-93608571D01*
X231265238Y-93632380D01*
X231217619Y-93656190D01*
X231098571Y-93656190D01*
X231050952Y-93632380D01*
X231027142Y-93608571D01*
%TO.C,TP10*%
X204330952Y-90326190D02*
X204616666Y-90326190D01*
X204473809Y-90826190D02*
X204473809Y-90326190D01*
X204783333Y-90826190D02*
X204783333Y-90326190D01*
X204973809Y-90326190D01*
X205021428Y-90350000D01*
X205045238Y-90373809D01*
X205069047Y-90421428D01*
X205069047Y-90492857D01*
X205045238Y-90540476D01*
X205021428Y-90564285D01*
X204973809Y-90588095D01*
X204783333Y-90588095D01*
X205545238Y-90826190D02*
X205259523Y-90826190D01*
X205402380Y-90826190D02*
X205402380Y-90326190D01*
X205354761Y-90397619D01*
X205307142Y-90445238D01*
X205259523Y-90469047D01*
X205854761Y-90326190D02*
X205902380Y-90326190D01*
X205950000Y-90350000D01*
X205973809Y-90373809D01*
X205997619Y-90421428D01*
X206021428Y-90516666D01*
X206021428Y-90635714D01*
X205997619Y-90730952D01*
X205973809Y-90778571D01*
X205950000Y-90802380D01*
X205902380Y-90826190D01*
X205854761Y-90826190D01*
X205807142Y-90802380D01*
X205783333Y-90778571D01*
X205759523Y-90730952D01*
X205735714Y-90635714D01*
X205735714Y-90516666D01*
X205759523Y-90421428D01*
X205783333Y-90373809D01*
X205807142Y-90350000D01*
X205854761Y-90326190D01*
%TO.C,R31*%
X208078571Y-86626190D02*
X207911904Y-86388095D01*
X207792857Y-86626190D02*
X207792857Y-86126190D01*
X207983333Y-86126190D01*
X208030952Y-86150000D01*
X208054761Y-86173809D01*
X208078571Y-86221428D01*
X208078571Y-86292857D01*
X208054761Y-86340476D01*
X208030952Y-86364285D01*
X207983333Y-86388095D01*
X207792857Y-86388095D01*
X208245238Y-86126190D02*
X208554761Y-86126190D01*
X208388095Y-86316666D01*
X208459523Y-86316666D01*
X208507142Y-86340476D01*
X208530952Y-86364285D01*
X208554761Y-86411904D01*
X208554761Y-86530952D01*
X208530952Y-86578571D01*
X208507142Y-86602380D01*
X208459523Y-86626190D01*
X208316666Y-86626190D01*
X208269047Y-86602380D01*
X208245238Y-86578571D01*
X209030952Y-86626190D02*
X208745238Y-86626190D01*
X208888095Y-86626190D02*
X208888095Y-86126190D01*
X208840476Y-86197619D01*
X208792857Y-86245238D01*
X208745238Y-86269047D01*
%TO.C,C29*%
X206244463Y-72541674D02*
X206225149Y-72569256D01*
X206158941Y-72605107D01*
X206112045Y-72613376D01*
X206037567Y-72602332D01*
X205982402Y-72563705D01*
X205950686Y-72520944D01*
X205910700Y-72431287D01*
X205898297Y-72360944D01*
X205905206Y-72263018D01*
X205920385Y-72211988D01*
X205959012Y-72156823D01*
X206025221Y-72120972D01*
X206072116Y-72112703D01*
X206146594Y-72123748D01*
X206174177Y-72143061D01*
X206361759Y-72109985D02*
X206381072Y-72082403D01*
X206423833Y-72050686D01*
X206541072Y-72030014D01*
X206592103Y-72045192D01*
X206619685Y-72064506D01*
X206651402Y-72107267D01*
X206659671Y-72154162D01*
X206648626Y-72228640D01*
X206416866Y-72559628D01*
X206721688Y-72505880D01*
X206956166Y-72464535D02*
X207049957Y-72447997D01*
X207092718Y-72416280D01*
X207112031Y-72388698D01*
X207146524Y-72310085D01*
X207153434Y-72212160D01*
X207120358Y-72024577D01*
X207088641Y-71981816D01*
X207061059Y-71962503D01*
X207010029Y-71947324D01*
X206916237Y-71963862D01*
X206873476Y-71995579D01*
X206854163Y-72023161D01*
X206838984Y-72074191D01*
X206859656Y-72191430D01*
X206891373Y-72234191D01*
X206918956Y-72253504D01*
X206969986Y-72268683D01*
X207063777Y-72252145D01*
X207106538Y-72220429D01*
X207125851Y-72192846D01*
X207141030Y-72141816D01*
%TO.C,J2*%
X234033333Y-73326190D02*
X234033333Y-73683333D01*
X234009523Y-73754761D01*
X233961904Y-73802380D01*
X233890476Y-73826190D01*
X233842857Y-73826190D01*
X234247619Y-73373809D02*
X234271428Y-73350000D01*
X234319047Y-73326190D01*
X234438095Y-73326190D01*
X234485714Y-73350000D01*
X234509523Y-73373809D01*
X234533333Y-73421428D01*
X234533333Y-73469047D01*
X234509523Y-73540476D01*
X234223809Y-73826190D01*
X234533333Y-73826190D01*
%TO.C,U13*%
X210380952Y-59726190D02*
X210380952Y-60130952D01*
X210404761Y-60178571D01*
X210428571Y-60202380D01*
X210476190Y-60226190D01*
X210571428Y-60226190D01*
X210619047Y-60202380D01*
X210642857Y-60178571D01*
X210666666Y-60130952D01*
X210666666Y-59726190D01*
X211166666Y-60226190D02*
X210880952Y-60226190D01*
X211023809Y-60226190D02*
X211023809Y-59726190D01*
X210976190Y-59797619D01*
X210928571Y-59845238D01*
X210880952Y-59869047D01*
X211333333Y-59726190D02*
X211642857Y-59726190D01*
X211476190Y-59916666D01*
X211547619Y-59916666D01*
X211595238Y-59940476D01*
X211619047Y-59964285D01*
X211642857Y-60011904D01*
X211642857Y-60130952D01*
X211619047Y-60178571D01*
X211595238Y-60202380D01*
X211547619Y-60226190D01*
X211404761Y-60226190D01*
X211357142Y-60202380D01*
X211333333Y-60178571D01*
%TO.C,BZ1*%
X206559523Y-40764285D02*
X206630952Y-40788095D01*
X206654761Y-40811904D01*
X206678571Y-40859523D01*
X206678571Y-40930952D01*
X206654761Y-40978571D01*
X206630952Y-41002380D01*
X206583333Y-41026190D01*
X206392857Y-41026190D01*
X206392857Y-40526190D01*
X206559523Y-40526190D01*
X206607142Y-40550000D01*
X206630952Y-40573809D01*
X206654761Y-40621428D01*
X206654761Y-40669047D01*
X206630952Y-40716666D01*
X206607142Y-40740476D01*
X206559523Y-40764285D01*
X206392857Y-40764285D01*
X206845238Y-40526190D02*
X207178571Y-40526190D01*
X206845238Y-41026190D01*
X207178571Y-41026190D01*
X207630952Y-41026190D02*
X207345238Y-41026190D01*
X207488095Y-41026190D02*
X207488095Y-40526190D01*
X207440476Y-40597619D01*
X207392857Y-40645238D01*
X207345238Y-40669047D01*
%TO.C,C30*%
X227378571Y-98778571D02*
X227354761Y-98802380D01*
X227283333Y-98826190D01*
X227235714Y-98826190D01*
X227164285Y-98802380D01*
X227116666Y-98754761D01*
X227092857Y-98707142D01*
X227069047Y-98611904D01*
X227069047Y-98540476D01*
X227092857Y-98445238D01*
X227116666Y-98397619D01*
X227164285Y-98350000D01*
X227235714Y-98326190D01*
X227283333Y-98326190D01*
X227354761Y-98350000D01*
X227378571Y-98373809D01*
X227545238Y-98326190D02*
X227854761Y-98326190D01*
X227688095Y-98516666D01*
X227759523Y-98516666D01*
X227807142Y-98540476D01*
X227830952Y-98564285D01*
X227854761Y-98611904D01*
X227854761Y-98730952D01*
X227830952Y-98778571D01*
X227807142Y-98802380D01*
X227759523Y-98826190D01*
X227616666Y-98826190D01*
X227569047Y-98802380D01*
X227545238Y-98778571D01*
X228164285Y-98326190D02*
X228211904Y-98326190D01*
X228259523Y-98350000D01*
X228283333Y-98373809D01*
X228307142Y-98421428D01*
X228330952Y-98516666D01*
X228330952Y-98635714D01*
X228307142Y-98730952D01*
X228283333Y-98778571D01*
X228259523Y-98802380D01*
X228211904Y-98826190D01*
X228164285Y-98826190D01*
X228116666Y-98802380D01*
X228092857Y-98778571D01*
X228069047Y-98730952D01*
X228045238Y-98635714D01*
X228045238Y-98516666D01*
X228069047Y-98421428D01*
X228092857Y-98373809D01*
X228116666Y-98350000D01*
X228164285Y-98326190D01*
%TO.C,D16*%
X238929483Y-101762294D02*
X239362496Y-101512294D01*
X239422020Y-101615392D01*
X239437115Y-101689156D01*
X239419685Y-101754204D01*
X239390350Y-101798634D01*
X239319776Y-101866872D01*
X239257917Y-101902587D01*
X239163534Y-101929586D01*
X239110390Y-101932776D01*
X239045341Y-101915346D01*
X238989007Y-101865392D01*
X238929483Y-101762294D01*
X239310436Y-102422122D02*
X239167579Y-102174687D01*
X239239007Y-102298405D02*
X239672020Y-102048405D01*
X239586351Y-102042880D01*
X239521303Y-102025450D01*
X239476873Y-101996115D01*
X239957734Y-102543276D02*
X239910115Y-102460798D01*
X239865686Y-102431463D01*
X239833162Y-102422748D01*
X239747493Y-102417223D01*
X239653110Y-102444223D01*
X239488152Y-102539461D01*
X239458818Y-102583890D01*
X239450103Y-102616414D01*
X239453293Y-102669558D01*
X239500912Y-102752037D01*
X239545341Y-102781371D01*
X239577866Y-102790086D01*
X239631010Y-102786896D01*
X239734108Y-102727373D01*
X239763442Y-102682943D01*
X239772157Y-102650419D01*
X239768967Y-102597275D01*
X239721348Y-102514796D01*
X239676919Y-102485462D01*
X239644395Y-102476747D01*
X239591251Y-102479937D01*
%TO.C,J5*%
X230333333Y-99126190D02*
X230333333Y-99483333D01*
X230309523Y-99554761D01*
X230261904Y-99602380D01*
X230190476Y-99626190D01*
X230142857Y-99626190D01*
X230809523Y-99126190D02*
X230571428Y-99126190D01*
X230547619Y-99364285D01*
X230571428Y-99340476D01*
X230619047Y-99316666D01*
X230738095Y-99316666D01*
X230785714Y-99340476D01*
X230809523Y-99364285D01*
X230833333Y-99411904D01*
X230833333Y-99530952D01*
X230809523Y-99578571D01*
X230785714Y-99602380D01*
X230738095Y-99626190D01*
X230619047Y-99626190D01*
X230571428Y-99602380D01*
X230547619Y-99578571D01*
%TO.C,J4*%
X216433333Y-100326190D02*
X216433333Y-100683333D01*
X216409523Y-100754761D01*
X216361904Y-100802380D01*
X216290476Y-100826190D01*
X216242857Y-100826190D01*
X216885714Y-100492857D02*
X216885714Y-100826190D01*
X216766666Y-100302380D02*
X216647619Y-100659523D01*
X216957142Y-100659523D01*
%TO.C,SW2*%
X194893346Y-93225592D02*
X194959473Y-93189591D01*
X195040664Y-93102525D01*
X195055727Y-93051460D01*
X195054551Y-93017809D01*
X195035963Y-92967920D01*
X195001137Y-92935444D01*
X194950072Y-92920381D01*
X194916421Y-92921556D01*
X194866532Y-92940144D01*
X194784166Y-92993559D01*
X194734277Y-93012147D01*
X194700626Y-93013322D01*
X194649561Y-92998259D01*
X194614735Y-92965783D01*
X194596147Y-92915894D01*
X194594972Y-92882243D01*
X194610035Y-92831178D01*
X194691225Y-92744112D01*
X194757352Y-92708111D01*
X194853605Y-92569981D02*
X195300473Y-92823914D01*
X195104227Y-92510690D01*
X195430377Y-92684608D01*
X195145890Y-92256543D01*
X195294383Y-92167127D02*
X195293208Y-92133476D01*
X195308271Y-92082411D01*
X195389461Y-91995345D01*
X195439351Y-91976757D01*
X195473002Y-91975582D01*
X195524066Y-91990645D01*
X195558893Y-92023121D01*
X195594894Y-92089248D01*
X195608996Y-92493063D01*
X195820090Y-92266692D01*
%TO.C,TP14*%
X201530952Y-85926190D02*
X201816666Y-85926190D01*
X201673809Y-86426190D02*
X201673809Y-85926190D01*
X201983333Y-86426190D02*
X201983333Y-85926190D01*
X202173809Y-85926190D01*
X202221428Y-85950000D01*
X202245238Y-85973809D01*
X202269047Y-86021428D01*
X202269047Y-86092857D01*
X202245238Y-86140476D01*
X202221428Y-86164285D01*
X202173809Y-86188095D01*
X201983333Y-86188095D01*
X202745238Y-86426190D02*
X202459523Y-86426190D01*
X202602380Y-86426190D02*
X202602380Y-85926190D01*
X202554761Y-85997619D01*
X202507142Y-86045238D01*
X202459523Y-86069047D01*
X203173809Y-86092857D02*
X203173809Y-86426190D01*
X203054761Y-85902380D02*
X202935714Y-86259523D01*
X203245238Y-86259523D01*
%TO.C,SW3*%
X253140802Y-63225523D02*
X253213018Y-63246826D01*
X253331993Y-63242671D01*
X253378752Y-63217214D01*
X253401716Y-63192588D01*
X253423849Y-63144167D01*
X253422187Y-63096577D01*
X253396731Y-63049818D01*
X253372105Y-63026854D01*
X253323684Y-63004721D01*
X253227673Y-62984250D01*
X253179252Y-62962116D01*
X253154626Y-62939152D01*
X253129169Y-62892393D01*
X253127507Y-62844803D01*
X253149640Y-62796382D01*
X253172604Y-62771756D01*
X253219363Y-62746299D01*
X253338338Y-62742145D01*
X253410554Y-62763447D01*
X253576289Y-62733835D02*
X253712713Y-63229376D01*
X253795429Y-62869127D01*
X253903074Y-63222728D01*
X254004599Y-62718878D01*
X254147369Y-62713893D02*
X254456704Y-62703090D01*
X254296787Y-62899267D01*
X254368172Y-62896774D01*
X254416593Y-62918908D01*
X254441219Y-62941872D01*
X254466676Y-62988631D01*
X254470830Y-63107606D01*
X254448697Y-63156027D01*
X254425733Y-63180653D01*
X254378974Y-63206110D01*
X254236204Y-63211095D01*
X254187783Y-63188962D01*
X254163157Y-63165998D01*
%TO.C,C1*%
X225716666Y-56578571D02*
X225692857Y-56602380D01*
X225621428Y-56626190D01*
X225573809Y-56626190D01*
X225502380Y-56602380D01*
X225454761Y-56554761D01*
X225430952Y-56507142D01*
X225407142Y-56411904D01*
X225407142Y-56340476D01*
X225430952Y-56245238D01*
X225454761Y-56197619D01*
X225502380Y-56150000D01*
X225573809Y-56126190D01*
X225621428Y-56126190D01*
X225692857Y-56150000D01*
X225716666Y-56173809D01*
X226192857Y-56626190D02*
X225907142Y-56626190D01*
X226050000Y-56626190D02*
X226050000Y-56126190D01*
X226002380Y-56197619D01*
X225954761Y-56245238D01*
X225907142Y-56269047D01*
%TO.C,C2*%
X223316666Y-43578571D02*
X223292857Y-43602380D01*
X223221428Y-43626190D01*
X223173809Y-43626190D01*
X223102380Y-43602380D01*
X223054761Y-43554761D01*
X223030952Y-43507142D01*
X223007142Y-43411904D01*
X223007142Y-43340476D01*
X223030952Y-43245238D01*
X223054761Y-43197619D01*
X223102380Y-43150000D01*
X223173809Y-43126190D01*
X223221428Y-43126190D01*
X223292857Y-43150000D01*
X223316666Y-43173809D01*
X223507142Y-43173809D02*
X223530952Y-43150000D01*
X223578571Y-43126190D01*
X223697619Y-43126190D01*
X223745238Y-43150000D01*
X223769047Y-43173809D01*
X223792857Y-43221428D01*
X223792857Y-43269047D01*
X223769047Y-43340476D01*
X223483333Y-43626190D01*
X223792857Y-43626190D01*
%TO.C,C3*%
X226916666Y-62978571D02*
X226892857Y-63002380D01*
X226821428Y-63026190D01*
X226773809Y-63026190D01*
X226702380Y-63002380D01*
X226654761Y-62954761D01*
X226630952Y-62907142D01*
X226607142Y-62811904D01*
X226607142Y-62740476D01*
X226630952Y-62645238D01*
X226654761Y-62597619D01*
X226702380Y-62550000D01*
X226773809Y-62526190D01*
X226821428Y-62526190D01*
X226892857Y-62550000D01*
X226916666Y-62573809D01*
X227083333Y-62526190D02*
X227392857Y-62526190D01*
X227226190Y-62716666D01*
X227297619Y-62716666D01*
X227345238Y-62740476D01*
X227369047Y-62764285D01*
X227392857Y-62811904D01*
X227392857Y-62930952D01*
X227369047Y-62978571D01*
X227345238Y-63002380D01*
X227297619Y-63026190D01*
X227154761Y-63026190D01*
X227107142Y-63002380D01*
X227083333Y-62978571D01*
%TO.C,C4*%
X229316666Y-62998571D02*
X229292857Y-63022380D01*
X229221428Y-63046190D01*
X229173809Y-63046190D01*
X229102380Y-63022380D01*
X229054761Y-62974761D01*
X229030952Y-62927142D01*
X229007142Y-62831904D01*
X229007142Y-62760476D01*
X229030952Y-62665238D01*
X229054761Y-62617619D01*
X229102380Y-62570000D01*
X229173809Y-62546190D01*
X229221428Y-62546190D01*
X229292857Y-62570000D01*
X229316666Y-62593809D01*
X229745238Y-62712857D02*
X229745238Y-63046190D01*
X229626190Y-62522380D02*
X229507142Y-62879523D01*
X229816666Y-62879523D01*
%TO.C,C5*%
X226916666Y-72778571D02*
X226892857Y-72802380D01*
X226821428Y-72826190D01*
X226773809Y-72826190D01*
X226702380Y-72802380D01*
X226654761Y-72754761D01*
X226630952Y-72707142D01*
X226607142Y-72611904D01*
X226607142Y-72540476D01*
X226630952Y-72445238D01*
X226654761Y-72397619D01*
X226702380Y-72350000D01*
X226773809Y-72326190D01*
X226821428Y-72326190D01*
X226892857Y-72350000D01*
X226916666Y-72373809D01*
X227369047Y-72326190D02*
X227130952Y-72326190D01*
X227107142Y-72564285D01*
X227130952Y-72540476D01*
X227178571Y-72516666D01*
X227297619Y-72516666D01*
X227345238Y-72540476D01*
X227369047Y-72564285D01*
X227392857Y-72611904D01*
X227392857Y-72730952D01*
X227369047Y-72778571D01*
X227345238Y-72802380D01*
X227297619Y-72826190D01*
X227178571Y-72826190D01*
X227130952Y-72802380D01*
X227107142Y-72778571D01*
%TO.C,C6*%
X248116666Y-79348571D02*
X248092857Y-79372380D01*
X248021428Y-79396190D01*
X247973809Y-79396190D01*
X247902380Y-79372380D01*
X247854761Y-79324761D01*
X247830952Y-79277142D01*
X247807142Y-79181904D01*
X247807142Y-79110476D01*
X247830952Y-79015238D01*
X247854761Y-78967619D01*
X247902380Y-78920000D01*
X247973809Y-78896190D01*
X248021428Y-78896190D01*
X248092857Y-78920000D01*
X248116666Y-78943809D01*
X248545238Y-78896190D02*
X248450000Y-78896190D01*
X248402380Y-78920000D01*
X248378571Y-78943809D01*
X248330952Y-79015238D01*
X248307142Y-79110476D01*
X248307142Y-79300952D01*
X248330952Y-79348571D01*
X248354761Y-79372380D01*
X248402380Y-79396190D01*
X248497619Y-79396190D01*
X248545238Y-79372380D01*
X248569047Y-79348571D01*
X248592857Y-79300952D01*
X248592857Y-79181904D01*
X248569047Y-79134285D01*
X248545238Y-79110476D01*
X248497619Y-79086666D01*
X248402380Y-79086666D01*
X248354761Y-79110476D01*
X248330952Y-79134285D01*
X248307142Y-79181904D01*
%TO.C,C7*%
X240916666Y-71398571D02*
X240892857Y-71422380D01*
X240821428Y-71446190D01*
X240773809Y-71446190D01*
X240702380Y-71422380D01*
X240654761Y-71374761D01*
X240630952Y-71327142D01*
X240607142Y-71231904D01*
X240607142Y-71160476D01*
X240630952Y-71065238D01*
X240654761Y-71017619D01*
X240702380Y-70970000D01*
X240773809Y-70946190D01*
X240821428Y-70946190D01*
X240892857Y-70970000D01*
X240916666Y-70993809D01*
X241083333Y-70946190D02*
X241416666Y-70946190D01*
X241202380Y-71446190D01*
%TO.C,C8*%
X216716666Y-43578571D02*
X216692857Y-43602380D01*
X216621428Y-43626190D01*
X216573809Y-43626190D01*
X216502380Y-43602380D01*
X216454761Y-43554761D01*
X216430952Y-43507142D01*
X216407142Y-43411904D01*
X216407142Y-43340476D01*
X216430952Y-43245238D01*
X216454761Y-43197619D01*
X216502380Y-43150000D01*
X216573809Y-43126190D01*
X216621428Y-43126190D01*
X216692857Y-43150000D01*
X216716666Y-43173809D01*
X217002380Y-43340476D02*
X216954761Y-43316666D01*
X216930952Y-43292857D01*
X216907142Y-43245238D01*
X216907142Y-43221428D01*
X216930952Y-43173809D01*
X216954761Y-43150000D01*
X217002380Y-43126190D01*
X217097619Y-43126190D01*
X217145238Y-43150000D01*
X217169047Y-43173809D01*
X217192857Y-43221428D01*
X217192857Y-43245238D01*
X217169047Y-43292857D01*
X217145238Y-43316666D01*
X217097619Y-43340476D01*
X217002380Y-43340476D01*
X216954761Y-43364285D01*
X216930952Y-43388095D01*
X216907142Y-43435714D01*
X216907142Y-43530952D01*
X216930952Y-43578571D01*
X216954761Y-43602380D01*
X217002380Y-43626190D01*
X217097619Y-43626190D01*
X217145238Y-43602380D01*
X217169047Y-43578571D01*
X217192857Y-43530952D01*
X217192857Y-43435714D01*
X217169047Y-43388095D01*
X217145238Y-43364285D01*
X217097619Y-43340476D01*
%TO.C,C9*%
X218316666Y-46378571D02*
X218292857Y-46402380D01*
X218221428Y-46426190D01*
X218173809Y-46426190D01*
X218102380Y-46402380D01*
X218054761Y-46354761D01*
X218030952Y-46307142D01*
X218007142Y-46211904D01*
X218007142Y-46140476D01*
X218030952Y-46045238D01*
X218054761Y-45997619D01*
X218102380Y-45950000D01*
X218173809Y-45926190D01*
X218221428Y-45926190D01*
X218292857Y-45950000D01*
X218316666Y-45973809D01*
X218554761Y-46426190D02*
X218650000Y-46426190D01*
X218697619Y-46402380D01*
X218721428Y-46378571D01*
X218769047Y-46307142D01*
X218792857Y-46211904D01*
X218792857Y-46021428D01*
X218769047Y-45973809D01*
X218745238Y-45950000D01*
X218697619Y-45926190D01*
X218602380Y-45926190D01*
X218554761Y-45950000D01*
X218530952Y-45973809D01*
X218507142Y-46021428D01*
X218507142Y-46140476D01*
X218530952Y-46188095D01*
X218554761Y-46211904D01*
X218602380Y-46235714D01*
X218697619Y-46235714D01*
X218745238Y-46211904D01*
X218769047Y-46188095D01*
X218792857Y-46140476D01*
%TO.C,C10*%
X227278571Y-52178571D02*
X227254761Y-52202380D01*
X227183333Y-52226190D01*
X227135714Y-52226190D01*
X227064285Y-52202380D01*
X227016666Y-52154761D01*
X226992857Y-52107142D01*
X226969047Y-52011904D01*
X226969047Y-51940476D01*
X226992857Y-51845238D01*
X227016666Y-51797619D01*
X227064285Y-51750000D01*
X227135714Y-51726190D01*
X227183333Y-51726190D01*
X227254761Y-51750000D01*
X227278571Y-51773809D01*
X227754761Y-52226190D02*
X227469047Y-52226190D01*
X227611904Y-52226190D02*
X227611904Y-51726190D01*
X227564285Y-51797619D01*
X227516666Y-51845238D01*
X227469047Y-51869047D01*
X228064285Y-51726190D02*
X228111904Y-51726190D01*
X228159523Y-51750000D01*
X228183333Y-51773809D01*
X228207142Y-51821428D01*
X228230952Y-51916666D01*
X228230952Y-52035714D01*
X228207142Y-52130952D01*
X228183333Y-52178571D01*
X228159523Y-52202380D01*
X228111904Y-52226190D01*
X228064285Y-52226190D01*
X228016666Y-52202380D01*
X227992857Y-52178571D01*
X227969047Y-52130952D01*
X227945238Y-52035714D01*
X227945238Y-51916666D01*
X227969047Y-51821428D01*
X227992857Y-51773809D01*
X228016666Y-51750000D01*
X228064285Y-51726190D01*
%TO.C,C11*%
X214478571Y-57378571D02*
X214454761Y-57402380D01*
X214383333Y-57426190D01*
X214335714Y-57426190D01*
X214264285Y-57402380D01*
X214216666Y-57354761D01*
X214192857Y-57307142D01*
X214169047Y-57211904D01*
X214169047Y-57140476D01*
X214192857Y-57045238D01*
X214216666Y-56997619D01*
X214264285Y-56950000D01*
X214335714Y-56926190D01*
X214383333Y-56926190D01*
X214454761Y-56950000D01*
X214478571Y-56973809D01*
X214954761Y-57426190D02*
X214669047Y-57426190D01*
X214811904Y-57426190D02*
X214811904Y-56926190D01*
X214764285Y-56997619D01*
X214716666Y-57045238D01*
X214669047Y-57069047D01*
X215430952Y-57426190D02*
X215145238Y-57426190D01*
X215288095Y-57426190D02*
X215288095Y-56926190D01*
X215240476Y-56997619D01*
X215192857Y-57045238D01*
X215145238Y-57069047D01*
%TO.C,C12*%
X224698571Y-39378571D02*
X224674761Y-39402380D01*
X224603333Y-39426190D01*
X224555714Y-39426190D01*
X224484285Y-39402380D01*
X224436666Y-39354761D01*
X224412857Y-39307142D01*
X224389047Y-39211904D01*
X224389047Y-39140476D01*
X224412857Y-39045238D01*
X224436666Y-38997619D01*
X224484285Y-38950000D01*
X224555714Y-38926190D01*
X224603333Y-38926190D01*
X224674761Y-38950000D01*
X224698571Y-38973809D01*
X225174761Y-39426190D02*
X224889047Y-39426190D01*
X225031904Y-39426190D02*
X225031904Y-38926190D01*
X224984285Y-38997619D01*
X224936666Y-39045238D01*
X224889047Y-39069047D01*
X225365238Y-38973809D02*
X225389047Y-38950000D01*
X225436666Y-38926190D01*
X225555714Y-38926190D01*
X225603333Y-38950000D01*
X225627142Y-38973809D01*
X225650952Y-39021428D01*
X225650952Y-39069047D01*
X225627142Y-39140476D01*
X225341428Y-39426190D01*
X225650952Y-39426190D01*
%TO.C,C13*%
X230878571Y-44378571D02*
X230854761Y-44402380D01*
X230783333Y-44426190D01*
X230735714Y-44426190D01*
X230664285Y-44402380D01*
X230616666Y-44354761D01*
X230592857Y-44307142D01*
X230569047Y-44211904D01*
X230569047Y-44140476D01*
X230592857Y-44045238D01*
X230616666Y-43997619D01*
X230664285Y-43950000D01*
X230735714Y-43926190D01*
X230783333Y-43926190D01*
X230854761Y-43950000D01*
X230878571Y-43973809D01*
X231354761Y-44426190D02*
X231069047Y-44426190D01*
X231211904Y-44426190D02*
X231211904Y-43926190D01*
X231164285Y-43997619D01*
X231116666Y-44045238D01*
X231069047Y-44069047D01*
X231521428Y-43926190D02*
X231830952Y-43926190D01*
X231664285Y-44116666D01*
X231735714Y-44116666D01*
X231783333Y-44140476D01*
X231807142Y-44164285D01*
X231830952Y-44211904D01*
X231830952Y-44330952D01*
X231807142Y-44378571D01*
X231783333Y-44402380D01*
X231735714Y-44426190D01*
X231592857Y-44426190D01*
X231545238Y-44402380D01*
X231521428Y-44378571D01*
%TO.C,C15*%
X207514463Y-78031674D02*
X207495149Y-78059256D01*
X207428941Y-78095107D01*
X207382045Y-78103376D01*
X207307567Y-78092332D01*
X207252402Y-78053705D01*
X207220686Y-78010944D01*
X207180700Y-77921287D01*
X207168297Y-77850944D01*
X207175206Y-77753018D01*
X207190385Y-77701988D01*
X207229012Y-77646823D01*
X207295221Y-77610972D01*
X207342116Y-77602703D01*
X207416594Y-77613748D01*
X207444177Y-77633061D01*
X207991688Y-77995880D02*
X207710314Y-78045493D01*
X207851001Y-78020686D02*
X207764177Y-77528283D01*
X207729685Y-77606895D01*
X207691058Y-77662059D01*
X207648297Y-77693776D01*
X208350372Y-77424921D02*
X208115894Y-77466265D01*
X208133791Y-77704878D01*
X208153104Y-77677296D01*
X208195865Y-77645579D01*
X208313104Y-77624906D01*
X208364134Y-77640085D01*
X208391717Y-77659399D01*
X208423434Y-77702160D01*
X208444106Y-77819399D01*
X208428927Y-77870429D01*
X208409614Y-77898011D01*
X208366853Y-77929728D01*
X208249614Y-77950400D01*
X208198584Y-77935221D01*
X208171001Y-77915908D01*
%TO.C,C16*%
X207114463Y-76231674D02*
X207095149Y-76259256D01*
X207028941Y-76295107D01*
X206982045Y-76303376D01*
X206907567Y-76292332D01*
X206852402Y-76253705D01*
X206820686Y-76210944D01*
X206780700Y-76121287D01*
X206768297Y-76050944D01*
X206775206Y-75953018D01*
X206790385Y-75901988D01*
X206829012Y-75846823D01*
X206895221Y-75810972D01*
X206942116Y-75802703D01*
X207016594Y-75813748D01*
X207044177Y-75833061D01*
X207591688Y-76195880D02*
X207310314Y-76245493D01*
X207451001Y-76220686D02*
X207364177Y-75728283D01*
X207329685Y-75806895D01*
X207291058Y-75862059D01*
X207248297Y-75893776D01*
X207926924Y-75629055D02*
X207833133Y-75645593D01*
X207790372Y-75677310D01*
X207771058Y-75704892D01*
X207736566Y-75783504D01*
X207729656Y-75881430D01*
X207762732Y-76069012D01*
X207794449Y-76111774D01*
X207822031Y-76131087D01*
X207873061Y-76146266D01*
X207966853Y-76129728D01*
X208009614Y-76098011D01*
X208028927Y-76070429D01*
X208044106Y-76019399D01*
X208023434Y-75902160D01*
X207991717Y-75859399D01*
X207964134Y-75840085D01*
X207913104Y-75824906D01*
X207819313Y-75841444D01*
X207776552Y-75873161D01*
X207757239Y-75900743D01*
X207742060Y-75951773D01*
%TO.C,C23*%
X206398571Y-97578571D02*
X206374761Y-97602380D01*
X206303333Y-97626190D01*
X206255714Y-97626190D01*
X206184285Y-97602380D01*
X206136666Y-97554761D01*
X206112857Y-97507142D01*
X206089047Y-97411904D01*
X206089047Y-97340476D01*
X206112857Y-97245238D01*
X206136666Y-97197619D01*
X206184285Y-97150000D01*
X206255714Y-97126190D01*
X206303333Y-97126190D01*
X206374761Y-97150000D01*
X206398571Y-97173809D01*
X206589047Y-97173809D02*
X206612857Y-97150000D01*
X206660476Y-97126190D01*
X206779523Y-97126190D01*
X206827142Y-97150000D01*
X206850952Y-97173809D01*
X206874761Y-97221428D01*
X206874761Y-97269047D01*
X206850952Y-97340476D01*
X206565238Y-97626190D01*
X206874761Y-97626190D01*
X207041428Y-97126190D02*
X207350952Y-97126190D01*
X207184285Y-97316666D01*
X207255714Y-97316666D01*
X207303333Y-97340476D01*
X207327142Y-97364285D01*
X207350952Y-97411904D01*
X207350952Y-97530952D01*
X207327142Y-97578571D01*
X207303333Y-97602380D01*
X207255714Y-97626190D01*
X207112857Y-97626190D01*
X207065238Y-97602380D01*
X207041428Y-97578571D01*
%TO.C,C24*%
X217278571Y-87978571D02*
X217254761Y-88002380D01*
X217183333Y-88026190D01*
X217135714Y-88026190D01*
X217064285Y-88002380D01*
X217016666Y-87954761D01*
X216992857Y-87907142D01*
X216969047Y-87811904D01*
X216969047Y-87740476D01*
X216992857Y-87645238D01*
X217016666Y-87597619D01*
X217064285Y-87550000D01*
X217135714Y-87526190D01*
X217183333Y-87526190D01*
X217254761Y-87550000D01*
X217278571Y-87573809D01*
X217469047Y-87573809D02*
X217492857Y-87550000D01*
X217540476Y-87526190D01*
X217659523Y-87526190D01*
X217707142Y-87550000D01*
X217730952Y-87573809D01*
X217754761Y-87621428D01*
X217754761Y-87669047D01*
X217730952Y-87740476D01*
X217445238Y-88026190D01*
X217754761Y-88026190D01*
X218183333Y-87692857D02*
X218183333Y-88026190D01*
X218064285Y-87502380D02*
X217945238Y-87859523D01*
X218254761Y-87859523D01*
%TO.C,C27*%
X204454463Y-75381674D02*
X204435149Y-75409256D01*
X204368941Y-75445107D01*
X204322045Y-75453376D01*
X204247567Y-75442332D01*
X204192402Y-75403705D01*
X204160686Y-75360944D01*
X204120700Y-75271287D01*
X204108297Y-75200944D01*
X204115206Y-75103018D01*
X204130385Y-75051988D01*
X204169012Y-74996823D01*
X204235221Y-74960972D01*
X204282116Y-74952703D01*
X204356594Y-74963748D01*
X204384177Y-74983061D01*
X204571759Y-74949985D02*
X204591072Y-74922403D01*
X204633833Y-74890686D01*
X204751072Y-74870014D01*
X204802103Y-74885192D01*
X204829685Y-74904506D01*
X204861402Y-74947267D01*
X204869671Y-74994162D01*
X204858626Y-75068640D01*
X204626866Y-75399628D01*
X204931688Y-75345880D01*
X205008998Y-74824534D02*
X205337268Y-74766652D01*
X205213061Y-75296266D01*
%TO.C,C28*%
X202134463Y-75881674D02*
X202115149Y-75909256D01*
X202048941Y-75945107D01*
X202002045Y-75953376D01*
X201927567Y-75942332D01*
X201872402Y-75903705D01*
X201840686Y-75860944D01*
X201800700Y-75771287D01*
X201788297Y-75700944D01*
X201795206Y-75603018D01*
X201810385Y-75551988D01*
X201849012Y-75496823D01*
X201915221Y-75460972D01*
X201962116Y-75452703D01*
X202036594Y-75463748D01*
X202064177Y-75483061D01*
X202251759Y-75449985D02*
X202271072Y-75422403D01*
X202313833Y-75390686D01*
X202431072Y-75370014D01*
X202482103Y-75385192D01*
X202509685Y-75404506D01*
X202541402Y-75447267D01*
X202549671Y-75494162D01*
X202538626Y-75568640D01*
X202306866Y-75899628D01*
X202611688Y-75845880D01*
X202843448Y-75514892D02*
X202792418Y-75499713D01*
X202764835Y-75480400D01*
X202733119Y-75437639D01*
X202728984Y-75414191D01*
X202744163Y-75363161D01*
X202763476Y-75335579D01*
X202806237Y-75303862D01*
X202900029Y-75287324D01*
X202951059Y-75302503D01*
X202978641Y-75321816D01*
X203010358Y-75364577D01*
X203014492Y-75388025D01*
X202999313Y-75439055D01*
X202980000Y-75466637D01*
X202937239Y-75498354D01*
X202843448Y-75514892D01*
X202800687Y-75546609D01*
X202781373Y-75574191D01*
X202766194Y-75625221D01*
X202782732Y-75719012D01*
X202814449Y-75761774D01*
X202842031Y-75781087D01*
X202893061Y-75796266D01*
X202986853Y-75779728D01*
X203029614Y-75748011D01*
X203048927Y-75720429D01*
X203064106Y-75669399D01*
X203047568Y-75575607D01*
X203015851Y-75532846D01*
X202988269Y-75513533D01*
X202937239Y-75498354D01*
%TO.C,C31*%
X233478571Y-88578571D02*
X233454761Y-88602380D01*
X233383333Y-88626190D01*
X233335714Y-88626190D01*
X233264285Y-88602380D01*
X233216666Y-88554761D01*
X233192857Y-88507142D01*
X233169047Y-88411904D01*
X233169047Y-88340476D01*
X233192857Y-88245238D01*
X233216666Y-88197619D01*
X233264285Y-88150000D01*
X233335714Y-88126190D01*
X233383333Y-88126190D01*
X233454761Y-88150000D01*
X233478571Y-88173809D01*
X233645238Y-88126190D02*
X233954761Y-88126190D01*
X233788095Y-88316666D01*
X233859523Y-88316666D01*
X233907142Y-88340476D01*
X233930952Y-88364285D01*
X233954761Y-88411904D01*
X233954761Y-88530952D01*
X233930952Y-88578571D01*
X233907142Y-88602380D01*
X233859523Y-88626190D01*
X233716666Y-88626190D01*
X233669047Y-88602380D01*
X233645238Y-88578571D01*
X234430952Y-88626190D02*
X234145238Y-88626190D01*
X234288095Y-88626190D02*
X234288095Y-88126190D01*
X234240476Y-88197619D01*
X234192857Y-88245238D01*
X234145238Y-88269047D01*
%TO.C,C32*%
X231278571Y-87578571D02*
X231254761Y-87602380D01*
X231183333Y-87626190D01*
X231135714Y-87626190D01*
X231064285Y-87602380D01*
X231016666Y-87554761D01*
X230992857Y-87507142D01*
X230969047Y-87411904D01*
X230969047Y-87340476D01*
X230992857Y-87245238D01*
X231016666Y-87197619D01*
X231064285Y-87150000D01*
X231135714Y-87126190D01*
X231183333Y-87126190D01*
X231254761Y-87150000D01*
X231278571Y-87173809D01*
X231445238Y-87126190D02*
X231754761Y-87126190D01*
X231588095Y-87316666D01*
X231659523Y-87316666D01*
X231707142Y-87340476D01*
X231730952Y-87364285D01*
X231754761Y-87411904D01*
X231754761Y-87530952D01*
X231730952Y-87578571D01*
X231707142Y-87602380D01*
X231659523Y-87626190D01*
X231516666Y-87626190D01*
X231469047Y-87602380D01*
X231445238Y-87578571D01*
X231945238Y-87173809D02*
X231969047Y-87150000D01*
X232016666Y-87126190D01*
X232135714Y-87126190D01*
X232183333Y-87150000D01*
X232207142Y-87173809D01*
X232230952Y-87221428D01*
X232230952Y-87269047D01*
X232207142Y-87340476D01*
X231921428Y-87626190D01*
X232230952Y-87626190D01*
%TO.C,C33*%
X210878571Y-68378571D02*
X210854761Y-68402380D01*
X210783333Y-68426190D01*
X210735714Y-68426190D01*
X210664285Y-68402380D01*
X210616666Y-68354761D01*
X210592857Y-68307142D01*
X210569047Y-68211904D01*
X210569047Y-68140476D01*
X210592857Y-68045238D01*
X210616666Y-67997619D01*
X210664285Y-67950000D01*
X210735714Y-67926190D01*
X210783333Y-67926190D01*
X210854761Y-67950000D01*
X210878571Y-67973809D01*
X211045238Y-67926190D02*
X211354761Y-67926190D01*
X211188095Y-68116666D01*
X211259523Y-68116666D01*
X211307142Y-68140476D01*
X211330952Y-68164285D01*
X211354761Y-68211904D01*
X211354761Y-68330952D01*
X211330952Y-68378571D01*
X211307142Y-68402380D01*
X211259523Y-68426190D01*
X211116666Y-68426190D01*
X211069047Y-68402380D01*
X211045238Y-68378571D01*
X211521428Y-67926190D02*
X211830952Y-67926190D01*
X211664285Y-68116666D01*
X211735714Y-68116666D01*
X211783333Y-68140476D01*
X211807142Y-68164285D01*
X211830952Y-68211904D01*
X211830952Y-68330952D01*
X211807142Y-68378571D01*
X211783333Y-68402380D01*
X211735714Y-68426190D01*
X211592857Y-68426190D01*
X211545238Y-68402380D01*
X211521428Y-68378571D01*
%TO.C,C35*%
X211678571Y-47978571D02*
X211654761Y-48002380D01*
X211583333Y-48026190D01*
X211535714Y-48026190D01*
X211464285Y-48002380D01*
X211416666Y-47954761D01*
X211392857Y-47907142D01*
X211369047Y-47811904D01*
X211369047Y-47740476D01*
X211392857Y-47645238D01*
X211416666Y-47597619D01*
X211464285Y-47550000D01*
X211535714Y-47526190D01*
X211583333Y-47526190D01*
X211654761Y-47550000D01*
X211678571Y-47573809D01*
X211845238Y-47526190D02*
X212154761Y-47526190D01*
X211988095Y-47716666D01*
X212059523Y-47716666D01*
X212107142Y-47740476D01*
X212130952Y-47764285D01*
X212154761Y-47811904D01*
X212154761Y-47930952D01*
X212130952Y-47978571D01*
X212107142Y-48002380D01*
X212059523Y-48026190D01*
X211916666Y-48026190D01*
X211869047Y-48002380D01*
X211845238Y-47978571D01*
X212607142Y-47526190D02*
X212369047Y-47526190D01*
X212345238Y-47764285D01*
X212369047Y-47740476D01*
X212416666Y-47716666D01*
X212535714Y-47716666D01*
X212583333Y-47740476D01*
X212607142Y-47764285D01*
X212630952Y-47811904D01*
X212630952Y-47930952D01*
X212607142Y-47978571D01*
X212583333Y-48002380D01*
X212535714Y-48026190D01*
X212416666Y-48026190D01*
X212369047Y-48002380D01*
X212345238Y-47978571D01*
%TO.C,C36*%
X240678571Y-48378571D02*
X240654761Y-48402380D01*
X240583333Y-48426190D01*
X240535714Y-48426190D01*
X240464285Y-48402380D01*
X240416666Y-48354761D01*
X240392857Y-48307142D01*
X240369047Y-48211904D01*
X240369047Y-48140476D01*
X240392857Y-48045238D01*
X240416666Y-47997619D01*
X240464285Y-47950000D01*
X240535714Y-47926190D01*
X240583333Y-47926190D01*
X240654761Y-47950000D01*
X240678571Y-47973809D01*
X240845238Y-47926190D02*
X241154761Y-47926190D01*
X240988095Y-48116666D01*
X241059523Y-48116666D01*
X241107142Y-48140476D01*
X241130952Y-48164285D01*
X241154761Y-48211904D01*
X241154761Y-48330952D01*
X241130952Y-48378571D01*
X241107142Y-48402380D01*
X241059523Y-48426190D01*
X240916666Y-48426190D01*
X240869047Y-48402380D01*
X240845238Y-48378571D01*
X241583333Y-47926190D02*
X241488095Y-47926190D01*
X241440476Y-47950000D01*
X241416666Y-47973809D01*
X241369047Y-48045238D01*
X241345238Y-48140476D01*
X241345238Y-48330952D01*
X241369047Y-48378571D01*
X241392857Y-48402380D01*
X241440476Y-48426190D01*
X241535714Y-48426190D01*
X241583333Y-48402380D01*
X241607142Y-48378571D01*
X241630952Y-48330952D01*
X241630952Y-48211904D01*
X241607142Y-48164285D01*
X241583333Y-48140476D01*
X241535714Y-48116666D01*
X241440476Y-48116666D01*
X241392857Y-48140476D01*
X241369047Y-48164285D01*
X241345238Y-48211904D01*
%TO.C,C37*%
X235878571Y-49978571D02*
X235854761Y-50002380D01*
X235783333Y-50026190D01*
X235735714Y-50026190D01*
X235664285Y-50002380D01*
X235616666Y-49954761D01*
X235592857Y-49907142D01*
X235569047Y-49811904D01*
X235569047Y-49740476D01*
X235592857Y-49645238D01*
X235616666Y-49597619D01*
X235664285Y-49550000D01*
X235735714Y-49526190D01*
X235783333Y-49526190D01*
X235854761Y-49550000D01*
X235878571Y-49573809D01*
X236045238Y-49526190D02*
X236354761Y-49526190D01*
X236188095Y-49716666D01*
X236259523Y-49716666D01*
X236307142Y-49740476D01*
X236330952Y-49764285D01*
X236354761Y-49811904D01*
X236354761Y-49930952D01*
X236330952Y-49978571D01*
X236307142Y-50002380D01*
X236259523Y-50026190D01*
X236116666Y-50026190D01*
X236069047Y-50002380D01*
X236045238Y-49978571D01*
X236521428Y-49526190D02*
X236854761Y-49526190D01*
X236640476Y-50026190D01*
%TO.C,D1*%
X240630952Y-73416190D02*
X240630952Y-72916190D01*
X240750000Y-72916190D01*
X240821428Y-72940000D01*
X240869047Y-72987619D01*
X240892857Y-73035238D01*
X240916666Y-73130476D01*
X240916666Y-73201904D01*
X240892857Y-73297142D01*
X240869047Y-73344761D01*
X240821428Y-73392380D01*
X240750000Y-73416190D01*
X240630952Y-73416190D01*
X241392857Y-73416190D02*
X241107142Y-73416190D01*
X241250000Y-73416190D02*
X241250000Y-72916190D01*
X241202380Y-72987619D01*
X241154761Y-73035238D01*
X241107142Y-73059047D01*
%TO.C,D12*%
X190645994Y-91851926D02*
X190359205Y-91442350D01*
X190456724Y-91374067D01*
X190528891Y-91352601D01*
X190595211Y-91364295D01*
X190642028Y-91389645D01*
X190716158Y-91454003D01*
X190757128Y-91512514D01*
X190792251Y-91604185D01*
X190800060Y-91656849D01*
X190788366Y-91723169D01*
X190743512Y-91783643D01*
X190645994Y-91851926D01*
X191270110Y-91414915D02*
X191036066Y-91578794D01*
X191153088Y-91496855D02*
X190866300Y-91087279D01*
X190868262Y-91173103D01*
X190856568Y-91239423D01*
X190831217Y-91286240D01*
X191166663Y-90935094D02*
X191172511Y-90901933D01*
X191197861Y-90855117D01*
X191295379Y-90786834D01*
X191348043Y-90779024D01*
X191381203Y-90784871D01*
X191428020Y-90810222D01*
X191455333Y-90849229D01*
X191476799Y-90921397D01*
X191406635Y-91319319D01*
X191660182Y-91141783D01*
%TO.C,D13*%
X243272857Y-44866190D02*
X243272857Y-44366190D01*
X243391904Y-44366190D01*
X243463333Y-44390000D01*
X243510952Y-44437619D01*
X243534761Y-44485238D01*
X243558571Y-44580476D01*
X243558571Y-44651904D01*
X243534761Y-44747142D01*
X243510952Y-44794761D01*
X243463333Y-44842380D01*
X243391904Y-44866190D01*
X243272857Y-44866190D01*
X244034761Y-44866190D02*
X243749047Y-44866190D01*
X243891904Y-44866190D02*
X243891904Y-44366190D01*
X243844285Y-44437619D01*
X243796666Y-44485238D01*
X243749047Y-44509047D01*
X244201428Y-44366190D02*
X244510952Y-44366190D01*
X244344285Y-44556666D01*
X244415714Y-44556666D01*
X244463333Y-44580476D01*
X244487142Y-44604285D01*
X244510952Y-44651904D01*
X244510952Y-44770952D01*
X244487142Y-44818571D01*
X244463333Y-44842380D01*
X244415714Y-44866190D01*
X244272857Y-44866190D01*
X244225238Y-44842380D01*
X244201428Y-44818571D01*
%TO.C,D14*%
X248192858Y-50026190D02*
X248192858Y-49526190D01*
X248311905Y-49526190D01*
X248383334Y-49550000D01*
X248430953Y-49597619D01*
X248454762Y-49645238D01*
X248478572Y-49740476D01*
X248478572Y-49811904D01*
X248454762Y-49907142D01*
X248430953Y-49954761D01*
X248383334Y-50002380D01*
X248311905Y-50026190D01*
X248192858Y-50026190D01*
X248954762Y-50026190D02*
X248669048Y-50026190D01*
X248811905Y-50026190D02*
X248811905Y-49526190D01*
X248764286Y-49597619D01*
X248716667Y-49645238D01*
X248669048Y-49669047D01*
X249383334Y-49692857D02*
X249383334Y-50026190D01*
X249264286Y-49502380D02*
X249145239Y-49859523D01*
X249454762Y-49859523D01*
%TO.C,D15*%
X233160288Y-104562501D02*
X233630134Y-104391490D01*
X233670851Y-104503359D01*
X233672907Y-104578623D01*
X233644447Y-104639657D01*
X233607843Y-104678317D01*
X233526492Y-104733264D01*
X233459371Y-104757694D01*
X233361733Y-104767894D01*
X233308842Y-104761807D01*
X233247808Y-104733346D01*
X233201005Y-104674369D01*
X233160288Y-104562501D01*
X233420875Y-105278457D02*
X233323155Y-105009973D01*
X233372015Y-105144215D02*
X233841861Y-104973205D01*
X233758453Y-104952888D01*
X233697419Y-104924427D01*
X233658759Y-104887823D01*
X234045444Y-105532546D02*
X233964011Y-105308809D01*
X233732131Y-105367869D01*
X233762648Y-105382099D01*
X233801309Y-105418703D01*
X233842025Y-105530572D01*
X233835938Y-105583462D01*
X233821708Y-105613979D01*
X233785104Y-105652639D01*
X233673236Y-105693356D01*
X233620345Y-105687269D01*
X233589828Y-105673039D01*
X233551168Y-105636435D01*
X233510451Y-105524567D01*
X233516538Y-105471676D01*
X233530769Y-105441159D01*
%TO.C,J3*%
X243422648Y-96157219D02*
X243700200Y-96381976D01*
X243740727Y-96445431D01*
X243747766Y-96512406D01*
X243721318Y-96582900D01*
X243691350Y-96619907D01*
X243542518Y-96009191D02*
X243737308Y-95768646D01*
X243780449Y-96018041D01*
X243825401Y-95962530D01*
X243873872Y-95940507D01*
X243907359Y-95936988D01*
X243959350Y-95948452D01*
X244051867Y-96023371D01*
X244073890Y-96071842D01*
X244077410Y-96105329D01*
X244065946Y-96157320D01*
X243976043Y-96268341D01*
X243927572Y-96290364D01*
X243894084Y-96293884D01*
%TO.C,Q3*%
X187708788Y-84951362D02*
X187657705Y-84936362D01*
X187602406Y-84897928D01*
X187519457Y-84840277D01*
X187468374Y-84825276D01*
X187421508Y-84833709D01*
X187466023Y-84946659D02*
X187414940Y-84931658D01*
X187359641Y-84893224D01*
X187319342Y-84803708D01*
X187289828Y-84639675D01*
X187296396Y-84541726D01*
X187334830Y-84486427D01*
X187377480Y-84454561D01*
X187471213Y-84437696D01*
X187522296Y-84452696D01*
X187577595Y-84491130D01*
X187617893Y-84580647D01*
X187647408Y-84744679D01*
X187640840Y-84842629D01*
X187602406Y-84897928D01*
X187559756Y-84929794D01*
X187466023Y-84946659D01*
X187752412Y-84387100D02*
X188057044Y-84332288D01*
X187926742Y-84549268D01*
X187997041Y-84536619D01*
X188048124Y-84551620D01*
X188075774Y-84570837D01*
X188107640Y-84613487D01*
X188128721Y-84730653D01*
X188113720Y-84781736D01*
X188094504Y-84809385D01*
X188051853Y-84841251D01*
X187911254Y-84866549D01*
X187860171Y-84851548D01*
X187832522Y-84832332D01*
%TO.C,Q4*%
X244552380Y-60073809D02*
X244504761Y-60050000D01*
X244457142Y-60002380D01*
X244385714Y-59930952D01*
X244338095Y-59907142D01*
X244290476Y-59907142D01*
X244314285Y-60026190D02*
X244266666Y-60002380D01*
X244219047Y-59954761D01*
X244195238Y-59859523D01*
X244195238Y-59692857D01*
X244219047Y-59597619D01*
X244266666Y-59550000D01*
X244314285Y-59526190D01*
X244409523Y-59526190D01*
X244457142Y-59550000D01*
X244504761Y-59597619D01*
X244528571Y-59692857D01*
X244528571Y-59859523D01*
X244504761Y-59954761D01*
X244457142Y-60002380D01*
X244409523Y-60026190D01*
X244314285Y-60026190D01*
X244957142Y-59692857D02*
X244957142Y-60026190D01*
X244838095Y-59502380D02*
X244719047Y-59859523D01*
X245028571Y-59859523D01*
%TO.C,R1*%
X220716666Y-35226190D02*
X220550000Y-34988095D01*
X220430952Y-35226190D02*
X220430952Y-34726190D01*
X220621428Y-34726190D01*
X220669047Y-34750000D01*
X220692857Y-34773809D01*
X220716666Y-34821428D01*
X220716666Y-34892857D01*
X220692857Y-34940476D01*
X220669047Y-34964285D01*
X220621428Y-34988095D01*
X220430952Y-34988095D01*
X221192857Y-35226190D02*
X220907142Y-35226190D01*
X221050000Y-35226190D02*
X221050000Y-34726190D01*
X221002380Y-34797619D01*
X220954761Y-34845238D01*
X220907142Y-34869047D01*
%TO.C,R2*%
X214716666Y-59626190D02*
X214550000Y-59388095D01*
X214430952Y-59626190D02*
X214430952Y-59126190D01*
X214621428Y-59126190D01*
X214669047Y-59150000D01*
X214692857Y-59173809D01*
X214716666Y-59221428D01*
X214716666Y-59292857D01*
X214692857Y-59340476D01*
X214669047Y-59364285D01*
X214621428Y-59388095D01*
X214430952Y-59388095D01*
X214907142Y-59173809D02*
X214930952Y-59150000D01*
X214978571Y-59126190D01*
X215097619Y-59126190D01*
X215145238Y-59150000D01*
X215169047Y-59173809D01*
X215192857Y-59221428D01*
X215192857Y-59269047D01*
X215169047Y-59340476D01*
X214883333Y-59626190D01*
X215192857Y-59626190D01*
%TO.C,R3*%
X230116666Y-42226190D02*
X229950000Y-41988095D01*
X229830952Y-42226190D02*
X229830952Y-41726190D01*
X230021428Y-41726190D01*
X230069047Y-41750000D01*
X230092857Y-41773809D01*
X230116666Y-41821428D01*
X230116666Y-41892857D01*
X230092857Y-41940476D01*
X230069047Y-41964285D01*
X230021428Y-41988095D01*
X229830952Y-41988095D01*
X230283333Y-41726190D02*
X230592857Y-41726190D01*
X230426190Y-41916666D01*
X230497619Y-41916666D01*
X230545238Y-41940476D01*
X230569047Y-41964285D01*
X230592857Y-42011904D01*
X230592857Y-42130952D01*
X230569047Y-42178571D01*
X230545238Y-42202380D01*
X230497619Y-42226190D01*
X230354761Y-42226190D01*
X230307142Y-42202380D01*
X230283333Y-42178571D01*
%TO.C,R4*%
X218516666Y-35226190D02*
X218350000Y-34988095D01*
X218230952Y-35226190D02*
X218230952Y-34726190D01*
X218421428Y-34726190D01*
X218469047Y-34750000D01*
X218492857Y-34773809D01*
X218516666Y-34821428D01*
X218516666Y-34892857D01*
X218492857Y-34940476D01*
X218469047Y-34964285D01*
X218421428Y-34988095D01*
X218230952Y-34988095D01*
X218945238Y-34892857D02*
X218945238Y-35226190D01*
X218826190Y-34702380D02*
X218707142Y-35059523D01*
X219016666Y-35059523D01*
%TO.C,R5*%
X225516666Y-43626190D02*
X225350000Y-43388095D01*
X225230952Y-43626190D02*
X225230952Y-43126190D01*
X225421428Y-43126190D01*
X225469047Y-43150000D01*
X225492857Y-43173809D01*
X225516666Y-43221428D01*
X225516666Y-43292857D01*
X225492857Y-43340476D01*
X225469047Y-43364285D01*
X225421428Y-43388095D01*
X225230952Y-43388095D01*
X225969047Y-43126190D02*
X225730952Y-43126190D01*
X225707142Y-43364285D01*
X225730952Y-43340476D01*
X225778571Y-43316666D01*
X225897619Y-43316666D01*
X225945238Y-43340476D01*
X225969047Y-43364285D01*
X225992857Y-43411904D01*
X225992857Y-43530952D01*
X225969047Y-43578571D01*
X225945238Y-43602380D01*
X225897619Y-43626190D01*
X225778571Y-43626190D01*
X225730952Y-43602380D01*
X225707142Y-43578571D01*
%TO.C,R6*%
X214716666Y-61426190D02*
X214550000Y-61188095D01*
X214430952Y-61426190D02*
X214430952Y-60926190D01*
X214621428Y-60926190D01*
X214669047Y-60950000D01*
X214692857Y-60973809D01*
X214716666Y-61021428D01*
X214716666Y-61092857D01*
X214692857Y-61140476D01*
X214669047Y-61164285D01*
X214621428Y-61188095D01*
X214430952Y-61188095D01*
X215145238Y-60926190D02*
X215050000Y-60926190D01*
X215002380Y-60950000D01*
X214978571Y-60973809D01*
X214930952Y-61045238D01*
X214907142Y-61140476D01*
X214907142Y-61330952D01*
X214930952Y-61378571D01*
X214954761Y-61402380D01*
X215002380Y-61426190D01*
X215097619Y-61426190D01*
X215145238Y-61402380D01*
X215169047Y-61378571D01*
X215192857Y-61330952D01*
X215192857Y-61211904D01*
X215169047Y-61164285D01*
X215145238Y-61140476D01*
X215097619Y-61116666D01*
X215002380Y-61116666D01*
X214954761Y-61140476D01*
X214930952Y-61164285D01*
X214907142Y-61211904D01*
%TO.C,R7*%
X210556666Y-42076190D02*
X210390000Y-41838095D01*
X210270952Y-42076190D02*
X210270952Y-41576190D01*
X210461428Y-41576190D01*
X210509047Y-41600000D01*
X210532857Y-41623809D01*
X210556666Y-41671428D01*
X210556666Y-41742857D01*
X210532857Y-41790476D01*
X210509047Y-41814285D01*
X210461428Y-41838095D01*
X210270952Y-41838095D01*
X210723333Y-41576190D02*
X211056666Y-41576190D01*
X210842380Y-42076190D01*
%TO.C,R8*%
X210566666Y-40456190D02*
X210400000Y-40218095D01*
X210280952Y-40456190D02*
X210280952Y-39956190D01*
X210471428Y-39956190D01*
X210519047Y-39980000D01*
X210542857Y-40003809D01*
X210566666Y-40051428D01*
X210566666Y-40122857D01*
X210542857Y-40170476D01*
X210519047Y-40194285D01*
X210471428Y-40218095D01*
X210280952Y-40218095D01*
X210852380Y-40170476D02*
X210804761Y-40146666D01*
X210780952Y-40122857D01*
X210757142Y-40075238D01*
X210757142Y-40051428D01*
X210780952Y-40003809D01*
X210804761Y-39980000D01*
X210852380Y-39956190D01*
X210947619Y-39956190D01*
X210995238Y-39980000D01*
X211019047Y-40003809D01*
X211042857Y-40051428D01*
X211042857Y-40075238D01*
X211019047Y-40122857D01*
X210995238Y-40146666D01*
X210947619Y-40170476D01*
X210852380Y-40170476D01*
X210804761Y-40194285D01*
X210780952Y-40218095D01*
X210757142Y-40265714D01*
X210757142Y-40360952D01*
X210780952Y-40408571D01*
X210804761Y-40432380D01*
X210852380Y-40456190D01*
X210947619Y-40456190D01*
X210995238Y-40432380D01*
X211019047Y-40408571D01*
X211042857Y-40360952D01*
X211042857Y-40265714D01*
X211019047Y-40218095D01*
X210995238Y-40194285D01*
X210947619Y-40170476D01*
%TO.C,R9*%
X210536666Y-38256190D02*
X210370000Y-38018095D01*
X210250952Y-38256190D02*
X210250952Y-37756190D01*
X210441428Y-37756190D01*
X210489047Y-37780000D01*
X210512857Y-37803809D01*
X210536666Y-37851428D01*
X210536666Y-37922857D01*
X210512857Y-37970476D01*
X210489047Y-37994285D01*
X210441428Y-38018095D01*
X210250952Y-38018095D01*
X210774761Y-38256190D02*
X210870000Y-38256190D01*
X210917619Y-38232380D01*
X210941428Y-38208571D01*
X210989047Y-38137142D01*
X211012857Y-38041904D01*
X211012857Y-37851428D01*
X210989047Y-37803809D01*
X210965238Y-37780000D01*
X210917619Y-37756190D01*
X210822380Y-37756190D01*
X210774761Y-37780000D01*
X210750952Y-37803809D01*
X210727142Y-37851428D01*
X210727142Y-37970476D01*
X210750952Y-38018095D01*
X210774761Y-38041904D01*
X210822380Y-38065714D01*
X210917619Y-38065714D01*
X210965238Y-38041904D01*
X210989047Y-38018095D01*
X211012857Y-37970476D01*
%TO.C,R10*%
X238078571Y-75026190D02*
X237911904Y-74788095D01*
X237792857Y-75026190D02*
X237792857Y-74526190D01*
X237983333Y-74526190D01*
X238030952Y-74550000D01*
X238054761Y-74573809D01*
X238078571Y-74621428D01*
X238078571Y-74692857D01*
X238054761Y-74740476D01*
X238030952Y-74764285D01*
X237983333Y-74788095D01*
X237792857Y-74788095D01*
X238554761Y-75026190D02*
X238269047Y-75026190D01*
X238411904Y-75026190D02*
X238411904Y-74526190D01*
X238364285Y-74597619D01*
X238316666Y-74645238D01*
X238269047Y-74669047D01*
X238864285Y-74526190D02*
X238911904Y-74526190D01*
X238959523Y-74550000D01*
X238983333Y-74573809D01*
X239007142Y-74621428D01*
X239030952Y-74716666D01*
X239030952Y-74835714D01*
X239007142Y-74930952D01*
X238983333Y-74978571D01*
X238959523Y-75002380D01*
X238911904Y-75026190D01*
X238864285Y-75026190D01*
X238816666Y-75002380D01*
X238792857Y-74978571D01*
X238769047Y-74930952D01*
X238745238Y-74835714D01*
X238745238Y-74716666D01*
X238769047Y-74621428D01*
X238792857Y-74573809D01*
X238816666Y-74550000D01*
X238864285Y-74526190D01*
%TO.C,R11*%
X227678571Y-38826190D02*
X227511904Y-38588095D01*
X227392857Y-38826190D02*
X227392857Y-38326190D01*
X227583333Y-38326190D01*
X227630952Y-38350000D01*
X227654761Y-38373809D01*
X227678571Y-38421428D01*
X227678571Y-38492857D01*
X227654761Y-38540476D01*
X227630952Y-38564285D01*
X227583333Y-38588095D01*
X227392857Y-38588095D01*
X228154761Y-38826190D02*
X227869047Y-38826190D01*
X228011904Y-38826190D02*
X228011904Y-38326190D01*
X227964285Y-38397619D01*
X227916666Y-38445238D01*
X227869047Y-38469047D01*
X228630952Y-38826190D02*
X228345238Y-38826190D01*
X228488095Y-38826190D02*
X228488095Y-38326190D01*
X228440476Y-38397619D01*
X228392857Y-38445238D01*
X228345238Y-38469047D01*
%TO.C,R12*%
X234678571Y-46416190D02*
X234511904Y-46178095D01*
X234392857Y-46416190D02*
X234392857Y-45916190D01*
X234583333Y-45916190D01*
X234630952Y-45940000D01*
X234654761Y-45963809D01*
X234678571Y-46011428D01*
X234678571Y-46082857D01*
X234654761Y-46130476D01*
X234630952Y-46154285D01*
X234583333Y-46178095D01*
X234392857Y-46178095D01*
X235154761Y-46416190D02*
X234869047Y-46416190D01*
X235011904Y-46416190D02*
X235011904Y-45916190D01*
X234964285Y-45987619D01*
X234916666Y-46035238D01*
X234869047Y-46059047D01*
X235345238Y-45963809D02*
X235369047Y-45940000D01*
X235416666Y-45916190D01*
X235535714Y-45916190D01*
X235583333Y-45940000D01*
X235607142Y-45963809D01*
X235630952Y-46011428D01*
X235630952Y-46059047D01*
X235607142Y-46130476D01*
X235321428Y-46416190D01*
X235630952Y-46416190D01*
%TO.C,R13*%
X238678571Y-79626190D02*
X238511904Y-79388095D01*
X238392857Y-79626190D02*
X238392857Y-79126190D01*
X238583333Y-79126190D01*
X238630952Y-79150000D01*
X238654761Y-79173809D01*
X238678571Y-79221428D01*
X238678571Y-79292857D01*
X238654761Y-79340476D01*
X238630952Y-79364285D01*
X238583333Y-79388095D01*
X238392857Y-79388095D01*
X239154761Y-79626190D02*
X238869047Y-79626190D01*
X239011904Y-79626190D02*
X239011904Y-79126190D01*
X238964285Y-79197619D01*
X238916666Y-79245238D01*
X238869047Y-79269047D01*
X239321428Y-79126190D02*
X239630952Y-79126190D01*
X239464285Y-79316666D01*
X239535714Y-79316666D01*
X239583333Y-79340476D01*
X239607142Y-79364285D01*
X239630952Y-79411904D01*
X239630952Y-79530952D01*
X239607142Y-79578571D01*
X239583333Y-79602380D01*
X239535714Y-79626190D01*
X239392857Y-79626190D01*
X239345238Y-79602380D01*
X239321428Y-79578571D01*
%TO.C,R14*%
X230478571Y-60826190D02*
X230311904Y-60588095D01*
X230192857Y-60826190D02*
X230192857Y-60326190D01*
X230383333Y-60326190D01*
X230430952Y-60350000D01*
X230454761Y-60373809D01*
X230478571Y-60421428D01*
X230478571Y-60492857D01*
X230454761Y-60540476D01*
X230430952Y-60564285D01*
X230383333Y-60588095D01*
X230192857Y-60588095D01*
X230954761Y-60826190D02*
X230669047Y-60826190D01*
X230811904Y-60826190D02*
X230811904Y-60326190D01*
X230764285Y-60397619D01*
X230716666Y-60445238D01*
X230669047Y-60469047D01*
X231383333Y-60492857D02*
X231383333Y-60826190D01*
X231264285Y-60302380D02*
X231145238Y-60659523D01*
X231454761Y-60659523D01*
%TO.C,R15*%
X230478571Y-56226190D02*
X230311904Y-55988095D01*
X230192857Y-56226190D02*
X230192857Y-55726190D01*
X230383333Y-55726190D01*
X230430952Y-55750000D01*
X230454761Y-55773809D01*
X230478571Y-55821428D01*
X230478571Y-55892857D01*
X230454761Y-55940476D01*
X230430952Y-55964285D01*
X230383333Y-55988095D01*
X230192857Y-55988095D01*
X230954761Y-56226190D02*
X230669047Y-56226190D01*
X230811904Y-56226190D02*
X230811904Y-55726190D01*
X230764285Y-55797619D01*
X230716666Y-55845238D01*
X230669047Y-55869047D01*
X231407142Y-55726190D02*
X231169047Y-55726190D01*
X231145238Y-55964285D01*
X231169047Y-55940476D01*
X231216666Y-55916666D01*
X231335714Y-55916666D01*
X231383333Y-55940476D01*
X231407142Y-55964285D01*
X231430952Y-56011904D01*
X231430952Y-56130952D01*
X231407142Y-56178571D01*
X231383333Y-56202380D01*
X231335714Y-56226190D01*
X231216666Y-56226190D01*
X231169047Y-56202380D01*
X231145238Y-56178571D01*
%TO.C,R17*%
X211678571Y-77426190D02*
X211511904Y-77188095D01*
X211392857Y-77426190D02*
X211392857Y-76926190D01*
X211583333Y-76926190D01*
X211630952Y-76950000D01*
X211654761Y-76973809D01*
X211678571Y-77021428D01*
X211678571Y-77092857D01*
X211654761Y-77140476D01*
X211630952Y-77164285D01*
X211583333Y-77188095D01*
X211392857Y-77188095D01*
X212154761Y-77426190D02*
X211869047Y-77426190D01*
X212011904Y-77426190D02*
X212011904Y-76926190D01*
X211964285Y-76997619D01*
X211916666Y-77045238D01*
X211869047Y-77069047D01*
X212321428Y-76926190D02*
X212654761Y-76926190D01*
X212440476Y-77426190D01*
%TO.C,R18*%
X209678571Y-77426190D02*
X209511904Y-77188095D01*
X209392857Y-77426190D02*
X209392857Y-76926190D01*
X209583333Y-76926190D01*
X209630952Y-76950000D01*
X209654761Y-76973809D01*
X209678571Y-77021428D01*
X209678571Y-77092857D01*
X209654761Y-77140476D01*
X209630952Y-77164285D01*
X209583333Y-77188095D01*
X209392857Y-77188095D01*
X210154761Y-77426190D02*
X209869047Y-77426190D01*
X210011904Y-77426190D02*
X210011904Y-76926190D01*
X209964285Y-76997619D01*
X209916666Y-77045238D01*
X209869047Y-77069047D01*
X210440476Y-77140476D02*
X210392857Y-77116666D01*
X210369047Y-77092857D01*
X210345238Y-77045238D01*
X210345238Y-77021428D01*
X210369047Y-76973809D01*
X210392857Y-76950000D01*
X210440476Y-76926190D01*
X210535714Y-76926190D01*
X210583333Y-76950000D01*
X210607142Y-76973809D01*
X210630952Y-77021428D01*
X210630952Y-77045238D01*
X210607142Y-77092857D01*
X210583333Y-77116666D01*
X210535714Y-77140476D01*
X210440476Y-77140476D01*
X210392857Y-77164285D01*
X210369047Y-77188095D01*
X210345238Y-77235714D01*
X210345238Y-77330952D01*
X210369047Y-77378571D01*
X210392857Y-77402380D01*
X210440476Y-77426190D01*
X210535714Y-77426190D01*
X210583333Y-77402380D01*
X210607142Y-77378571D01*
X210630952Y-77330952D01*
X210630952Y-77235714D01*
X210607142Y-77188095D01*
X210583333Y-77164285D01*
X210535714Y-77140476D01*
%TO.C,R19*%
X218278571Y-95426190D02*
X218111904Y-95188095D01*
X217992857Y-95426190D02*
X217992857Y-94926190D01*
X218183333Y-94926190D01*
X218230952Y-94950000D01*
X218254761Y-94973809D01*
X218278571Y-95021428D01*
X218278571Y-95092857D01*
X218254761Y-95140476D01*
X218230952Y-95164285D01*
X218183333Y-95188095D01*
X217992857Y-95188095D01*
X218754761Y-95426190D02*
X218469047Y-95426190D01*
X218611904Y-95426190D02*
X218611904Y-94926190D01*
X218564285Y-94997619D01*
X218516666Y-95045238D01*
X218469047Y-95069047D01*
X218992857Y-95426190D02*
X219088095Y-95426190D01*
X219135714Y-95402380D01*
X219159523Y-95378571D01*
X219207142Y-95307142D01*
X219230952Y-95211904D01*
X219230952Y-95021428D01*
X219207142Y-94973809D01*
X219183333Y-94950000D01*
X219135714Y-94926190D01*
X219040476Y-94926190D01*
X218992857Y-94950000D01*
X218969047Y-94973809D01*
X218945238Y-95021428D01*
X218945238Y-95140476D01*
X218969047Y-95188095D01*
X218992857Y-95211904D01*
X219040476Y-95235714D01*
X219135714Y-95235714D01*
X219183333Y-95211904D01*
X219207142Y-95188095D01*
X219230952Y-95140476D01*
%TO.C,R26*%
X214478571Y-56226190D02*
X214311904Y-55988095D01*
X214192857Y-56226190D02*
X214192857Y-55726190D01*
X214383333Y-55726190D01*
X214430952Y-55750000D01*
X214454761Y-55773809D01*
X214478571Y-55821428D01*
X214478571Y-55892857D01*
X214454761Y-55940476D01*
X214430952Y-55964285D01*
X214383333Y-55988095D01*
X214192857Y-55988095D01*
X214669047Y-55773809D02*
X214692857Y-55750000D01*
X214740476Y-55726190D01*
X214859523Y-55726190D01*
X214907142Y-55750000D01*
X214930952Y-55773809D01*
X214954761Y-55821428D01*
X214954761Y-55869047D01*
X214930952Y-55940476D01*
X214645238Y-56226190D01*
X214954761Y-56226190D01*
X215383333Y-55726190D02*
X215288095Y-55726190D01*
X215240476Y-55750000D01*
X215216666Y-55773809D01*
X215169047Y-55845238D01*
X215145238Y-55940476D01*
X215145238Y-56130952D01*
X215169047Y-56178571D01*
X215192857Y-56202380D01*
X215240476Y-56226190D01*
X215335714Y-56226190D01*
X215383333Y-56202380D01*
X215407142Y-56178571D01*
X215430952Y-56130952D01*
X215430952Y-56011904D01*
X215407142Y-55964285D01*
X215383333Y-55940476D01*
X215335714Y-55916666D01*
X215240476Y-55916666D01*
X215192857Y-55940476D01*
X215169047Y-55964285D01*
X215145238Y-56011904D01*
%TO.C,R30*%
X187966852Y-89162976D02*
X187760656Y-88958158D01*
X187685653Y-89213572D02*
X187597111Y-88721474D01*
X187784577Y-88687744D01*
X187835659Y-88702744D01*
X187863309Y-88721961D01*
X187895175Y-88764611D01*
X187907824Y-88834911D01*
X187892823Y-88885994D01*
X187873606Y-88913643D01*
X187830956Y-88945509D01*
X187643490Y-88979240D01*
X188042342Y-88641364D02*
X188346974Y-88586552D01*
X188216672Y-88803532D01*
X188286972Y-88790883D01*
X188338054Y-88805884D01*
X188365704Y-88825101D01*
X188397570Y-88867751D01*
X188418651Y-88984917D01*
X188403651Y-89036000D01*
X188384434Y-89063650D01*
X188341783Y-89095515D01*
X188201184Y-89120813D01*
X188150101Y-89105813D01*
X188122452Y-89086596D01*
X188651606Y-88531740D02*
X188698472Y-88523308D01*
X188749555Y-88538308D01*
X188777205Y-88557525D01*
X188809071Y-88600176D01*
X188849369Y-88689692D01*
X188870451Y-88806858D01*
X188863883Y-88904808D01*
X188848882Y-88955890D01*
X188829665Y-88983540D01*
X188787015Y-89015406D01*
X188740148Y-89023838D01*
X188689066Y-89008838D01*
X188661416Y-88989621D01*
X188629550Y-88946971D01*
X188589252Y-88857454D01*
X188568170Y-88740288D01*
X188574738Y-88642339D01*
X188589739Y-88591256D01*
X188608956Y-88563606D01*
X188651606Y-88531740D01*
%TO.C,R29*%
X194878571Y-87826190D02*
X194711904Y-87588095D01*
X194592857Y-87826190D02*
X194592857Y-87326190D01*
X194783333Y-87326190D01*
X194830952Y-87350000D01*
X194854761Y-87373809D01*
X194878571Y-87421428D01*
X194878571Y-87492857D01*
X194854761Y-87540476D01*
X194830952Y-87564285D01*
X194783333Y-87588095D01*
X194592857Y-87588095D01*
X195069047Y-87373809D02*
X195092857Y-87350000D01*
X195140476Y-87326190D01*
X195259523Y-87326190D01*
X195307142Y-87350000D01*
X195330952Y-87373809D01*
X195354761Y-87421428D01*
X195354761Y-87469047D01*
X195330952Y-87540476D01*
X195045238Y-87826190D01*
X195354761Y-87826190D01*
X195592857Y-87826190D02*
X195688095Y-87826190D01*
X195735714Y-87802380D01*
X195759523Y-87778571D01*
X195807142Y-87707142D01*
X195830952Y-87611904D01*
X195830952Y-87421428D01*
X195807142Y-87373809D01*
X195783333Y-87350000D01*
X195735714Y-87326190D01*
X195640476Y-87326190D01*
X195592857Y-87350000D01*
X195569047Y-87373809D01*
X195545238Y-87421428D01*
X195545238Y-87540476D01*
X195569047Y-87588095D01*
X195592857Y-87611904D01*
X195640476Y-87635714D01*
X195735714Y-87635714D01*
X195783333Y-87611904D01*
X195807142Y-87588095D01*
X195830952Y-87540476D01*
%TO.C,R32*%
X206078571Y-86626190D02*
X205911904Y-86388095D01*
X205792857Y-86626190D02*
X205792857Y-86126190D01*
X205983333Y-86126190D01*
X206030952Y-86150000D01*
X206054761Y-86173809D01*
X206078571Y-86221428D01*
X206078571Y-86292857D01*
X206054761Y-86340476D01*
X206030952Y-86364285D01*
X205983333Y-86388095D01*
X205792857Y-86388095D01*
X206245238Y-86126190D02*
X206554761Y-86126190D01*
X206388095Y-86316666D01*
X206459523Y-86316666D01*
X206507142Y-86340476D01*
X206530952Y-86364285D01*
X206554761Y-86411904D01*
X206554761Y-86530952D01*
X206530952Y-86578571D01*
X206507142Y-86602380D01*
X206459523Y-86626190D01*
X206316666Y-86626190D01*
X206269047Y-86602380D01*
X206245238Y-86578571D01*
X206745238Y-86173809D02*
X206769047Y-86150000D01*
X206816666Y-86126190D01*
X206935714Y-86126190D01*
X206983333Y-86150000D01*
X207007142Y-86173809D01*
X207030952Y-86221428D01*
X207030952Y-86269047D01*
X207007142Y-86340476D01*
X206721428Y-86626190D01*
X207030952Y-86626190D01*
%TO.C,R33*%
X225508571Y-93426190D02*
X225341904Y-93188095D01*
X225222857Y-93426190D02*
X225222857Y-92926190D01*
X225413333Y-92926190D01*
X225460952Y-92950000D01*
X225484761Y-92973809D01*
X225508571Y-93021428D01*
X225508571Y-93092857D01*
X225484761Y-93140476D01*
X225460952Y-93164285D01*
X225413333Y-93188095D01*
X225222857Y-93188095D01*
X225675238Y-92926190D02*
X225984761Y-92926190D01*
X225818095Y-93116666D01*
X225889523Y-93116666D01*
X225937142Y-93140476D01*
X225960952Y-93164285D01*
X225984761Y-93211904D01*
X225984761Y-93330952D01*
X225960952Y-93378571D01*
X225937142Y-93402380D01*
X225889523Y-93426190D01*
X225746666Y-93426190D01*
X225699047Y-93402380D01*
X225675238Y-93378571D01*
X226151428Y-92926190D02*
X226460952Y-92926190D01*
X226294285Y-93116666D01*
X226365714Y-93116666D01*
X226413333Y-93140476D01*
X226437142Y-93164285D01*
X226460952Y-93211904D01*
X226460952Y-93330952D01*
X226437142Y-93378571D01*
X226413333Y-93402380D01*
X226365714Y-93426190D01*
X226222857Y-93426190D01*
X226175238Y-93402380D01*
X226151428Y-93378571D01*
%TO.C,R34*%
X238268571Y-45026190D02*
X238101904Y-44788095D01*
X237982857Y-45026190D02*
X237982857Y-44526190D01*
X238173333Y-44526190D01*
X238220952Y-44550000D01*
X238244761Y-44573809D01*
X238268571Y-44621428D01*
X238268571Y-44692857D01*
X238244761Y-44740476D01*
X238220952Y-44764285D01*
X238173333Y-44788095D01*
X237982857Y-44788095D01*
X238435238Y-44526190D02*
X238744761Y-44526190D01*
X238578095Y-44716666D01*
X238649523Y-44716666D01*
X238697142Y-44740476D01*
X238720952Y-44764285D01*
X238744761Y-44811904D01*
X238744761Y-44930952D01*
X238720952Y-44978571D01*
X238697142Y-45002380D01*
X238649523Y-45026190D01*
X238506666Y-45026190D01*
X238459047Y-45002380D01*
X238435238Y-44978571D01*
X239173333Y-44692857D02*
X239173333Y-45026190D01*
X239054285Y-44502380D02*
X238935238Y-44859523D01*
X239244761Y-44859523D01*
%TO.C,R35*%
X249878571Y-59026190D02*
X249711904Y-58788095D01*
X249592857Y-59026190D02*
X249592857Y-58526190D01*
X249783333Y-58526190D01*
X249830952Y-58550000D01*
X249854761Y-58573809D01*
X249878571Y-58621428D01*
X249878571Y-58692857D01*
X249854761Y-58740476D01*
X249830952Y-58764285D01*
X249783333Y-58788095D01*
X249592857Y-58788095D01*
X250045238Y-58526190D02*
X250354761Y-58526190D01*
X250188095Y-58716666D01*
X250259523Y-58716666D01*
X250307142Y-58740476D01*
X250330952Y-58764285D01*
X250354761Y-58811904D01*
X250354761Y-58930952D01*
X250330952Y-58978571D01*
X250307142Y-59002380D01*
X250259523Y-59026190D01*
X250116666Y-59026190D01*
X250069047Y-59002380D01*
X250045238Y-58978571D01*
X250807142Y-58526190D02*
X250569047Y-58526190D01*
X250545238Y-58764285D01*
X250569047Y-58740476D01*
X250616666Y-58716666D01*
X250735714Y-58716666D01*
X250783333Y-58740476D01*
X250807142Y-58764285D01*
X250830952Y-58811904D01*
X250830952Y-58930952D01*
X250807142Y-58978571D01*
X250783333Y-59002380D01*
X250735714Y-59026190D01*
X250616666Y-59026190D01*
X250569047Y-59002380D01*
X250545238Y-58978571D01*
%TO.C,R36*%
X227378571Y-93426190D02*
X227211904Y-93188095D01*
X227092857Y-93426190D02*
X227092857Y-92926190D01*
X227283333Y-92926190D01*
X227330952Y-92950000D01*
X227354761Y-92973809D01*
X227378571Y-93021428D01*
X227378571Y-93092857D01*
X227354761Y-93140476D01*
X227330952Y-93164285D01*
X227283333Y-93188095D01*
X227092857Y-93188095D01*
X227545238Y-92926190D02*
X227854761Y-92926190D01*
X227688095Y-93116666D01*
X227759523Y-93116666D01*
X227807142Y-93140476D01*
X227830952Y-93164285D01*
X227854761Y-93211904D01*
X227854761Y-93330952D01*
X227830952Y-93378571D01*
X227807142Y-93402380D01*
X227759523Y-93426190D01*
X227616666Y-93426190D01*
X227569047Y-93402380D01*
X227545238Y-93378571D01*
X228283333Y-92926190D02*
X228188095Y-92926190D01*
X228140476Y-92950000D01*
X228116666Y-92973809D01*
X228069047Y-93045238D01*
X228045238Y-93140476D01*
X228045238Y-93330952D01*
X228069047Y-93378571D01*
X228092857Y-93402380D01*
X228140476Y-93426190D01*
X228235714Y-93426190D01*
X228283333Y-93402380D01*
X228307142Y-93378571D01*
X228330952Y-93330952D01*
X228330952Y-93211904D01*
X228307142Y-93164285D01*
X228283333Y-93140476D01*
X228235714Y-93116666D01*
X228140476Y-93116666D01*
X228092857Y-93140476D01*
X228069047Y-93164285D01*
X228045238Y-93211904D01*
%TO.C,R37*%
X237848571Y-58406190D02*
X237681904Y-58168095D01*
X237562857Y-58406190D02*
X237562857Y-57906190D01*
X237753333Y-57906190D01*
X237800952Y-57930000D01*
X237824761Y-57953809D01*
X237848571Y-58001428D01*
X237848571Y-58072857D01*
X237824761Y-58120476D01*
X237800952Y-58144285D01*
X237753333Y-58168095D01*
X237562857Y-58168095D01*
X238015238Y-57906190D02*
X238324761Y-57906190D01*
X238158095Y-58096666D01*
X238229523Y-58096666D01*
X238277142Y-58120476D01*
X238300952Y-58144285D01*
X238324761Y-58191904D01*
X238324761Y-58310952D01*
X238300952Y-58358571D01*
X238277142Y-58382380D01*
X238229523Y-58406190D01*
X238086666Y-58406190D01*
X238039047Y-58382380D01*
X238015238Y-58358571D01*
X238491428Y-57906190D02*
X238824761Y-57906190D01*
X238610476Y-58406190D01*
%TO.C,R38*%
X244678571Y-69226190D02*
X244511904Y-68988095D01*
X244392857Y-69226190D02*
X244392857Y-68726190D01*
X244583333Y-68726190D01*
X244630952Y-68750000D01*
X244654761Y-68773809D01*
X244678571Y-68821428D01*
X244678571Y-68892857D01*
X244654761Y-68940476D01*
X244630952Y-68964285D01*
X244583333Y-68988095D01*
X244392857Y-68988095D01*
X244845238Y-68726190D02*
X245154761Y-68726190D01*
X244988095Y-68916666D01*
X245059523Y-68916666D01*
X245107142Y-68940476D01*
X245130952Y-68964285D01*
X245154761Y-69011904D01*
X245154761Y-69130952D01*
X245130952Y-69178571D01*
X245107142Y-69202380D01*
X245059523Y-69226190D01*
X244916666Y-69226190D01*
X244869047Y-69202380D01*
X244845238Y-69178571D01*
X245440476Y-68940476D02*
X245392857Y-68916666D01*
X245369047Y-68892857D01*
X245345238Y-68845238D01*
X245345238Y-68821428D01*
X245369047Y-68773809D01*
X245392857Y-68750000D01*
X245440476Y-68726190D01*
X245535714Y-68726190D01*
X245583333Y-68750000D01*
X245607142Y-68773809D01*
X245630952Y-68821428D01*
X245630952Y-68845238D01*
X245607142Y-68892857D01*
X245583333Y-68916666D01*
X245535714Y-68940476D01*
X245440476Y-68940476D01*
X245392857Y-68964285D01*
X245369047Y-68988095D01*
X245345238Y-69035714D01*
X245345238Y-69130952D01*
X245369047Y-69178571D01*
X245392857Y-69202380D01*
X245440476Y-69226190D01*
X245535714Y-69226190D01*
X245583333Y-69202380D01*
X245607142Y-69178571D01*
X245630952Y-69130952D01*
X245630952Y-69035714D01*
X245607142Y-68988095D01*
X245583333Y-68964285D01*
X245535714Y-68940476D01*
%TO.C,R39*%
X246718571Y-58406190D02*
X246551904Y-58168095D01*
X246432857Y-58406190D02*
X246432857Y-57906190D01*
X246623333Y-57906190D01*
X246670952Y-57930000D01*
X246694761Y-57953809D01*
X246718571Y-58001428D01*
X246718571Y-58072857D01*
X246694761Y-58120476D01*
X246670952Y-58144285D01*
X246623333Y-58168095D01*
X246432857Y-58168095D01*
X246885238Y-57906190D02*
X247194761Y-57906190D01*
X247028095Y-58096666D01*
X247099523Y-58096666D01*
X247147142Y-58120476D01*
X247170952Y-58144285D01*
X247194761Y-58191904D01*
X247194761Y-58310952D01*
X247170952Y-58358571D01*
X247147142Y-58382380D01*
X247099523Y-58406190D01*
X246956666Y-58406190D01*
X246909047Y-58382380D01*
X246885238Y-58358571D01*
X247432857Y-58406190D02*
X247528095Y-58406190D01*
X247575714Y-58382380D01*
X247599523Y-58358571D01*
X247647142Y-58287142D01*
X247670952Y-58191904D01*
X247670952Y-58001428D01*
X247647142Y-57953809D01*
X247623333Y-57930000D01*
X247575714Y-57906190D01*
X247480476Y-57906190D01*
X247432857Y-57930000D01*
X247409047Y-57953809D01*
X247385238Y-58001428D01*
X247385238Y-58120476D01*
X247409047Y-58168095D01*
X247432857Y-58191904D01*
X247480476Y-58215714D01*
X247575714Y-58215714D01*
X247623333Y-58191904D01*
X247647142Y-58168095D01*
X247670952Y-58120476D01*
%TO.C,R40*%
X240848571Y-95426190D02*
X240681904Y-95188095D01*
X240562857Y-95426190D02*
X240562857Y-94926190D01*
X240753333Y-94926190D01*
X240800952Y-94950000D01*
X240824761Y-94973809D01*
X240848571Y-95021428D01*
X240848571Y-95092857D01*
X240824761Y-95140476D01*
X240800952Y-95164285D01*
X240753333Y-95188095D01*
X240562857Y-95188095D01*
X241277142Y-95092857D02*
X241277142Y-95426190D01*
X241158095Y-94902380D02*
X241039047Y-95259523D01*
X241348571Y-95259523D01*
X241634285Y-94926190D02*
X241681904Y-94926190D01*
X241729523Y-94950000D01*
X241753333Y-94973809D01*
X241777142Y-95021428D01*
X241800952Y-95116666D01*
X241800952Y-95235714D01*
X241777142Y-95330952D01*
X241753333Y-95378571D01*
X241729523Y-95402380D01*
X241681904Y-95426190D01*
X241634285Y-95426190D01*
X241586666Y-95402380D01*
X241562857Y-95378571D01*
X241539047Y-95330952D01*
X241515238Y-95235714D01*
X241515238Y-95116666D01*
X241539047Y-95021428D01*
X241562857Y-94973809D01*
X241586666Y-94950000D01*
X241634285Y-94926190D01*
%TO.C,R41*%
X244678571Y-65826190D02*
X244511904Y-65588095D01*
X244392857Y-65826190D02*
X244392857Y-65326190D01*
X244583333Y-65326190D01*
X244630952Y-65350000D01*
X244654761Y-65373809D01*
X244678571Y-65421428D01*
X244678571Y-65492857D01*
X244654761Y-65540476D01*
X244630952Y-65564285D01*
X244583333Y-65588095D01*
X244392857Y-65588095D01*
X245107142Y-65492857D02*
X245107142Y-65826190D01*
X244988095Y-65302380D02*
X244869047Y-65659523D01*
X245178571Y-65659523D01*
X245630952Y-65826190D02*
X245345238Y-65826190D01*
X245488095Y-65826190D02*
X245488095Y-65326190D01*
X245440476Y-65397619D01*
X245392857Y-65445238D01*
X245345238Y-65469047D01*
%TO.C,R42*%
X238948571Y-95426190D02*
X238781904Y-95188095D01*
X238662857Y-95426190D02*
X238662857Y-94926190D01*
X238853333Y-94926190D01*
X238900952Y-94950000D01*
X238924761Y-94973809D01*
X238948571Y-95021428D01*
X238948571Y-95092857D01*
X238924761Y-95140476D01*
X238900952Y-95164285D01*
X238853333Y-95188095D01*
X238662857Y-95188095D01*
X239377142Y-95092857D02*
X239377142Y-95426190D01*
X239258095Y-94902380D02*
X239139047Y-95259523D01*
X239448571Y-95259523D01*
X239615238Y-94973809D02*
X239639047Y-94950000D01*
X239686666Y-94926190D01*
X239805714Y-94926190D01*
X239853333Y-94950000D01*
X239877142Y-94973809D01*
X239900952Y-95021428D01*
X239900952Y-95069047D01*
X239877142Y-95140476D01*
X239591428Y-95426190D01*
X239900952Y-95426190D01*
%TO.C,R43*%
X213278571Y-101426190D02*
X213111904Y-101188095D01*
X212992857Y-101426190D02*
X212992857Y-100926190D01*
X213183333Y-100926190D01*
X213230952Y-100950000D01*
X213254761Y-100973809D01*
X213278571Y-101021428D01*
X213278571Y-101092857D01*
X213254761Y-101140476D01*
X213230952Y-101164285D01*
X213183333Y-101188095D01*
X212992857Y-101188095D01*
X213707142Y-101092857D02*
X213707142Y-101426190D01*
X213588095Y-100902380D02*
X213469047Y-101259523D01*
X213778571Y-101259523D01*
X213921428Y-100926190D02*
X214230952Y-100926190D01*
X214064285Y-101116666D01*
X214135714Y-101116666D01*
X214183333Y-101140476D01*
X214207142Y-101164285D01*
X214230952Y-101211904D01*
X214230952Y-101330952D01*
X214207142Y-101378571D01*
X214183333Y-101402380D01*
X214135714Y-101426190D01*
X213992857Y-101426190D01*
X213945238Y-101402380D01*
X213921428Y-101378571D01*
%TO.C,R44*%
X250078571Y-69273338D02*
X249911904Y-69035243D01*
X249792857Y-69273338D02*
X249792857Y-68773338D01*
X249983333Y-68773338D01*
X250030952Y-68797148D01*
X250054761Y-68820957D01*
X250078571Y-68868576D01*
X250078571Y-68940005D01*
X250054761Y-68987624D01*
X250030952Y-69011433D01*
X249983333Y-69035243D01*
X249792857Y-69035243D01*
X250507142Y-68940005D02*
X250507142Y-69273338D01*
X250388095Y-68749528D02*
X250269047Y-69106671D01*
X250578571Y-69106671D01*
X250983333Y-68940005D02*
X250983333Y-69273338D01*
X250864285Y-68749528D02*
X250745238Y-69106671D01*
X251054761Y-69106671D01*
%TO.C,R45*%
X232678571Y-99826190D02*
X232511904Y-99588095D01*
X232392857Y-99826190D02*
X232392857Y-99326190D01*
X232583333Y-99326190D01*
X232630952Y-99350000D01*
X232654761Y-99373809D01*
X232678571Y-99421428D01*
X232678571Y-99492857D01*
X232654761Y-99540476D01*
X232630952Y-99564285D01*
X232583333Y-99588095D01*
X232392857Y-99588095D01*
X233107142Y-99492857D02*
X233107142Y-99826190D01*
X232988095Y-99302380D02*
X232869047Y-99659523D01*
X233178571Y-99659523D01*
X233607142Y-99326190D02*
X233369047Y-99326190D01*
X233345238Y-99564285D01*
X233369047Y-99540476D01*
X233416666Y-99516666D01*
X233535714Y-99516666D01*
X233583333Y-99540476D01*
X233607142Y-99564285D01*
X233630952Y-99611904D01*
X233630952Y-99730952D01*
X233607142Y-99778571D01*
X233583333Y-99802380D01*
X233535714Y-99826190D01*
X233416666Y-99826190D01*
X233369047Y-99802380D01*
X233345238Y-99778571D01*
%TO.C,R46*%
X234578571Y-99826190D02*
X234411904Y-99588095D01*
X234292857Y-99826190D02*
X234292857Y-99326190D01*
X234483333Y-99326190D01*
X234530952Y-99350000D01*
X234554761Y-99373809D01*
X234578571Y-99421428D01*
X234578571Y-99492857D01*
X234554761Y-99540476D01*
X234530952Y-99564285D01*
X234483333Y-99588095D01*
X234292857Y-99588095D01*
X235007142Y-99492857D02*
X235007142Y-99826190D01*
X234888095Y-99302380D02*
X234769047Y-99659523D01*
X235078571Y-99659523D01*
X235483333Y-99326190D02*
X235388095Y-99326190D01*
X235340476Y-99350000D01*
X235316666Y-99373809D01*
X235269047Y-99445238D01*
X235245238Y-99540476D01*
X235245238Y-99730952D01*
X235269047Y-99778571D01*
X235292857Y-99802380D01*
X235340476Y-99826190D01*
X235435714Y-99826190D01*
X235483333Y-99802380D01*
X235507142Y-99778571D01*
X235530952Y-99730952D01*
X235530952Y-99611904D01*
X235507142Y-99564285D01*
X235483333Y-99540476D01*
X235435714Y-99516666D01*
X235340476Y-99516666D01*
X235292857Y-99540476D01*
X235269047Y-99564285D01*
X235245238Y-99611904D01*
%TO.C,R47*%
X227278571Y-105626190D02*
X227111904Y-105388095D01*
X226992857Y-105626190D02*
X226992857Y-105126190D01*
X227183333Y-105126190D01*
X227230952Y-105150000D01*
X227254761Y-105173809D01*
X227278571Y-105221428D01*
X227278571Y-105292857D01*
X227254761Y-105340476D01*
X227230952Y-105364285D01*
X227183333Y-105388095D01*
X226992857Y-105388095D01*
X227707142Y-105292857D02*
X227707142Y-105626190D01*
X227588095Y-105102380D02*
X227469047Y-105459523D01*
X227778571Y-105459523D01*
X227921428Y-105126190D02*
X228254761Y-105126190D01*
X228040476Y-105626190D01*
%TO.C,R48*%
X250078571Y-65826190D02*
X249911904Y-65588095D01*
X249792857Y-65826190D02*
X249792857Y-65326190D01*
X249983333Y-65326190D01*
X250030952Y-65350000D01*
X250054761Y-65373809D01*
X250078571Y-65421428D01*
X250078571Y-65492857D01*
X250054761Y-65540476D01*
X250030952Y-65564285D01*
X249983333Y-65588095D01*
X249792857Y-65588095D01*
X250507142Y-65492857D02*
X250507142Y-65826190D01*
X250388095Y-65302380D02*
X250269047Y-65659523D01*
X250578571Y-65659523D01*
X250840476Y-65540476D02*
X250792857Y-65516666D01*
X250769047Y-65492857D01*
X250745238Y-65445238D01*
X250745238Y-65421428D01*
X250769047Y-65373809D01*
X250792857Y-65350000D01*
X250840476Y-65326190D01*
X250935714Y-65326190D01*
X250983333Y-65350000D01*
X251007142Y-65373809D01*
X251030952Y-65421428D01*
X251030952Y-65445238D01*
X251007142Y-65492857D01*
X250983333Y-65516666D01*
X250935714Y-65540476D01*
X250840476Y-65540476D01*
X250792857Y-65564285D01*
X250769047Y-65588095D01*
X250745238Y-65635714D01*
X250745238Y-65730952D01*
X250769047Y-65778571D01*
X250792857Y-65802380D01*
X250840476Y-65826190D01*
X250935714Y-65826190D01*
X250983333Y-65802380D01*
X251007142Y-65778571D01*
X251030952Y-65730952D01*
X251030952Y-65635714D01*
X251007142Y-65588095D01*
X250983333Y-65564285D01*
X250935714Y-65540476D01*
%TO.C,TP1*%
X228349047Y-44526190D02*
X228634761Y-44526190D01*
X228491904Y-45026190D02*
X228491904Y-44526190D01*
X228801428Y-45026190D02*
X228801428Y-44526190D01*
X228991904Y-44526190D01*
X229039523Y-44550000D01*
X229063333Y-44573809D01*
X229087142Y-44621428D01*
X229087142Y-44692857D01*
X229063333Y-44740476D01*
X229039523Y-44764285D01*
X228991904Y-44788095D01*
X228801428Y-44788095D01*
X229563333Y-45026190D02*
X229277619Y-45026190D01*
X229420476Y-45026190D02*
X229420476Y-44526190D01*
X229372857Y-44597619D01*
X229325238Y-44645238D01*
X229277619Y-44669047D01*
%TO.C,TP2*%
X199169047Y-47726190D02*
X199454761Y-47726190D01*
X199311904Y-48226190D02*
X199311904Y-47726190D01*
X199621428Y-48226190D02*
X199621428Y-47726190D01*
X199811904Y-47726190D01*
X199859523Y-47750000D01*
X199883333Y-47773809D01*
X199907142Y-47821428D01*
X199907142Y-47892857D01*
X199883333Y-47940476D01*
X199859523Y-47964285D01*
X199811904Y-47988095D01*
X199621428Y-47988095D01*
X200097619Y-47773809D02*
X200121428Y-47750000D01*
X200169047Y-47726190D01*
X200288095Y-47726190D01*
X200335714Y-47750000D01*
X200359523Y-47773809D01*
X200383333Y-47821428D01*
X200383333Y-47869047D01*
X200359523Y-47940476D01*
X200073809Y-48226190D01*
X200383333Y-48226190D01*
%TO.C,TP3*%
X237039047Y-76298190D02*
X237324761Y-76298190D01*
X237181904Y-76798190D02*
X237181904Y-76298190D01*
X237491428Y-76798190D02*
X237491428Y-76298190D01*
X237681904Y-76298190D01*
X237729523Y-76322000D01*
X237753333Y-76345809D01*
X237777142Y-76393428D01*
X237777142Y-76464857D01*
X237753333Y-76512476D01*
X237729523Y-76536285D01*
X237681904Y-76560095D01*
X237491428Y-76560095D01*
X237943809Y-76298190D02*
X238253333Y-76298190D01*
X238086666Y-76488666D01*
X238158095Y-76488666D01*
X238205714Y-76512476D01*
X238229523Y-76536285D01*
X238253333Y-76583904D01*
X238253333Y-76702952D01*
X238229523Y-76750571D01*
X238205714Y-76774380D01*
X238158095Y-76798190D01*
X238015238Y-76798190D01*
X237967619Y-76774380D01*
X237943809Y-76750571D01*
%TO.C,TP4*%
X197769047Y-52126190D02*
X198054761Y-52126190D01*
X197911904Y-52626190D02*
X197911904Y-52126190D01*
X198221428Y-52626190D02*
X198221428Y-52126190D01*
X198411904Y-52126190D01*
X198459523Y-52150000D01*
X198483333Y-52173809D01*
X198507142Y-52221428D01*
X198507142Y-52292857D01*
X198483333Y-52340476D01*
X198459523Y-52364285D01*
X198411904Y-52388095D01*
X198221428Y-52388095D01*
X198935714Y-52292857D02*
X198935714Y-52626190D01*
X198816666Y-52102380D02*
X198697619Y-52459523D01*
X199007142Y-52459523D01*
%TO.C,TP5*%
X196569047Y-47726190D02*
X196854761Y-47726190D01*
X196711904Y-48226190D02*
X196711904Y-47726190D01*
X197021428Y-48226190D02*
X197021428Y-47726190D01*
X197211904Y-47726190D01*
X197259523Y-47750000D01*
X197283333Y-47773809D01*
X197307142Y-47821428D01*
X197307142Y-47892857D01*
X197283333Y-47940476D01*
X197259523Y-47964285D01*
X197211904Y-47988095D01*
X197021428Y-47988095D01*
X197759523Y-47726190D02*
X197521428Y-47726190D01*
X197497619Y-47964285D01*
X197521428Y-47940476D01*
X197569047Y-47916666D01*
X197688095Y-47916666D01*
X197735714Y-47940476D01*
X197759523Y-47964285D01*
X197783333Y-48011904D01*
X197783333Y-48130952D01*
X197759523Y-48178571D01*
X197735714Y-48202380D01*
X197688095Y-48226190D01*
X197569047Y-48226190D01*
X197521428Y-48202380D01*
X197497619Y-48178571D01*
%TO.C,TP6*%
X226169047Y-45726190D02*
X226454761Y-45726190D01*
X226311904Y-46226190D02*
X226311904Y-45726190D01*
X226621428Y-46226190D02*
X226621428Y-45726190D01*
X226811904Y-45726190D01*
X226859523Y-45750000D01*
X226883333Y-45773809D01*
X226907142Y-45821428D01*
X226907142Y-45892857D01*
X226883333Y-45940476D01*
X226859523Y-45964285D01*
X226811904Y-45988095D01*
X226621428Y-45988095D01*
X227335714Y-45726190D02*
X227240476Y-45726190D01*
X227192857Y-45750000D01*
X227169047Y-45773809D01*
X227121428Y-45845238D01*
X227097619Y-45940476D01*
X227097619Y-46130952D01*
X227121428Y-46178571D01*
X227145238Y-46202380D01*
X227192857Y-46226190D01*
X227288095Y-46226190D01*
X227335714Y-46202380D01*
X227359523Y-46178571D01*
X227383333Y-46130952D01*
X227383333Y-46011904D01*
X227359523Y-45964285D01*
X227335714Y-45940476D01*
X227288095Y-45916666D01*
X227192857Y-45916666D01*
X227145238Y-45940476D01*
X227121428Y-45964285D01*
X227097619Y-46011904D01*
%TO.C,TP7*%
X204569047Y-93326190D02*
X204854761Y-93326190D01*
X204711904Y-93826190D02*
X204711904Y-93326190D01*
X205021428Y-93826190D02*
X205021428Y-93326190D01*
X205211904Y-93326190D01*
X205259523Y-93350000D01*
X205283333Y-93373809D01*
X205307142Y-93421428D01*
X205307142Y-93492857D01*
X205283333Y-93540476D01*
X205259523Y-93564285D01*
X205211904Y-93588095D01*
X205021428Y-93588095D01*
X205473809Y-93326190D02*
X205807142Y-93326190D01*
X205592857Y-93826190D01*
%TO.C,TP11*%
X202530952Y-89126190D02*
X202816666Y-89126190D01*
X202673809Y-89626190D02*
X202673809Y-89126190D01*
X202983333Y-89626190D02*
X202983333Y-89126190D01*
X203173809Y-89126190D01*
X203221428Y-89150000D01*
X203245238Y-89173809D01*
X203269047Y-89221428D01*
X203269047Y-89292857D01*
X203245238Y-89340476D01*
X203221428Y-89364285D01*
X203173809Y-89388095D01*
X202983333Y-89388095D01*
X203745238Y-89626190D02*
X203459523Y-89626190D01*
X203602380Y-89626190D02*
X203602380Y-89126190D01*
X203554761Y-89197619D01*
X203507142Y-89245238D01*
X203459523Y-89269047D01*
X204221428Y-89626190D02*
X203935714Y-89626190D01*
X204078571Y-89626190D02*
X204078571Y-89126190D01*
X204030952Y-89197619D01*
X203983333Y-89245238D01*
X203935714Y-89269047D01*
%TO.C,TP8*%
X202769047Y-91926190D02*
X203054761Y-91926190D01*
X202911904Y-92426190D02*
X202911904Y-91926190D01*
X203221428Y-92426190D02*
X203221428Y-91926190D01*
X203411904Y-91926190D01*
X203459523Y-91950000D01*
X203483333Y-91973809D01*
X203507142Y-92021428D01*
X203507142Y-92092857D01*
X203483333Y-92140476D01*
X203459523Y-92164285D01*
X203411904Y-92188095D01*
X203221428Y-92188095D01*
X203792857Y-92140476D02*
X203745238Y-92116666D01*
X203721428Y-92092857D01*
X203697619Y-92045238D01*
X203697619Y-92021428D01*
X203721428Y-91973809D01*
X203745238Y-91950000D01*
X203792857Y-91926190D01*
X203888095Y-91926190D01*
X203935714Y-91950000D01*
X203959523Y-91973809D01*
X203983333Y-92021428D01*
X203983333Y-92045238D01*
X203959523Y-92092857D01*
X203935714Y-92116666D01*
X203888095Y-92140476D01*
X203792857Y-92140476D01*
X203745238Y-92164285D01*
X203721428Y-92188095D01*
X203697619Y-92235714D01*
X203697619Y-92330952D01*
X203721428Y-92378571D01*
X203745238Y-92402380D01*
X203792857Y-92426190D01*
X203888095Y-92426190D01*
X203935714Y-92402380D01*
X203959523Y-92378571D01*
X203983333Y-92330952D01*
X203983333Y-92235714D01*
X203959523Y-92188095D01*
X203935714Y-92164285D01*
X203888095Y-92140476D01*
%TO.C,TP9*%
X203969047Y-84726190D02*
X204254761Y-84726190D01*
X204111904Y-85226190D02*
X204111904Y-84726190D01*
X204421428Y-85226190D02*
X204421428Y-84726190D01*
X204611904Y-84726190D01*
X204659523Y-84750000D01*
X204683333Y-84773809D01*
X204707142Y-84821428D01*
X204707142Y-84892857D01*
X204683333Y-84940476D01*
X204659523Y-84964285D01*
X204611904Y-84988095D01*
X204421428Y-84988095D01*
X204945238Y-85226190D02*
X205040476Y-85226190D01*
X205088095Y-85202380D01*
X205111904Y-85178571D01*
X205159523Y-85107142D01*
X205183333Y-85011904D01*
X205183333Y-84821428D01*
X205159523Y-84773809D01*
X205135714Y-84750000D01*
X205088095Y-84726190D01*
X204992857Y-84726190D01*
X204945238Y-84750000D01*
X204921428Y-84773809D01*
X204897619Y-84821428D01*
X204897619Y-84940476D01*
X204921428Y-84988095D01*
X204945238Y-85011904D01*
X204992857Y-85035714D01*
X205088095Y-85035714D01*
X205135714Y-85011904D01*
X205159523Y-84988095D01*
X205183333Y-84940476D01*
%TO.C,TP12*%
X195260952Y-67176190D02*
X195546666Y-67176190D01*
X195403809Y-67676190D02*
X195403809Y-67176190D01*
X195713333Y-67676190D02*
X195713333Y-67176190D01*
X195903809Y-67176190D01*
X195951428Y-67200000D01*
X195975238Y-67223809D01*
X195999047Y-67271428D01*
X195999047Y-67342857D01*
X195975238Y-67390476D01*
X195951428Y-67414285D01*
X195903809Y-67438095D01*
X195713333Y-67438095D01*
X196475238Y-67676190D02*
X196189523Y-67676190D01*
X196332380Y-67676190D02*
X196332380Y-67176190D01*
X196284761Y-67247619D01*
X196237142Y-67295238D01*
X196189523Y-67319047D01*
X196665714Y-67223809D02*
X196689523Y-67200000D01*
X196737142Y-67176190D01*
X196856190Y-67176190D01*
X196903809Y-67200000D01*
X196927619Y-67223809D01*
X196951428Y-67271428D01*
X196951428Y-67319047D01*
X196927619Y-67390476D01*
X196641904Y-67676190D01*
X196951428Y-67676190D01*
%TO.C,TP13*%
X193040952Y-67186190D02*
X193326666Y-67186190D01*
X193183809Y-67686190D02*
X193183809Y-67186190D01*
X193493333Y-67686190D02*
X193493333Y-67186190D01*
X193683809Y-67186190D01*
X193731428Y-67210000D01*
X193755238Y-67233809D01*
X193779047Y-67281428D01*
X193779047Y-67352857D01*
X193755238Y-67400476D01*
X193731428Y-67424285D01*
X193683809Y-67448095D01*
X193493333Y-67448095D01*
X194255238Y-67686190D02*
X193969523Y-67686190D01*
X194112380Y-67686190D02*
X194112380Y-67186190D01*
X194064761Y-67257619D01*
X194017142Y-67305238D01*
X193969523Y-67329047D01*
X194421904Y-67186190D02*
X194731428Y-67186190D01*
X194564761Y-67376666D01*
X194636190Y-67376666D01*
X194683809Y-67400476D01*
X194707619Y-67424285D01*
X194731428Y-67471904D01*
X194731428Y-67590952D01*
X194707619Y-67638571D01*
X194683809Y-67662380D01*
X194636190Y-67686190D01*
X194493333Y-67686190D01*
X194445714Y-67662380D01*
X194421904Y-67638571D01*
%TO.C,TP15*%
X194930952Y-59578190D02*
X195216666Y-59578190D01*
X195073809Y-60078190D02*
X195073809Y-59578190D01*
X195383333Y-60078190D02*
X195383333Y-59578190D01*
X195573809Y-59578190D01*
X195621428Y-59602000D01*
X195645238Y-59625809D01*
X195669047Y-59673428D01*
X195669047Y-59744857D01*
X195645238Y-59792476D01*
X195621428Y-59816285D01*
X195573809Y-59840095D01*
X195383333Y-59840095D01*
X196145238Y-60078190D02*
X195859523Y-60078190D01*
X196002380Y-60078190D02*
X196002380Y-59578190D01*
X195954761Y-59649619D01*
X195907142Y-59697238D01*
X195859523Y-59721047D01*
X196597619Y-59578190D02*
X196359523Y-59578190D01*
X196335714Y-59816285D01*
X196359523Y-59792476D01*
X196407142Y-59768666D01*
X196526190Y-59768666D01*
X196573809Y-59792476D01*
X196597619Y-59816285D01*
X196621428Y-59863904D01*
X196621428Y-59982952D01*
X196597619Y-60030571D01*
X196573809Y-60054380D01*
X196526190Y-60078190D01*
X196407142Y-60078190D01*
X196359523Y-60054380D01*
X196335714Y-60030571D01*
%TO.C,TP16*%
X245040952Y-88878190D02*
X245326666Y-88878190D01*
X245183809Y-89378190D02*
X245183809Y-88878190D01*
X245493333Y-89378190D02*
X245493333Y-88878190D01*
X245683809Y-88878190D01*
X245731428Y-88902000D01*
X245755238Y-88925809D01*
X245779047Y-88973428D01*
X245779047Y-89044857D01*
X245755238Y-89092476D01*
X245731428Y-89116285D01*
X245683809Y-89140095D01*
X245493333Y-89140095D01*
X246255238Y-89378190D02*
X245969523Y-89378190D01*
X246112380Y-89378190D02*
X246112380Y-88878190D01*
X246064761Y-88949619D01*
X246017142Y-88997238D01*
X245969523Y-89021047D01*
X246683809Y-88878190D02*
X246588571Y-88878190D01*
X246540952Y-88902000D01*
X246517142Y-88925809D01*
X246469523Y-88997238D01*
X246445714Y-89092476D01*
X246445714Y-89282952D01*
X246469523Y-89330571D01*
X246493333Y-89354380D01*
X246540952Y-89378190D01*
X246636190Y-89378190D01*
X246683809Y-89354380D01*
X246707619Y-89330571D01*
X246731428Y-89282952D01*
X246731428Y-89163904D01*
X246707619Y-89116285D01*
X246683809Y-89092476D01*
X246636190Y-89068666D01*
X246540952Y-89068666D01*
X246493333Y-89092476D01*
X246469523Y-89116285D01*
X246445714Y-89163904D01*
%TO.C,TP17*%
X211930952Y-57478190D02*
X212216666Y-57478190D01*
X212073809Y-57978190D02*
X212073809Y-57478190D01*
X212383333Y-57978190D02*
X212383333Y-57478190D01*
X212573809Y-57478190D01*
X212621428Y-57502000D01*
X212645238Y-57525809D01*
X212669047Y-57573428D01*
X212669047Y-57644857D01*
X212645238Y-57692476D01*
X212621428Y-57716285D01*
X212573809Y-57740095D01*
X212383333Y-57740095D01*
X213145238Y-57978190D02*
X212859523Y-57978190D01*
X213002380Y-57978190D02*
X213002380Y-57478190D01*
X212954761Y-57549619D01*
X212907142Y-57597238D01*
X212859523Y-57621047D01*
X213311904Y-57478190D02*
X213645238Y-57478190D01*
X213430952Y-57978190D01*
%TO.C,TP18*%
X234930952Y-56078190D02*
X235216666Y-56078190D01*
X235073809Y-56578190D02*
X235073809Y-56078190D01*
X235383333Y-56578190D02*
X235383333Y-56078190D01*
X235573809Y-56078190D01*
X235621428Y-56102000D01*
X235645238Y-56125809D01*
X235669047Y-56173428D01*
X235669047Y-56244857D01*
X235645238Y-56292476D01*
X235621428Y-56316285D01*
X235573809Y-56340095D01*
X235383333Y-56340095D01*
X236145238Y-56578190D02*
X235859523Y-56578190D01*
X236002380Y-56578190D02*
X236002380Y-56078190D01*
X235954761Y-56149619D01*
X235907142Y-56197238D01*
X235859523Y-56221047D01*
X236430952Y-56292476D02*
X236383333Y-56268666D01*
X236359523Y-56244857D01*
X236335714Y-56197238D01*
X236335714Y-56173428D01*
X236359523Y-56125809D01*
X236383333Y-56102000D01*
X236430952Y-56078190D01*
X236526190Y-56078190D01*
X236573809Y-56102000D01*
X236597619Y-56125809D01*
X236621428Y-56173428D01*
X236621428Y-56197238D01*
X236597619Y-56244857D01*
X236573809Y-56268666D01*
X236526190Y-56292476D01*
X236430952Y-56292476D01*
X236383333Y-56316285D01*
X236359523Y-56340095D01*
X236335714Y-56387714D01*
X236335714Y-56482952D01*
X236359523Y-56530571D01*
X236383333Y-56554380D01*
X236430952Y-56578190D01*
X236526190Y-56578190D01*
X236573809Y-56554380D01*
X236597619Y-56530571D01*
X236621428Y-56482952D01*
X236621428Y-56387714D01*
X236597619Y-56340095D01*
X236573809Y-56316285D01*
X236526190Y-56292476D01*
%TO.C,U1*%
X221619047Y-56326190D02*
X221619047Y-56730952D01*
X221642857Y-56778571D01*
X221666666Y-56802380D01*
X221714285Y-56826190D01*
X221809523Y-56826190D01*
X221857142Y-56802380D01*
X221880952Y-56778571D01*
X221904761Y-56730952D01*
X221904761Y-56326190D01*
X222404761Y-56826190D02*
X222119047Y-56826190D01*
X222261904Y-56826190D02*
X222261904Y-56326190D01*
X222214285Y-56397619D01*
X222166666Y-56445238D01*
X222119047Y-56469047D01*
%TO.C,U2*%
X241819047Y-77526190D02*
X241819047Y-77930952D01*
X241842857Y-77978571D01*
X241866666Y-78002380D01*
X241914285Y-78026190D01*
X242009523Y-78026190D01*
X242057142Y-78002380D01*
X242080952Y-77978571D01*
X242104761Y-77930952D01*
X242104761Y-77526190D01*
X242319047Y-77573809D02*
X242342857Y-77550000D01*
X242390476Y-77526190D01*
X242509523Y-77526190D01*
X242557142Y-77550000D01*
X242580952Y-77573809D01*
X242604761Y-77621428D01*
X242604761Y-77669047D01*
X242580952Y-77740476D01*
X242295238Y-78026190D01*
X242604761Y-78026190D01*
%TO.C,U3*%
X228619047Y-47526190D02*
X228619047Y-47930952D01*
X228642857Y-47978571D01*
X228666666Y-48002380D01*
X228714285Y-48026190D01*
X228809523Y-48026190D01*
X228857142Y-48002380D01*
X228880952Y-47978571D01*
X228904761Y-47930952D01*
X228904761Y-47526190D01*
X229095238Y-47526190D02*
X229404761Y-47526190D01*
X229238095Y-47716666D01*
X229309523Y-47716666D01*
X229357142Y-47740476D01*
X229380952Y-47764285D01*
X229404761Y-47811904D01*
X229404761Y-47930952D01*
X229380952Y-47978571D01*
X229357142Y-48002380D01*
X229309523Y-48026190D01*
X229166666Y-48026190D01*
X229119047Y-48002380D01*
X229095238Y-47978571D01*
%TO.C,U5*%
X221819047Y-38926190D02*
X221819047Y-39330952D01*
X221842857Y-39378571D01*
X221866666Y-39402380D01*
X221914285Y-39426190D01*
X222009523Y-39426190D01*
X222057142Y-39402380D01*
X222080952Y-39378571D01*
X222104761Y-39330952D01*
X222104761Y-38926190D01*
X222580952Y-38926190D02*
X222342857Y-38926190D01*
X222319047Y-39164285D01*
X222342857Y-39140476D01*
X222390476Y-39116666D01*
X222509523Y-39116666D01*
X222557142Y-39140476D01*
X222580952Y-39164285D01*
X222604761Y-39211904D01*
X222604761Y-39330952D01*
X222580952Y-39378571D01*
X222557142Y-39402380D01*
X222509523Y-39426190D01*
X222390476Y-39426190D01*
X222342857Y-39402380D01*
X222319047Y-39378571D01*
%TO.C,U7*%
X212819047Y-91126190D02*
X212819047Y-91530952D01*
X212842857Y-91578571D01*
X212866666Y-91602380D01*
X212914285Y-91626190D01*
X213009523Y-91626190D01*
X213057142Y-91602380D01*
X213080952Y-91578571D01*
X213104761Y-91530952D01*
X213104761Y-91126190D01*
X213295238Y-91126190D02*
X213628571Y-91126190D01*
X213414285Y-91626190D01*
%TO.C,U11*%
X193812248Y-70780141D02*
X193883925Y-71178506D01*
X193915791Y-71221156D01*
X193943441Y-71240373D01*
X193994523Y-71255374D01*
X194088256Y-71238509D01*
X194130906Y-71206643D01*
X194150123Y-71178993D01*
X194165124Y-71127911D01*
X194093447Y-70729546D01*
X194674087Y-71133101D02*
X194392888Y-71183697D01*
X194533488Y-71158399D02*
X194444945Y-70666301D01*
X194410728Y-70745033D01*
X194372294Y-70800332D01*
X194329644Y-70832198D01*
X195142752Y-71048775D02*
X194861553Y-71099371D01*
X195002152Y-71074073D02*
X194913610Y-70581975D01*
X194879392Y-70660707D01*
X194840958Y-70716006D01*
X194798308Y-70747872D01*
D15*
X184353494Y-74877196D02*
X185337689Y-74700112D01*
X184454685Y-75439594D01*
X185438880Y-75262509D01*
X184564309Y-76048858D02*
X184594310Y-75946692D01*
X184632744Y-75891393D01*
X184718044Y-75827662D01*
X184999243Y-75777066D01*
X185101408Y-75807067D01*
X185156707Y-75845501D01*
X185220439Y-75930801D01*
X185245737Y-76071401D01*
X185215736Y-76173566D01*
X185177302Y-76228865D01*
X185092002Y-76292597D01*
X184810803Y-76343193D01*
X184708637Y-76313191D01*
X184653338Y-76274757D01*
X184589607Y-76189457D01*
X184564309Y-76048858D01*
X185864240Y-77895463D02*
X185894241Y-77793298D01*
X185868943Y-77652698D01*
X185796779Y-77520532D01*
X185686181Y-77443664D01*
X185584015Y-77413663D01*
X185388117Y-77400527D01*
X185247518Y-77425825D01*
X185068484Y-77506421D01*
X184983184Y-77570153D01*
X184906316Y-77680751D01*
X184884748Y-77829783D01*
X184901613Y-77923516D01*
X184973777Y-78055683D01*
X185029076Y-78094117D01*
X185357142Y-78035088D01*
X185323411Y-77847623D01*
X185011237Y-78532780D02*
X185667367Y-78414724D01*
X185479901Y-78448454D02*
X185582067Y-78478455D01*
X185637366Y-78516889D01*
X185701098Y-78602189D01*
X185717963Y-78695922D01*
X185146159Y-79282643D02*
X185176160Y-79180478D01*
X185214594Y-79125179D01*
X185299894Y-79061447D01*
X185581093Y-79010851D01*
X185683258Y-79040853D01*
X185738557Y-79079287D01*
X185802289Y-79164587D01*
X185827587Y-79305186D01*
X185797586Y-79407352D01*
X185759152Y-79462651D01*
X185673851Y-79526382D01*
X185392653Y-79576978D01*
X185290487Y-79546977D01*
X185235188Y-79508543D01*
X185171456Y-79423243D01*
X185146159Y-79282643D01*
X186013104Y-80336248D02*
X185356974Y-80454305D01*
X185937211Y-79914450D02*
X185421680Y-80007209D01*
X185336379Y-80070941D01*
X185306378Y-80173106D01*
X185331676Y-80313705D01*
X185395408Y-80399006D01*
X185450707Y-80437440D01*
X186097430Y-80804913D02*
X185441300Y-80922969D01*
X186003697Y-80821778D02*
X186058996Y-80860212D01*
X186122728Y-80945512D01*
X186148026Y-81086112D01*
X186118025Y-81188277D01*
X186032724Y-81252009D01*
X185517193Y-81344767D01*
X185677413Y-82235230D02*
X186661608Y-82058145D01*
X185724279Y-82226798D02*
X185660548Y-82141497D01*
X185626817Y-81954031D01*
X185656818Y-81851866D01*
X185695252Y-81796567D01*
X185780553Y-81732835D01*
X186061751Y-81682240D01*
X186163917Y-81712241D01*
X186219216Y-81750675D01*
X186282948Y-81835975D01*
X186316678Y-82023441D01*
X186286677Y-82125606D01*
%TO.C,U14*%
D10*
X236750952Y-60096190D02*
X236750952Y-60500952D01*
X236774761Y-60548571D01*
X236798571Y-60572380D01*
X236846190Y-60596190D01*
X236941428Y-60596190D01*
X236989047Y-60572380D01*
X237012857Y-60548571D01*
X237036666Y-60500952D01*
X237036666Y-60096190D01*
X237536666Y-60596190D02*
X237250952Y-60596190D01*
X237393809Y-60596190D02*
X237393809Y-60096190D01*
X237346190Y-60167619D01*
X237298571Y-60215238D01*
X237250952Y-60239047D01*
X237965238Y-60262857D02*
X237965238Y-60596190D01*
X237846190Y-60072380D02*
X237727142Y-60429523D01*
X238036666Y-60429523D01*
%TO.C,Y1*%
X202563454Y-80229620D02*
X202604799Y-80464098D01*
X202353840Y-80000636D02*
X202563454Y-80229620D01*
X202682110Y-79942753D01*
X203190994Y-80360736D02*
X202909620Y-80410350D01*
X203050307Y-80385543D02*
X202963483Y-79893139D01*
X202928991Y-79971752D01*
X202890364Y-80026916D01*
X202847603Y-80058633D01*
%TO.C,L1*%
X247376666Y-72426190D02*
X247138571Y-72426190D01*
X247138571Y-71926190D01*
X247805238Y-72426190D02*
X247519523Y-72426190D01*
X247662380Y-72426190D02*
X247662380Y-71926190D01*
X247614761Y-71997619D01*
X247567142Y-72045238D01*
X247519523Y-72069047D01*
%TO.C,L2*%
X234316666Y-62026190D02*
X234078571Y-62026190D01*
X234078571Y-61526190D01*
X234459523Y-61573809D02*
X234483333Y-61550000D01*
X234530952Y-61526190D01*
X234650000Y-61526190D01*
X234697619Y-61550000D01*
X234721428Y-61573809D01*
X234745238Y-61621428D01*
X234745238Y-61669047D01*
X234721428Y-61740476D01*
X234435714Y-62026190D01*
X234745238Y-62026190D01*
%TO.C,C34*%
X207218571Y-51448571D02*
X207194761Y-51472380D01*
X207123333Y-51496190D01*
X207075714Y-51496190D01*
X207004285Y-51472380D01*
X206956666Y-51424761D01*
X206932857Y-51377142D01*
X206909047Y-51281904D01*
X206909047Y-51210476D01*
X206932857Y-51115238D01*
X206956666Y-51067619D01*
X207004285Y-51020000D01*
X207075714Y-50996190D01*
X207123333Y-50996190D01*
X207194761Y-51020000D01*
X207218571Y-51043809D01*
X207385238Y-50996190D02*
X207694761Y-50996190D01*
X207528095Y-51186666D01*
X207599523Y-51186666D01*
X207647142Y-51210476D01*
X207670952Y-51234285D01*
X207694761Y-51281904D01*
X207694761Y-51400952D01*
X207670952Y-51448571D01*
X207647142Y-51472380D01*
X207599523Y-51496190D01*
X207456666Y-51496190D01*
X207409047Y-51472380D01*
X207385238Y-51448571D01*
X208123333Y-51162857D02*
X208123333Y-51496190D01*
X208004285Y-50972380D02*
X207885238Y-51329523D01*
X208194761Y-51329523D01*
%TO.C,SW1*%
X195303765Y-56774309D02*
X195363550Y-56820076D01*
X195476112Y-56858834D01*
X195528888Y-56851825D01*
X195559152Y-56837065D01*
X195597168Y-56799791D01*
X195612671Y-56754767D01*
X195605662Y-56701990D01*
X195590901Y-56671726D01*
X195553628Y-56633711D01*
X195471331Y-56580192D01*
X195434058Y-56542176D01*
X195419297Y-56511912D01*
X195412288Y-56459136D01*
X195427791Y-56414111D01*
X195465807Y-56376838D01*
X195496071Y-56362078D01*
X195548847Y-56355069D01*
X195661409Y-56393827D01*
X195721194Y-56439594D01*
X195886532Y-56471343D02*
X195836310Y-56982860D01*
X196042633Y-56676182D01*
X196016408Y-57044873D01*
X196291754Y-56610872D01*
X196556705Y-57230912D02*
X196286557Y-57137893D01*
X196421631Y-57184402D02*
X196584415Y-56711643D01*
X196516135Y-56763677D01*
X196455607Y-56793198D01*
X196402831Y-56800208D01*
%TO.C,D11*%
X203792857Y-53126190D02*
X203792857Y-52626190D01*
X203911904Y-52626190D01*
X203983333Y-52650000D01*
X204030952Y-52697619D01*
X204054761Y-52745238D01*
X204078571Y-52840476D01*
X204078571Y-52911904D01*
X204054761Y-53007142D01*
X204030952Y-53054761D01*
X203983333Y-53102380D01*
X203911904Y-53126190D01*
X203792857Y-53126190D01*
X204554761Y-53126190D02*
X204269047Y-53126190D01*
X204411904Y-53126190D02*
X204411904Y-52626190D01*
X204364285Y-52697619D01*
X204316666Y-52745238D01*
X204269047Y-52769047D01*
X205030952Y-53126190D02*
X204745238Y-53126190D01*
X204888095Y-53126190D02*
X204888095Y-52626190D01*
X204840476Y-52697619D01*
X204792857Y-52745238D01*
X204745238Y-52769047D01*
%TO.C,Q1*%
X201552380Y-58473809D02*
X201504761Y-58450000D01*
X201457142Y-58402380D01*
X201385714Y-58330952D01*
X201338095Y-58307142D01*
X201290476Y-58307142D01*
X201314285Y-58426190D02*
X201266666Y-58402380D01*
X201219047Y-58354761D01*
X201195238Y-58259523D01*
X201195238Y-58092857D01*
X201219047Y-57997619D01*
X201266666Y-57950000D01*
X201314285Y-57926190D01*
X201409523Y-57926190D01*
X201457142Y-57950000D01*
X201504761Y-57997619D01*
X201528571Y-58092857D01*
X201528571Y-58259523D01*
X201504761Y-58354761D01*
X201457142Y-58402380D01*
X201409523Y-58426190D01*
X201314285Y-58426190D01*
X202004761Y-58426190D02*
X201719047Y-58426190D01*
X201861904Y-58426190D02*
X201861904Y-57926190D01*
X201814285Y-57997619D01*
X201766666Y-58045238D01*
X201719047Y-58069047D01*
%TO.C,R20*%
X201278571Y-65676190D02*
X201111904Y-65438095D01*
X200992857Y-65676190D02*
X200992857Y-65176190D01*
X201183333Y-65176190D01*
X201230952Y-65200000D01*
X201254761Y-65223809D01*
X201278571Y-65271428D01*
X201278571Y-65342857D01*
X201254761Y-65390476D01*
X201230952Y-65414285D01*
X201183333Y-65438095D01*
X200992857Y-65438095D01*
X201469047Y-65223809D02*
X201492857Y-65200000D01*
X201540476Y-65176190D01*
X201659523Y-65176190D01*
X201707142Y-65200000D01*
X201730952Y-65223809D01*
X201754761Y-65271428D01*
X201754761Y-65319047D01*
X201730952Y-65390476D01*
X201445238Y-65676190D01*
X201754761Y-65676190D01*
X202064285Y-65176190D02*
X202111904Y-65176190D01*
X202159523Y-65200000D01*
X202183333Y-65223809D01*
X202207142Y-65271428D01*
X202230952Y-65366666D01*
X202230952Y-65485714D01*
X202207142Y-65580952D01*
X202183333Y-65628571D01*
X202159523Y-65652380D01*
X202111904Y-65676190D01*
X202064285Y-65676190D01*
X202016666Y-65652380D01*
X201992857Y-65628571D01*
X201969047Y-65580952D01*
X201945238Y-65485714D01*
X201945238Y-65366666D01*
X201969047Y-65271428D01*
X201992857Y-65223809D01*
X202016666Y-65200000D01*
X202064285Y-65176190D01*
%TO.C,C26*%
X233078571Y-68378571D02*
X233054761Y-68402380D01*
X232983333Y-68426190D01*
X232935714Y-68426190D01*
X232864285Y-68402380D01*
X232816666Y-68354761D01*
X232792857Y-68307142D01*
X232769047Y-68211904D01*
X232769047Y-68140476D01*
X232792857Y-68045238D01*
X232816666Y-67997619D01*
X232864285Y-67950000D01*
X232935714Y-67926190D01*
X232983333Y-67926190D01*
X233054761Y-67950000D01*
X233078571Y-67973809D01*
X233269047Y-67973809D02*
X233292857Y-67950000D01*
X233340476Y-67926190D01*
X233459523Y-67926190D01*
X233507142Y-67950000D01*
X233530952Y-67973809D01*
X233554761Y-68021428D01*
X233554761Y-68069047D01*
X233530952Y-68140476D01*
X233245238Y-68426190D01*
X233554761Y-68426190D01*
X233983333Y-67926190D02*
X233888095Y-67926190D01*
X233840476Y-67950000D01*
X233816666Y-67973809D01*
X233769047Y-68045238D01*
X233745238Y-68140476D01*
X233745238Y-68330952D01*
X233769047Y-68378571D01*
X233792857Y-68402380D01*
X233840476Y-68426190D01*
X233935714Y-68426190D01*
X233983333Y-68402380D01*
X234007142Y-68378571D01*
X234030952Y-68330952D01*
X234030952Y-68211904D01*
X234007142Y-68164285D01*
X233983333Y-68140476D01*
X233935714Y-68116666D01*
X233840476Y-68116666D01*
X233792857Y-68140476D01*
X233769047Y-68164285D01*
X233745238Y-68211904D01*
%TO.C,Q2*%
X228952380Y-68673809D02*
X228904761Y-68650000D01*
X228857142Y-68602380D01*
X228785714Y-68530952D01*
X228738095Y-68507142D01*
X228690476Y-68507142D01*
X228714285Y-68626190D02*
X228666666Y-68602380D01*
X228619047Y-68554761D01*
X228595238Y-68459523D01*
X228595238Y-68292857D01*
X228619047Y-68197619D01*
X228666666Y-68150000D01*
X228714285Y-68126190D01*
X228809523Y-68126190D01*
X228857142Y-68150000D01*
X228904761Y-68197619D01*
X228928571Y-68292857D01*
X228928571Y-68459523D01*
X228904761Y-68554761D01*
X228857142Y-68602380D01*
X228809523Y-68626190D01*
X228714285Y-68626190D01*
X229119047Y-68173809D02*
X229142857Y-68150000D01*
X229190476Y-68126190D01*
X229309523Y-68126190D01*
X229357142Y-68150000D01*
X229380952Y-68173809D01*
X229404761Y-68221428D01*
X229404761Y-68269047D01*
X229380952Y-68340476D01*
X229095238Y-68626190D01*
X229404761Y-68626190D01*
%TO.C,C39*%
X238878571Y-81378571D02*
X238854761Y-81402380D01*
X238783333Y-81426190D01*
X238735714Y-81426190D01*
X238664285Y-81402380D01*
X238616666Y-81354761D01*
X238592857Y-81307142D01*
X238569047Y-81211904D01*
X238569047Y-81140476D01*
X238592857Y-81045238D01*
X238616666Y-80997619D01*
X238664285Y-80950000D01*
X238735714Y-80926190D01*
X238783333Y-80926190D01*
X238854761Y-80950000D01*
X238878571Y-80973809D01*
X239045238Y-80926190D02*
X239354761Y-80926190D01*
X239188095Y-81116666D01*
X239259523Y-81116666D01*
X239307142Y-81140476D01*
X239330952Y-81164285D01*
X239354761Y-81211904D01*
X239354761Y-81330952D01*
X239330952Y-81378571D01*
X239307142Y-81402380D01*
X239259523Y-81426190D01*
X239116666Y-81426190D01*
X239069047Y-81402380D01*
X239045238Y-81378571D01*
X239592857Y-81426190D02*
X239688095Y-81426190D01*
X239735714Y-81402380D01*
X239759523Y-81378571D01*
X239807142Y-81307142D01*
X239830952Y-81211904D01*
X239830952Y-81021428D01*
X239807142Y-80973809D01*
X239783333Y-80950000D01*
X239735714Y-80926190D01*
X239640476Y-80926190D01*
X239592857Y-80950000D01*
X239569047Y-80973809D01*
X239545238Y-81021428D01*
X239545238Y-81140476D01*
X239569047Y-81188095D01*
X239592857Y-81211904D01*
X239640476Y-81235714D01*
X239735714Y-81235714D01*
X239783333Y-81211904D01*
X239807142Y-81188095D01*
X239830952Y-81140476D01*
%TO.C,C40*%
X241878571Y-92598571D02*
X241854761Y-92622380D01*
X241783333Y-92646190D01*
X241735714Y-92646190D01*
X241664285Y-92622380D01*
X241616666Y-92574761D01*
X241592857Y-92527142D01*
X241569047Y-92431904D01*
X241569047Y-92360476D01*
X241592857Y-92265238D01*
X241616666Y-92217619D01*
X241664285Y-92170000D01*
X241735714Y-92146190D01*
X241783333Y-92146190D01*
X241854761Y-92170000D01*
X241878571Y-92193809D01*
X242307142Y-92312857D02*
X242307142Y-92646190D01*
X242188095Y-92122380D02*
X242069047Y-92479523D01*
X242378571Y-92479523D01*
X242664285Y-92146190D02*
X242711904Y-92146190D01*
X242759523Y-92170000D01*
X242783333Y-92193809D01*
X242807142Y-92241428D01*
X242830952Y-92336666D01*
X242830952Y-92455714D01*
X242807142Y-92550952D01*
X242783333Y-92598571D01*
X242759523Y-92622380D01*
X242711904Y-92646190D01*
X242664285Y-92646190D01*
X242616666Y-92622380D01*
X242592857Y-92598571D01*
X242569047Y-92550952D01*
X242545238Y-92455714D01*
X242545238Y-92336666D01*
X242569047Y-92241428D01*
X242592857Y-92193809D01*
X242616666Y-92170000D01*
X242664285Y-92146190D01*
%TO.C,D17*%
X237192857Y-83426190D02*
X237192857Y-82926190D01*
X237311904Y-82926190D01*
X237383333Y-82950000D01*
X237430952Y-82997619D01*
X237454761Y-83045238D01*
X237478571Y-83140476D01*
X237478571Y-83211904D01*
X237454761Y-83307142D01*
X237430952Y-83354761D01*
X237383333Y-83402380D01*
X237311904Y-83426190D01*
X237192857Y-83426190D01*
X237954761Y-83426190D02*
X237669047Y-83426190D01*
X237811904Y-83426190D02*
X237811904Y-82926190D01*
X237764285Y-82997619D01*
X237716666Y-83045238D01*
X237669047Y-83069047D01*
X238121428Y-82926190D02*
X238454761Y-82926190D01*
X238240476Y-83426190D01*
%TO.C,L3*%
X245916666Y-83626190D02*
X245678571Y-83626190D01*
X245678571Y-83126190D01*
X246035714Y-83126190D02*
X246345238Y-83126190D01*
X246178571Y-83316666D01*
X246250000Y-83316666D01*
X246297619Y-83340476D01*
X246321428Y-83364285D01*
X246345238Y-83411904D01*
X246345238Y-83530952D01*
X246321428Y-83578571D01*
X246297619Y-83602380D01*
X246250000Y-83626190D01*
X246107142Y-83626190D01*
X246059523Y-83602380D01*
X246035714Y-83578571D01*
%TO.C,R49*%
X235878571Y-84826190D02*
X235711904Y-84588095D01*
X235592857Y-84826190D02*
X235592857Y-84326190D01*
X235783333Y-84326190D01*
X235830952Y-84350000D01*
X235854761Y-84373809D01*
X235878571Y-84421428D01*
X235878571Y-84492857D01*
X235854761Y-84540476D01*
X235830952Y-84564285D01*
X235783333Y-84588095D01*
X235592857Y-84588095D01*
X236307142Y-84492857D02*
X236307142Y-84826190D01*
X236188095Y-84302380D02*
X236069047Y-84659523D01*
X236378571Y-84659523D01*
X236592857Y-84826190D02*
X236688095Y-84826190D01*
X236735714Y-84802380D01*
X236759523Y-84778571D01*
X236807142Y-84707142D01*
X236830952Y-84611904D01*
X236830952Y-84421428D01*
X236807142Y-84373809D01*
X236783333Y-84350000D01*
X236735714Y-84326190D01*
X236640476Y-84326190D01*
X236592857Y-84350000D01*
X236569047Y-84373809D01*
X236545238Y-84421428D01*
X236545238Y-84540476D01*
X236569047Y-84588095D01*
X236592857Y-84611904D01*
X236640476Y-84635714D01*
X236735714Y-84635714D01*
X236783333Y-84611904D01*
X236807142Y-84588095D01*
X236830952Y-84540476D01*
%TO.C,R50*%
X237878571Y-92616190D02*
X237711904Y-92378095D01*
X237592857Y-92616190D02*
X237592857Y-92116190D01*
X237783333Y-92116190D01*
X237830952Y-92140000D01*
X237854761Y-92163809D01*
X237878571Y-92211428D01*
X237878571Y-92282857D01*
X237854761Y-92330476D01*
X237830952Y-92354285D01*
X237783333Y-92378095D01*
X237592857Y-92378095D01*
X238330952Y-92116190D02*
X238092857Y-92116190D01*
X238069047Y-92354285D01*
X238092857Y-92330476D01*
X238140476Y-92306666D01*
X238259523Y-92306666D01*
X238307142Y-92330476D01*
X238330952Y-92354285D01*
X238354761Y-92401904D01*
X238354761Y-92520952D01*
X238330952Y-92568571D01*
X238307142Y-92592380D01*
X238259523Y-92616190D01*
X238140476Y-92616190D01*
X238092857Y-92592380D01*
X238069047Y-92568571D01*
X238664285Y-92116190D02*
X238711904Y-92116190D01*
X238759523Y-92140000D01*
X238783333Y-92163809D01*
X238807142Y-92211428D01*
X238830952Y-92306666D01*
X238830952Y-92425714D01*
X238807142Y-92520952D01*
X238783333Y-92568571D01*
X238759523Y-92592380D01*
X238711904Y-92616190D01*
X238664285Y-92616190D01*
X238616666Y-92592380D01*
X238592857Y-92568571D01*
X238569047Y-92520952D01*
X238545238Y-92425714D01*
X238545238Y-92306666D01*
X238569047Y-92211428D01*
X238592857Y-92163809D01*
X238616666Y-92140000D01*
X238664285Y-92116190D01*
%TO.C,TP19*%
X232730952Y-85726190D02*
X233016666Y-85726190D01*
X232873809Y-86226190D02*
X232873809Y-85726190D01*
X233183333Y-86226190D02*
X233183333Y-85726190D01*
X233373809Y-85726190D01*
X233421428Y-85750000D01*
X233445238Y-85773809D01*
X233469047Y-85821428D01*
X233469047Y-85892857D01*
X233445238Y-85940476D01*
X233421428Y-85964285D01*
X233373809Y-85988095D01*
X233183333Y-85988095D01*
X233945238Y-86226190D02*
X233659523Y-86226190D01*
X233802380Y-86226190D02*
X233802380Y-85726190D01*
X233754761Y-85797619D01*
X233707142Y-85845238D01*
X233659523Y-85869047D01*
X234183333Y-86226190D02*
X234278571Y-86226190D01*
X234326190Y-86202380D01*
X234350000Y-86178571D01*
X234397619Y-86107142D01*
X234421428Y-86011904D01*
X234421428Y-85821428D01*
X234397619Y-85773809D01*
X234373809Y-85750000D01*
X234326190Y-85726190D01*
X234230952Y-85726190D01*
X234183333Y-85750000D01*
X234159523Y-85773809D01*
X234135714Y-85821428D01*
X234135714Y-85940476D01*
X234159523Y-85988095D01*
X234183333Y-86011904D01*
X234230952Y-86035714D01*
X234326190Y-86035714D01*
X234373809Y-86011904D01*
X234397619Y-85988095D01*
X234421428Y-85940476D01*
%TO.C,U16*%
X239380952Y-88926190D02*
X239380952Y-89330952D01*
X239404761Y-89378571D01*
X239428571Y-89402380D01*
X239476190Y-89426190D01*
X239571428Y-89426190D01*
X239619047Y-89402380D01*
X239642857Y-89378571D01*
X239666666Y-89330952D01*
X239666666Y-88926190D01*
X240166666Y-89426190D02*
X239880952Y-89426190D01*
X240023809Y-89426190D02*
X240023809Y-88926190D01*
X239976190Y-88997619D01*
X239928571Y-89045238D01*
X239880952Y-89069047D01*
X240595238Y-88926190D02*
X240500000Y-88926190D01*
X240452380Y-88950000D01*
X240428571Y-88973809D01*
X240380952Y-89045238D01*
X240357142Y-89140476D01*
X240357142Y-89330952D01*
X240380952Y-89378571D01*
X240404761Y-89402380D01*
X240452380Y-89426190D01*
X240547619Y-89426190D01*
X240595238Y-89402380D01*
X240619047Y-89378571D01*
X240642857Y-89330952D01*
X240642857Y-89211904D01*
X240619047Y-89164285D01*
X240595238Y-89140476D01*
X240547619Y-89116666D01*
X240452380Y-89116666D01*
X240404761Y-89140476D01*
X240380952Y-89164285D01*
X240357142Y-89211904D01*
%TD*%
M02*
