%TF.GenerationSoftware,KiCad,Pcbnew,5.1.6+dfsg1-1*%
%TF.CreationDate,2020-08-08T17:15:22+09:00*%
%TF.ProjectId,portable_spectro_sch,706f7274-6162-46c6-955f-737065637472,rev?*%
%TF.SameCoordinates,Original*%
%TF.FileFunction,Paste,Bot*%
%TF.FilePolarity,Positive*%
%FSLAX46Y46*%
G04 Gerber Fmt 4.6, Leading zero omitted, Abs format (unit mm)*
G04 Created by KiCad (PCBNEW 5.1.6+dfsg1-1) date 2020-08-08 17:15:22*
%MOMM*%
%LPD*%
G01*
G04 APERTURE LIST*
%ADD10C,0.100000*%
%ADD11R,0.900000X1.150000*%
%ADD12R,0.400000X2.600000*%
%ADD13R,0.400000X0.550000*%
%ADD14R,0.550000X0.400000*%
G04 APERTURE END LIST*
D10*
%TO.C,D3*%
G36*
X226848235Y-87704491D02*
G01*
X227241558Y-88785137D01*
X226395835Y-89092955D01*
X226002512Y-88012309D01*
X226848235Y-87704491D01*
G37*
G36*
X227344165Y-89067045D02*
G01*
X227737488Y-90147691D01*
X226891765Y-90455509D01*
X226498442Y-89374863D01*
X227344165Y-89067045D01*
G37*
G36*
X227646974Y-87413774D02*
G01*
X228536227Y-89856974D01*
X228160350Y-89993782D01*
X227271097Y-87550582D01*
X227646974Y-87413774D01*
G37*
G36*
X225579650Y-88166218D02*
G01*
X226468903Y-90609418D01*
X226093026Y-90746226D01*
X225203773Y-88303026D01*
X225579650Y-88166218D01*
G37*
%TD*%
%TO.C,D10*%
G36*
X209630904Y-59655112D02*
G01*
X208891698Y-58774161D01*
X209581138Y-58195652D01*
X210320344Y-59076603D01*
X209630904Y-59655112D01*
G37*
G36*
X208698862Y-58544348D02*
G01*
X207959656Y-57663397D01*
X208649096Y-57084888D01*
X209388302Y-57965839D01*
X208698862Y-58544348D01*
G37*
G36*
X208979766Y-60201481D02*
G01*
X207308518Y-58209766D01*
X207614936Y-57952651D01*
X209286184Y-59944366D01*
X208979766Y-60201481D01*
G37*
G36*
X210665064Y-58787349D02*
G01*
X208993816Y-56795634D01*
X209300234Y-56538519D01*
X210971482Y-58530234D01*
X210665064Y-58787349D01*
G37*
%TD*%
%TO.C,D4*%
G36*
X237081608Y-68812579D02*
G01*
X238214137Y-68612884D01*
X238370420Y-69499211D01*
X237237891Y-69698906D01*
X237081608Y-68812579D01*
G37*
G36*
X238509580Y-68560789D02*
G01*
X239642109Y-68361094D01*
X239798392Y-69247421D01*
X238665863Y-69447116D01*
X238509580Y-68560789D01*
G37*
G36*
X236934007Y-67975492D02*
G01*
X239494507Y-67524007D01*
X239563967Y-67917930D01*
X237003467Y-68369415D01*
X236934007Y-67975492D01*
G37*
G36*
X237316033Y-70142070D02*
G01*
X239876533Y-69690585D01*
X239945993Y-70084508D01*
X237385493Y-70535993D01*
X237316033Y-70142070D01*
G37*
%TD*%
%TO.C,D7*%
G36*
X231099656Y-59076603D02*
G01*
X231838862Y-58195652D01*
X232528302Y-58774161D01*
X231789096Y-59655112D01*
X231099656Y-59076603D01*
G37*
G36*
X232031698Y-57965839D02*
G01*
X232770904Y-57084888D01*
X233460344Y-57663397D01*
X232721138Y-58544348D01*
X232031698Y-57965839D01*
G37*
G36*
X230448518Y-58530234D02*
G01*
X232119766Y-56538519D01*
X232426184Y-56795634D01*
X230754936Y-58787349D01*
X230448518Y-58530234D01*
G37*
G36*
X232133816Y-59944366D02*
G01*
X233805064Y-57952651D01*
X234111482Y-58209766D01*
X232440234Y-60201481D01*
X232133816Y-59944366D01*
G37*
%TD*%
%TO.C,D5*%
G36*
X215420334Y-88007536D02*
G01*
X215027011Y-89088182D01*
X214181288Y-88780364D01*
X214574611Y-87699718D01*
X215420334Y-88007536D01*
G37*
G36*
X214924404Y-89370090D02*
G01*
X214531081Y-90450736D01*
X213685358Y-90142918D01*
X214078681Y-89062272D01*
X214924404Y-89370090D01*
G37*
G36*
X216219073Y-88298253D02*
G01*
X215329820Y-90741453D01*
X214953943Y-90604645D01*
X215843196Y-88161445D01*
X216219073Y-88298253D01*
G37*
G36*
X214151749Y-87545809D02*
G01*
X213262496Y-89989009D01*
X212886619Y-89852201D01*
X213775872Y-87409001D01*
X214151749Y-87545809D01*
G37*
%TD*%
%TO.C,D8*%
G36*
X204182109Y-69698906D02*
G01*
X203049580Y-69499211D01*
X203205863Y-68612884D01*
X204338392Y-68812579D01*
X204182109Y-69698906D01*
G37*
G36*
X202754137Y-69447116D02*
G01*
X201621608Y-69247421D01*
X201777891Y-68361094D01*
X202910420Y-68560789D01*
X202754137Y-69447116D01*
G37*
G36*
X204034507Y-70535993D02*
G01*
X201474007Y-70084508D01*
X201543467Y-69690585D01*
X204103967Y-70142070D01*
X204034507Y-70535993D01*
G37*
G36*
X204416533Y-68369415D02*
G01*
X201856033Y-67917930D01*
X201925493Y-67524007D01*
X204485993Y-67975492D01*
X204416533Y-68369415D01*
G37*
%TD*%
%TO.C,D2*%
G36*
X235401299Y-80117789D02*
G01*
X236397229Y-80692789D01*
X235947229Y-81472211D01*
X234951299Y-80897211D01*
X235401299Y-80117789D01*
G37*
G36*
X236657035Y-80842789D02*
G01*
X237652965Y-81417789D01*
X237202965Y-82197211D01*
X236207035Y-81622211D01*
X236657035Y-80842789D01*
G37*
G36*
X235826299Y-79381667D02*
G01*
X238077965Y-80681667D01*
X237877965Y-81028077D01*
X235626299Y-79728077D01*
X235826299Y-79381667D01*
G37*
G36*
X234726299Y-81286923D02*
G01*
X236977965Y-82586923D01*
X236777965Y-82933333D01*
X234526299Y-81633333D01*
X234726299Y-81286923D01*
G37*
%TD*%
D11*
%TO.C,D9*%
X220710000Y-54885000D03*
X220710000Y-53435000D03*
D12*
X219610000Y-54160000D03*
X221810000Y-54160000D03*
%TD*%
D10*
%TO.C,D6*%
G36*
X206470833Y-80902339D02*
G01*
X205474903Y-81477339D01*
X205024903Y-80697917D01*
X206020833Y-80122917D01*
X206470833Y-80902339D01*
G37*
G36*
X205215097Y-81627339D02*
G01*
X204219167Y-82202339D01*
X203769167Y-81422917D01*
X204765097Y-80847917D01*
X205215097Y-81627339D01*
G37*
G36*
X206895833Y-81638461D02*
G01*
X204644167Y-82938461D01*
X204444167Y-82592051D01*
X206695833Y-81292051D01*
X206895833Y-81638461D01*
G37*
G36*
X205795833Y-79733205D02*
G01*
X203544167Y-81033205D01*
X203344167Y-80686795D01*
X205595833Y-79386795D01*
X205795833Y-79733205D01*
G37*
%TD*%
%TO.C,C25*%
G36*
G01*
X232056250Y-89025000D02*
X231143750Y-89025000D01*
G75*
G02*
X230900000Y-88781250I0J243750D01*
G01*
X230900000Y-88293750D01*
G75*
G02*
X231143750Y-88050000I243750J0D01*
G01*
X232056250Y-88050000D01*
G75*
G02*
X232300000Y-88293750I0J-243750D01*
G01*
X232300000Y-88781250D01*
G75*
G02*
X232056250Y-89025000I-243750J0D01*
G01*
G37*
G36*
G01*
X232056250Y-87150000D02*
X231143750Y-87150000D01*
G75*
G02*
X230900000Y-86906250I0J243750D01*
G01*
X230900000Y-86418750D01*
G75*
G02*
X231143750Y-86175000I243750J0D01*
G01*
X232056250Y-86175000D01*
G75*
G02*
X232300000Y-86418750I0J-243750D01*
G01*
X232300000Y-86906250D01*
G75*
G02*
X232056250Y-87150000I-243750J0D01*
G01*
G37*
%TD*%
%TO.C,R22*%
G36*
G01*
X222650000Y-88456250D02*
X222650000Y-87543750D01*
G75*
G02*
X222893750Y-87300000I243750J0D01*
G01*
X223381250Y-87300000D01*
G75*
G02*
X223625000Y-87543750I0J-243750D01*
G01*
X223625000Y-88456250D01*
G75*
G02*
X223381250Y-88700000I-243750J0D01*
G01*
X222893750Y-88700000D01*
G75*
G02*
X222650000Y-88456250I0J243750D01*
G01*
G37*
G36*
G01*
X220775000Y-88456250D02*
X220775000Y-87543750D01*
G75*
G02*
X221018750Y-87300000I243750J0D01*
G01*
X221506250Y-87300000D01*
G75*
G02*
X221750000Y-87543750I0J-243750D01*
G01*
X221750000Y-88456250D01*
G75*
G02*
X221506250Y-88700000I-243750J0D01*
G01*
X221018750Y-88700000D01*
G75*
G02*
X220775000Y-88456250I0J243750D01*
G01*
G37*
%TD*%
%TO.C,U9*%
G36*
X225660000Y-68210000D02*
G01*
X225660000Y-68760000D01*
X225260000Y-68760000D01*
X225260000Y-68210000D01*
X225660000Y-68210000D01*
G37*
D13*
X224810000Y-68485000D03*
X224160000Y-68485000D03*
X223510000Y-68485000D03*
X222860000Y-68485000D03*
D14*
X222135000Y-69110000D03*
X222135000Y-69760000D03*
X222135000Y-70410000D03*
X222135000Y-71060000D03*
X222135000Y-71710000D03*
D13*
X222860000Y-72335000D03*
X223510000Y-72335000D03*
X224160000Y-72335000D03*
X224810000Y-72335000D03*
X225460000Y-72335000D03*
D14*
X226185000Y-71710000D03*
X226185000Y-71060000D03*
X226185000Y-70410000D03*
X226185000Y-69760000D03*
X226185000Y-69110000D03*
%TD*%
%TO.C,C17*%
G36*
G01*
X214825000Y-76143750D02*
X214825000Y-77056250D01*
G75*
G02*
X214581250Y-77300000I-243750J0D01*
G01*
X214093750Y-77300000D01*
G75*
G02*
X213850000Y-77056250I0J243750D01*
G01*
X213850000Y-76143750D01*
G75*
G02*
X214093750Y-75900000I243750J0D01*
G01*
X214581250Y-75900000D01*
G75*
G02*
X214825000Y-76143750I0J-243750D01*
G01*
G37*
G36*
G01*
X212950000Y-76143750D02*
X212950000Y-77056250D01*
G75*
G02*
X212706250Y-77300000I-243750J0D01*
G01*
X212218750Y-77300000D01*
G75*
G02*
X211975000Y-77056250I0J243750D01*
G01*
X211975000Y-76143750D01*
G75*
G02*
X212218750Y-75900000I243750J0D01*
G01*
X212706250Y-75900000D01*
G75*
G02*
X212950000Y-76143750I0J-243750D01*
G01*
G37*
%TD*%
%TO.C,C18*%
G36*
G01*
X212950000Y-74143750D02*
X212950000Y-75056250D01*
G75*
G02*
X212706250Y-75300000I-243750J0D01*
G01*
X212218750Y-75300000D01*
G75*
G02*
X211975000Y-75056250I0J243750D01*
G01*
X211975000Y-74143750D01*
G75*
G02*
X212218750Y-73900000I243750J0D01*
G01*
X212706250Y-73900000D01*
G75*
G02*
X212950000Y-74143750I0J-243750D01*
G01*
G37*
G36*
G01*
X214825000Y-74143750D02*
X214825000Y-75056250D01*
G75*
G02*
X214581250Y-75300000I-243750J0D01*
G01*
X214093750Y-75300000D01*
G75*
G02*
X213850000Y-75056250I0J243750D01*
G01*
X213850000Y-74143750D01*
G75*
G02*
X214093750Y-73900000I243750J0D01*
G01*
X214581250Y-73900000D01*
G75*
G02*
X214825000Y-74143750I0J-243750D01*
G01*
G37*
%TD*%
%TO.C,C19*%
G36*
G01*
X222256250Y-64750000D02*
X221343750Y-64750000D01*
G75*
G02*
X221100000Y-64506250I0J243750D01*
G01*
X221100000Y-64018750D01*
G75*
G02*
X221343750Y-63775000I243750J0D01*
G01*
X222256250Y-63775000D01*
G75*
G02*
X222500000Y-64018750I0J-243750D01*
G01*
X222500000Y-64506250D01*
G75*
G02*
X222256250Y-64750000I-243750J0D01*
G01*
G37*
G36*
G01*
X222256250Y-66625000D02*
X221343750Y-66625000D01*
G75*
G02*
X221100000Y-66381250I0J243750D01*
G01*
X221100000Y-65893750D01*
G75*
G02*
X221343750Y-65650000I243750J0D01*
G01*
X222256250Y-65650000D01*
G75*
G02*
X222500000Y-65893750I0J-243750D01*
G01*
X222500000Y-66381250D01*
G75*
G02*
X222256250Y-66625000I-243750J0D01*
G01*
G37*
%TD*%
%TO.C,C20*%
G36*
G01*
X220256250Y-66625000D02*
X219343750Y-66625000D01*
G75*
G02*
X219100000Y-66381250I0J243750D01*
G01*
X219100000Y-65893750D01*
G75*
G02*
X219343750Y-65650000I243750J0D01*
G01*
X220256250Y-65650000D01*
G75*
G02*
X220500000Y-65893750I0J-243750D01*
G01*
X220500000Y-66381250D01*
G75*
G02*
X220256250Y-66625000I-243750J0D01*
G01*
G37*
G36*
G01*
X220256250Y-64750000D02*
X219343750Y-64750000D01*
G75*
G02*
X219100000Y-64506250I0J243750D01*
G01*
X219100000Y-64018750D01*
G75*
G02*
X219343750Y-63775000I243750J0D01*
G01*
X220256250Y-63775000D01*
G75*
G02*
X220500000Y-64018750I0J-243750D01*
G01*
X220500000Y-64506250D01*
G75*
G02*
X220256250Y-64750000I-243750J0D01*
G01*
G37*
%TD*%
%TO.C,C21*%
G36*
G01*
X213425000Y-70763750D02*
X213425000Y-71676250D01*
G75*
G02*
X213181250Y-71920000I-243750J0D01*
G01*
X212693750Y-71920000D01*
G75*
G02*
X212450000Y-71676250I0J243750D01*
G01*
X212450000Y-70763750D01*
G75*
G02*
X212693750Y-70520000I243750J0D01*
G01*
X213181250Y-70520000D01*
G75*
G02*
X213425000Y-70763750I0J-243750D01*
G01*
G37*
G36*
G01*
X211550000Y-70763750D02*
X211550000Y-71676250D01*
G75*
G02*
X211306250Y-71920000I-243750J0D01*
G01*
X210818750Y-71920000D01*
G75*
G02*
X210575000Y-71676250I0J243750D01*
G01*
X210575000Y-70763750D01*
G75*
G02*
X210818750Y-70520000I243750J0D01*
G01*
X211306250Y-70520000D01*
G75*
G02*
X211550000Y-70763750I0J-243750D01*
G01*
G37*
%TD*%
%TO.C,C22*%
G36*
G01*
X211550000Y-68743750D02*
X211550000Y-69656250D01*
G75*
G02*
X211306250Y-69900000I-243750J0D01*
G01*
X210818750Y-69900000D01*
G75*
G02*
X210575000Y-69656250I0J243750D01*
G01*
X210575000Y-68743750D01*
G75*
G02*
X210818750Y-68500000I243750J0D01*
G01*
X211306250Y-68500000D01*
G75*
G02*
X211550000Y-68743750I0J-243750D01*
G01*
G37*
G36*
G01*
X213425000Y-68743750D02*
X213425000Y-69656250D01*
G75*
G02*
X213181250Y-69900000I-243750J0D01*
G01*
X212693750Y-69900000D01*
G75*
G02*
X212450000Y-69656250I0J243750D01*
G01*
X212450000Y-68743750D01*
G75*
G02*
X212693750Y-68500000I243750J0D01*
G01*
X213181250Y-68500000D01*
G75*
G02*
X213425000Y-68743750I0J-243750D01*
G01*
G37*
%TD*%
%TO.C,C38*%
G36*
G01*
X248611342Y-97367045D02*
X247639910Y-96580394D01*
G75*
G02*
X247602954Y-96228778I157330J194286D01*
G01*
X248074944Y-95645919D01*
G75*
G02*
X248426560Y-95608963I194286J-157330D01*
G01*
X249397992Y-96395614D01*
G75*
G02*
X249434948Y-96747230I-157330J-194286D01*
G01*
X248962958Y-97330089D01*
G75*
G02*
X248611342Y-97367045I-194286J157330D01*
G01*
G37*
G36*
G01*
X250373440Y-95191037D02*
X249402008Y-94404386D01*
G75*
G02*
X249365052Y-94052770I157330J194286D01*
G01*
X249837042Y-93469911D01*
G75*
G02*
X250188658Y-93432955I194286J-157330D01*
G01*
X251160090Y-94219606D01*
G75*
G02*
X251197046Y-94571222I-157330J-194286D01*
G01*
X250725056Y-95154081D01*
G75*
G02*
X250373440Y-95191037I-194286J157330D01*
G01*
G37*
%TD*%
%TO.C,R28*%
G36*
G01*
X194656250Y-65625000D02*
X193743750Y-65625000D01*
G75*
G02*
X193500000Y-65381250I0J243750D01*
G01*
X193500000Y-64893750D01*
G75*
G02*
X193743750Y-64650000I243750J0D01*
G01*
X194656250Y-64650000D01*
G75*
G02*
X194900000Y-64893750I0J-243750D01*
G01*
X194900000Y-65381250D01*
G75*
G02*
X194656250Y-65625000I-243750J0D01*
G01*
G37*
G36*
G01*
X194656250Y-63750000D02*
X193743750Y-63750000D01*
G75*
G02*
X193500000Y-63506250I0J243750D01*
G01*
X193500000Y-63018750D01*
G75*
G02*
X193743750Y-62775000I243750J0D01*
G01*
X194656250Y-62775000D01*
G75*
G02*
X194900000Y-63018750I0J-243750D01*
G01*
X194900000Y-63506250D01*
G75*
G02*
X194656250Y-63750000I-243750J0D01*
G01*
G37*
%TD*%
%TO.C,R16*%
G36*
G01*
X223625000Y-83943750D02*
X223625000Y-84856250D01*
G75*
G02*
X223381250Y-85100000I-243750J0D01*
G01*
X222893750Y-85100000D01*
G75*
G02*
X222650000Y-84856250I0J243750D01*
G01*
X222650000Y-83943750D01*
G75*
G02*
X222893750Y-83700000I243750J0D01*
G01*
X223381250Y-83700000D01*
G75*
G02*
X223625000Y-83943750I0J-243750D01*
G01*
G37*
G36*
G01*
X221750000Y-83943750D02*
X221750000Y-84856250D01*
G75*
G02*
X221506250Y-85100000I-243750J0D01*
G01*
X221018750Y-85100000D01*
G75*
G02*
X220775000Y-84856250I0J243750D01*
G01*
X220775000Y-83943750D01*
G75*
G02*
X221018750Y-83700000I243750J0D01*
G01*
X221506250Y-83700000D01*
G75*
G02*
X221750000Y-83943750I0J-243750D01*
G01*
G37*
%TD*%
%TO.C,R21*%
G36*
G01*
X220775000Y-86656250D02*
X220775000Y-85743750D01*
G75*
G02*
X221018750Y-85500000I243750J0D01*
G01*
X221506250Y-85500000D01*
G75*
G02*
X221750000Y-85743750I0J-243750D01*
G01*
X221750000Y-86656250D01*
G75*
G02*
X221506250Y-86900000I-243750J0D01*
G01*
X221018750Y-86900000D01*
G75*
G02*
X220775000Y-86656250I0J243750D01*
G01*
G37*
G36*
G01*
X222650000Y-86656250D02*
X222650000Y-85743750D01*
G75*
G02*
X222893750Y-85500000I243750J0D01*
G01*
X223381250Y-85500000D01*
G75*
G02*
X223625000Y-85743750I0J-243750D01*
G01*
X223625000Y-86656250D01*
G75*
G02*
X223381250Y-86900000I-243750J0D01*
G01*
X222893750Y-86900000D01*
G75*
G02*
X222650000Y-86656250I0J243750D01*
G01*
G37*
%TD*%
%TO.C,R23*%
G36*
G01*
X226575000Y-76256250D02*
X226575000Y-75343750D01*
G75*
G02*
X226818750Y-75100000I243750J0D01*
G01*
X227306250Y-75100000D01*
G75*
G02*
X227550000Y-75343750I0J-243750D01*
G01*
X227550000Y-76256250D01*
G75*
G02*
X227306250Y-76500000I-243750J0D01*
G01*
X226818750Y-76500000D01*
G75*
G02*
X226575000Y-76256250I0J243750D01*
G01*
G37*
G36*
G01*
X228450000Y-76256250D02*
X228450000Y-75343750D01*
G75*
G02*
X228693750Y-75100000I243750J0D01*
G01*
X229181250Y-75100000D01*
G75*
G02*
X229425000Y-75343750I0J-243750D01*
G01*
X229425000Y-76256250D01*
G75*
G02*
X229181250Y-76500000I-243750J0D01*
G01*
X228693750Y-76500000D01*
G75*
G02*
X228450000Y-76256250I0J243750D01*
G01*
G37*
%TD*%
%TO.C,R24*%
G36*
G01*
X228450000Y-74456250D02*
X228450000Y-73543750D01*
G75*
G02*
X228693750Y-73300000I243750J0D01*
G01*
X229181250Y-73300000D01*
G75*
G02*
X229425000Y-73543750I0J-243750D01*
G01*
X229425000Y-74456250D01*
G75*
G02*
X229181250Y-74700000I-243750J0D01*
G01*
X228693750Y-74700000D01*
G75*
G02*
X228450000Y-74456250I0J243750D01*
G01*
G37*
G36*
G01*
X226575000Y-74456250D02*
X226575000Y-73543750D01*
G75*
G02*
X226818750Y-73300000I243750J0D01*
G01*
X227306250Y-73300000D01*
G75*
G02*
X227550000Y-73543750I0J-243750D01*
G01*
X227550000Y-74456250D01*
G75*
G02*
X227306250Y-74700000I-243750J0D01*
G01*
X226818750Y-74700000D01*
G75*
G02*
X226575000Y-74456250I0J243750D01*
G01*
G37*
%TD*%
%TO.C,R25*%
G36*
G01*
X228450000Y-78056250D02*
X228450000Y-77143750D01*
G75*
G02*
X228693750Y-76900000I243750J0D01*
G01*
X229181250Y-76900000D01*
G75*
G02*
X229425000Y-77143750I0J-243750D01*
G01*
X229425000Y-78056250D01*
G75*
G02*
X229181250Y-78300000I-243750J0D01*
G01*
X228693750Y-78300000D01*
G75*
G02*
X228450000Y-78056250I0J243750D01*
G01*
G37*
G36*
G01*
X226575000Y-78056250D02*
X226575000Y-77143750D01*
G75*
G02*
X226818750Y-76900000I243750J0D01*
G01*
X227306250Y-76900000D01*
G75*
G02*
X227550000Y-77143750I0J-243750D01*
G01*
X227550000Y-78056250D01*
G75*
G02*
X227306250Y-78300000I-243750J0D01*
G01*
X226818750Y-78300000D01*
G75*
G02*
X226575000Y-78056250I0J243750D01*
G01*
G37*
%TD*%
%TO.C,R27*%
G36*
G01*
X205155000Y-94636250D02*
X205155000Y-93723750D01*
G75*
G02*
X205398750Y-93480000I243750J0D01*
G01*
X205886250Y-93480000D01*
G75*
G02*
X206130000Y-93723750I0J-243750D01*
G01*
X206130000Y-94636250D01*
G75*
G02*
X205886250Y-94880000I-243750J0D01*
G01*
X205398750Y-94880000D01*
G75*
G02*
X205155000Y-94636250I0J243750D01*
G01*
G37*
G36*
G01*
X207030000Y-94636250D02*
X207030000Y-93723750D01*
G75*
G02*
X207273750Y-93480000I243750J0D01*
G01*
X207761250Y-93480000D01*
G75*
G02*
X208005000Y-93723750I0J-243750D01*
G01*
X208005000Y-94636250D01*
G75*
G02*
X207761250Y-94880000I-243750J0D01*
G01*
X207273750Y-94880000D01*
G75*
G02*
X207030000Y-94636250I0J243750D01*
G01*
G37*
%TD*%
%TO.C,U12*%
G36*
G01*
X225620000Y-85255000D02*
X225620000Y-84955000D01*
G75*
G02*
X225770000Y-84805000I150000J0D01*
G01*
X227420000Y-84805000D01*
G75*
G02*
X227570000Y-84955000I0J-150000D01*
G01*
X227570000Y-85255000D01*
G75*
G02*
X227420000Y-85405000I-150000J0D01*
G01*
X225770000Y-85405000D01*
G75*
G02*
X225620000Y-85255000I0J150000D01*
G01*
G37*
G36*
G01*
X225620000Y-83985000D02*
X225620000Y-83685000D01*
G75*
G02*
X225770000Y-83535000I150000J0D01*
G01*
X227420000Y-83535000D01*
G75*
G02*
X227570000Y-83685000I0J-150000D01*
G01*
X227570000Y-83985000D01*
G75*
G02*
X227420000Y-84135000I-150000J0D01*
G01*
X225770000Y-84135000D01*
G75*
G02*
X225620000Y-83985000I0J150000D01*
G01*
G37*
G36*
G01*
X225620000Y-82715000D02*
X225620000Y-82415000D01*
G75*
G02*
X225770000Y-82265000I150000J0D01*
G01*
X227420000Y-82265000D01*
G75*
G02*
X227570000Y-82415000I0J-150000D01*
G01*
X227570000Y-82715000D01*
G75*
G02*
X227420000Y-82865000I-150000J0D01*
G01*
X225770000Y-82865000D01*
G75*
G02*
X225620000Y-82715000I0J150000D01*
G01*
G37*
G36*
G01*
X225620000Y-81445000D02*
X225620000Y-81145000D01*
G75*
G02*
X225770000Y-80995000I150000J0D01*
G01*
X227420000Y-80995000D01*
G75*
G02*
X227570000Y-81145000I0J-150000D01*
G01*
X227570000Y-81445000D01*
G75*
G02*
X227420000Y-81595000I-150000J0D01*
G01*
X225770000Y-81595000D01*
G75*
G02*
X225620000Y-81445000I0J150000D01*
G01*
G37*
G36*
G01*
X230570000Y-81445000D02*
X230570000Y-81145000D01*
G75*
G02*
X230720000Y-80995000I150000J0D01*
G01*
X232370000Y-80995000D01*
G75*
G02*
X232520000Y-81145000I0J-150000D01*
G01*
X232520000Y-81445000D01*
G75*
G02*
X232370000Y-81595000I-150000J0D01*
G01*
X230720000Y-81595000D01*
G75*
G02*
X230570000Y-81445000I0J150000D01*
G01*
G37*
G36*
G01*
X230570000Y-82715000D02*
X230570000Y-82415000D01*
G75*
G02*
X230720000Y-82265000I150000J0D01*
G01*
X232370000Y-82265000D01*
G75*
G02*
X232520000Y-82415000I0J-150000D01*
G01*
X232520000Y-82715000D01*
G75*
G02*
X232370000Y-82865000I-150000J0D01*
G01*
X230720000Y-82865000D01*
G75*
G02*
X230570000Y-82715000I0J150000D01*
G01*
G37*
G36*
G01*
X230570000Y-83985000D02*
X230570000Y-83685000D01*
G75*
G02*
X230720000Y-83535000I150000J0D01*
G01*
X232370000Y-83535000D01*
G75*
G02*
X232520000Y-83685000I0J-150000D01*
G01*
X232520000Y-83985000D01*
G75*
G02*
X232370000Y-84135000I-150000J0D01*
G01*
X230720000Y-84135000D01*
G75*
G02*
X230570000Y-83985000I0J150000D01*
G01*
G37*
G36*
G01*
X230570000Y-85255000D02*
X230570000Y-84955000D01*
G75*
G02*
X230720000Y-84805000I150000J0D01*
G01*
X232370000Y-84805000D01*
G75*
G02*
X232520000Y-84955000I0J-150000D01*
G01*
X232520000Y-85255000D01*
G75*
G02*
X232370000Y-85405000I-150000J0D01*
G01*
X230720000Y-85405000D01*
G75*
G02*
X230570000Y-85255000I0J150000D01*
G01*
G37*
%TD*%
%TO.C,U8*%
X222745000Y-75870000D03*
X222745000Y-76520000D03*
X222745000Y-77170000D03*
X222745000Y-77820000D03*
X222745000Y-78470000D03*
D13*
X222020000Y-79095000D03*
X221370000Y-79095000D03*
X220720000Y-79095000D03*
X220070000Y-79095000D03*
X219420000Y-79095000D03*
D14*
X218695000Y-78470000D03*
X218695000Y-77820000D03*
X218695000Y-77170000D03*
X218695000Y-76520000D03*
X218695000Y-75870000D03*
D13*
X219420000Y-75245000D03*
X220070000Y-75245000D03*
X220720000Y-75245000D03*
X221370000Y-75245000D03*
D10*
G36*
X222220000Y-74970000D02*
G01*
X222220000Y-75520000D01*
X221820000Y-75520000D01*
X221820000Y-74970000D01*
X222220000Y-74970000D01*
G37*
%TD*%
D14*
%TO.C,U10*%
X219275000Y-69120000D03*
X219275000Y-69770000D03*
X219275000Y-70420000D03*
X219275000Y-71070000D03*
X219275000Y-71720000D03*
D13*
X218550000Y-72345000D03*
X217900000Y-72345000D03*
X217250000Y-72345000D03*
X216600000Y-72345000D03*
X215950000Y-72345000D03*
D14*
X215225000Y-71720000D03*
X215225000Y-71070000D03*
X215225000Y-70420000D03*
X215225000Y-69770000D03*
X215225000Y-69120000D03*
D13*
X215950000Y-68495000D03*
X216600000Y-68495000D03*
X217250000Y-68495000D03*
X217900000Y-68495000D03*
D10*
G36*
X218750000Y-68220000D02*
G01*
X218750000Y-68770000D01*
X218350000Y-68770000D01*
X218350000Y-68220000D01*
X218750000Y-68220000D01*
G37*
%TD*%
%TO.C,C14*%
G36*
G01*
X217425000Y-82543750D02*
X217425000Y-83456250D01*
G75*
G02*
X217181250Y-83700000I-243750J0D01*
G01*
X216693750Y-83700000D01*
G75*
G02*
X216450000Y-83456250I0J243750D01*
G01*
X216450000Y-82543750D01*
G75*
G02*
X216693750Y-82300000I243750J0D01*
G01*
X217181250Y-82300000D01*
G75*
G02*
X217425000Y-82543750I0J-243750D01*
G01*
G37*
G36*
G01*
X215550000Y-82543750D02*
X215550000Y-83456250D01*
G75*
G02*
X215306250Y-83700000I-243750J0D01*
G01*
X214818750Y-83700000D01*
G75*
G02*
X214575000Y-83456250I0J243750D01*
G01*
X214575000Y-82543750D01*
G75*
G02*
X214818750Y-82300000I243750J0D01*
G01*
X215306250Y-82300000D01*
G75*
G02*
X215550000Y-82543750I0J-243750D01*
G01*
G37*
%TD*%
%TO.C,U6*%
G36*
G01*
X217300000Y-84612500D02*
X217300000Y-84787500D01*
G75*
G02*
X217212500Y-84875000I-87500J0D01*
G01*
X216837500Y-84875000D01*
G75*
G02*
X216750000Y-84787500I0J87500D01*
G01*
X216750000Y-84612500D01*
G75*
G02*
X216837500Y-84525000I87500J0D01*
G01*
X217212500Y-84525000D01*
G75*
G02*
X217300000Y-84612500I0J-87500D01*
G01*
G37*
G36*
G01*
X217300000Y-85612500D02*
X217300000Y-85787500D01*
G75*
G02*
X217212500Y-85875000I-87500J0D01*
G01*
X216837500Y-85875000D01*
G75*
G02*
X216750000Y-85787500I0J87500D01*
G01*
X216750000Y-85612500D01*
G75*
G02*
X216837500Y-85525000I87500J0D01*
G01*
X217212500Y-85525000D01*
G75*
G02*
X217300000Y-85612500I0J-87500D01*
G01*
G37*
G36*
G01*
X214700000Y-85787500D02*
X214700000Y-85612500D01*
G75*
G02*
X214787500Y-85525000I87500J0D01*
G01*
X215162500Y-85525000D01*
G75*
G02*
X215250000Y-85612500I0J-87500D01*
G01*
X215250000Y-85787500D01*
G75*
G02*
X215162500Y-85875000I-87500J0D01*
G01*
X214787500Y-85875000D01*
G75*
G02*
X214700000Y-85787500I0J87500D01*
G01*
G37*
G36*
G01*
X214700000Y-84787500D02*
X214700000Y-84612500D01*
G75*
G02*
X214787500Y-84525000I87500J0D01*
G01*
X215162500Y-84525000D01*
G75*
G02*
X215250000Y-84612500I0J-87500D01*
G01*
X215250000Y-84787500D01*
G75*
G02*
X215162500Y-84875000I-87500J0D01*
G01*
X214787500Y-84875000D01*
G75*
G02*
X214700000Y-84787500I0J87500D01*
G01*
G37*
G36*
G01*
X216250000Y-84625000D02*
X216250000Y-85775000D01*
G75*
G02*
X216125000Y-85900000I-125000J0D01*
G01*
X215875000Y-85900000D01*
G75*
G02*
X215750000Y-85775000I0J125000D01*
G01*
X215750000Y-84625000D01*
G75*
G02*
X215875000Y-84500000I125000J0D01*
G01*
X216125000Y-84500000D01*
G75*
G02*
X216250000Y-84625000I0J-125000D01*
G01*
G37*
%TD*%
M02*
