%TF.GenerationSoftware,KiCad,Pcbnew,5.1.6+dfsg1-1*%
%TF.CreationDate,2020-08-08T17:15:22+09:00*%
%TF.ProjectId,portable_spectro_sch,706f7274-6162-46c6-955f-737065637472,rev?*%
%TF.SameCoordinates,Original*%
%TF.FileFunction,Paste,Top*%
%TF.FilePolarity,Positive*%
%FSLAX46Y46*%
G04 Gerber Fmt 4.6, Leading zero omitted, Abs format (unit mm)*
G04 Created by KiCad (PCBNEW 5.1.6+dfsg1-1) date 2020-08-08 17:15:22*
%MOMM*%
%LPD*%
G01*
G04 APERTURE LIST*
%ADD10R,2.000000X1.500000*%
%ADD11R,2.000000X3.800000*%
%ADD12C,0.100000*%
%ADD13R,0.320000X0.700000*%
%ADD14R,0.600000X0.450000*%
%ADD15R,0.800000X0.900000*%
%ADD16R,1.060000X0.650000*%
%ADD17R,0.400000X0.650000*%
%ADD18R,1.450000X0.450000*%
%ADD19R,4.000000X1.500000*%
%ADD20R,5.000000X1.800000*%
%ADD21R,0.600000X0.700000*%
%ADD22R,0.900000X0.800000*%
G04 APERTURE END LIST*
%TO.C,U15*%
G36*
G01*
X232670000Y-95230000D02*
X232670000Y-94720000D01*
G75*
G02*
X232920000Y-94470000I250000J0D01*
G01*
X233430000Y-94470000D01*
G75*
G02*
X233680000Y-94720000I0J-250000D01*
G01*
X233680000Y-95230000D01*
G75*
G02*
X233430000Y-95480000I-250000J0D01*
G01*
X232920000Y-95480000D01*
G75*
G02*
X232670000Y-95230000I0J250000D01*
G01*
G37*
G36*
G01*
X232670000Y-96480000D02*
X232670000Y-95970000D01*
G75*
G02*
X232920000Y-95720000I250000J0D01*
G01*
X233430000Y-95720000D01*
G75*
G02*
X233680000Y-95970000I0J-250000D01*
G01*
X233680000Y-96480000D01*
G75*
G02*
X233430000Y-96730000I-250000J0D01*
G01*
X232920000Y-96730000D01*
G75*
G02*
X232670000Y-96480000I0J250000D01*
G01*
G37*
G36*
G01*
X233920000Y-95230000D02*
X233920000Y-94720000D01*
G75*
G02*
X234170000Y-94470000I250000J0D01*
G01*
X234680000Y-94470000D01*
G75*
G02*
X234930000Y-94720000I0J-250000D01*
G01*
X234930000Y-95230000D01*
G75*
G02*
X234680000Y-95480000I-250000J0D01*
G01*
X234170000Y-95480000D01*
G75*
G02*
X233920000Y-95230000I0J250000D01*
G01*
G37*
G36*
G01*
X233920000Y-96480000D02*
X233920000Y-95970000D01*
G75*
G02*
X234170000Y-95720000I250000J0D01*
G01*
X234680000Y-95720000D01*
G75*
G02*
X234930000Y-95970000I0J-250000D01*
G01*
X234930000Y-96480000D01*
G75*
G02*
X234680000Y-96730000I-250000J0D01*
G01*
X234170000Y-96730000D01*
G75*
G02*
X233920000Y-96480000I0J250000D01*
G01*
G37*
G36*
G01*
X231450000Y-94662500D02*
X231450000Y-94537500D01*
G75*
G02*
X231512500Y-94475000I62500J0D01*
G01*
X232212500Y-94475000D01*
G75*
G02*
X232275000Y-94537500I0J-62500D01*
G01*
X232275000Y-94662500D01*
G75*
G02*
X232212500Y-94725000I-62500J0D01*
G01*
X231512500Y-94725000D01*
G75*
G02*
X231450000Y-94662500I0J62500D01*
G01*
G37*
G36*
G01*
X231450000Y-95162500D02*
X231450000Y-95037500D01*
G75*
G02*
X231512500Y-94975000I62500J0D01*
G01*
X232212500Y-94975000D01*
G75*
G02*
X232275000Y-95037500I0J-62500D01*
G01*
X232275000Y-95162500D01*
G75*
G02*
X232212500Y-95225000I-62500J0D01*
G01*
X231512500Y-95225000D01*
G75*
G02*
X231450000Y-95162500I0J62500D01*
G01*
G37*
G36*
G01*
X231450000Y-95662500D02*
X231450000Y-95537500D01*
G75*
G02*
X231512500Y-95475000I62500J0D01*
G01*
X232212500Y-95475000D01*
G75*
G02*
X232275000Y-95537500I0J-62500D01*
G01*
X232275000Y-95662500D01*
G75*
G02*
X232212500Y-95725000I-62500J0D01*
G01*
X231512500Y-95725000D01*
G75*
G02*
X231450000Y-95662500I0J62500D01*
G01*
G37*
G36*
G01*
X231450000Y-96162500D02*
X231450000Y-96037500D01*
G75*
G02*
X231512500Y-95975000I62500J0D01*
G01*
X232212500Y-95975000D01*
G75*
G02*
X232275000Y-96037500I0J-62500D01*
G01*
X232275000Y-96162500D01*
G75*
G02*
X232212500Y-96225000I-62500J0D01*
G01*
X231512500Y-96225000D01*
G75*
G02*
X231450000Y-96162500I0J62500D01*
G01*
G37*
G36*
G01*
X231450000Y-96662500D02*
X231450000Y-96537500D01*
G75*
G02*
X231512500Y-96475000I62500J0D01*
G01*
X232212500Y-96475000D01*
G75*
G02*
X232275000Y-96537500I0J-62500D01*
G01*
X232275000Y-96662500D01*
G75*
G02*
X232212500Y-96725000I-62500J0D01*
G01*
X231512500Y-96725000D01*
G75*
G02*
X231450000Y-96662500I0J62500D01*
G01*
G37*
G36*
G01*
X232675000Y-97887500D02*
X232675000Y-97187500D01*
G75*
G02*
X232737500Y-97125000I62500J0D01*
G01*
X232862500Y-97125000D01*
G75*
G02*
X232925000Y-97187500I0J-62500D01*
G01*
X232925000Y-97887500D01*
G75*
G02*
X232862500Y-97950000I-62500J0D01*
G01*
X232737500Y-97950000D01*
G75*
G02*
X232675000Y-97887500I0J62500D01*
G01*
G37*
G36*
G01*
X233175000Y-97887500D02*
X233175000Y-97187500D01*
G75*
G02*
X233237500Y-97125000I62500J0D01*
G01*
X233362500Y-97125000D01*
G75*
G02*
X233425000Y-97187500I0J-62500D01*
G01*
X233425000Y-97887500D01*
G75*
G02*
X233362500Y-97950000I-62500J0D01*
G01*
X233237500Y-97950000D01*
G75*
G02*
X233175000Y-97887500I0J62500D01*
G01*
G37*
G36*
G01*
X233675000Y-97887500D02*
X233675000Y-97187500D01*
G75*
G02*
X233737500Y-97125000I62500J0D01*
G01*
X233862500Y-97125000D01*
G75*
G02*
X233925000Y-97187500I0J-62500D01*
G01*
X233925000Y-97887500D01*
G75*
G02*
X233862500Y-97950000I-62500J0D01*
G01*
X233737500Y-97950000D01*
G75*
G02*
X233675000Y-97887500I0J62500D01*
G01*
G37*
G36*
G01*
X234175000Y-97887500D02*
X234175000Y-97187500D01*
G75*
G02*
X234237500Y-97125000I62500J0D01*
G01*
X234362500Y-97125000D01*
G75*
G02*
X234425000Y-97187500I0J-62500D01*
G01*
X234425000Y-97887500D01*
G75*
G02*
X234362500Y-97950000I-62500J0D01*
G01*
X234237500Y-97950000D01*
G75*
G02*
X234175000Y-97887500I0J62500D01*
G01*
G37*
G36*
G01*
X234675000Y-97887500D02*
X234675000Y-97187500D01*
G75*
G02*
X234737500Y-97125000I62500J0D01*
G01*
X234862500Y-97125000D01*
G75*
G02*
X234925000Y-97187500I0J-62500D01*
G01*
X234925000Y-97887500D01*
G75*
G02*
X234862500Y-97950000I-62500J0D01*
G01*
X234737500Y-97950000D01*
G75*
G02*
X234675000Y-97887500I0J62500D01*
G01*
G37*
G36*
G01*
X235325000Y-96662500D02*
X235325000Y-96537500D01*
G75*
G02*
X235387500Y-96475000I62500J0D01*
G01*
X236087500Y-96475000D01*
G75*
G02*
X236150000Y-96537500I0J-62500D01*
G01*
X236150000Y-96662500D01*
G75*
G02*
X236087500Y-96725000I-62500J0D01*
G01*
X235387500Y-96725000D01*
G75*
G02*
X235325000Y-96662500I0J62500D01*
G01*
G37*
G36*
G01*
X235325000Y-96162500D02*
X235325000Y-96037500D01*
G75*
G02*
X235387500Y-95975000I62500J0D01*
G01*
X236087500Y-95975000D01*
G75*
G02*
X236150000Y-96037500I0J-62500D01*
G01*
X236150000Y-96162500D01*
G75*
G02*
X236087500Y-96225000I-62500J0D01*
G01*
X235387500Y-96225000D01*
G75*
G02*
X235325000Y-96162500I0J62500D01*
G01*
G37*
G36*
G01*
X235325000Y-95662500D02*
X235325000Y-95537500D01*
G75*
G02*
X235387500Y-95475000I62500J0D01*
G01*
X236087500Y-95475000D01*
G75*
G02*
X236150000Y-95537500I0J-62500D01*
G01*
X236150000Y-95662500D01*
G75*
G02*
X236087500Y-95725000I-62500J0D01*
G01*
X235387500Y-95725000D01*
G75*
G02*
X235325000Y-95662500I0J62500D01*
G01*
G37*
G36*
G01*
X235325000Y-95162500D02*
X235325000Y-95037500D01*
G75*
G02*
X235387500Y-94975000I62500J0D01*
G01*
X236087500Y-94975000D01*
G75*
G02*
X236150000Y-95037500I0J-62500D01*
G01*
X236150000Y-95162500D01*
G75*
G02*
X236087500Y-95225000I-62500J0D01*
G01*
X235387500Y-95225000D01*
G75*
G02*
X235325000Y-95162500I0J62500D01*
G01*
G37*
G36*
G01*
X235325000Y-94662500D02*
X235325000Y-94537500D01*
G75*
G02*
X235387500Y-94475000I62500J0D01*
G01*
X236087500Y-94475000D01*
G75*
G02*
X236150000Y-94537500I0J-62500D01*
G01*
X236150000Y-94662500D01*
G75*
G02*
X236087500Y-94725000I-62500J0D01*
G01*
X235387500Y-94725000D01*
G75*
G02*
X235325000Y-94662500I0J62500D01*
G01*
G37*
G36*
G01*
X234675000Y-94012500D02*
X234675000Y-93312500D01*
G75*
G02*
X234737500Y-93250000I62500J0D01*
G01*
X234862500Y-93250000D01*
G75*
G02*
X234925000Y-93312500I0J-62500D01*
G01*
X234925000Y-94012500D01*
G75*
G02*
X234862500Y-94075000I-62500J0D01*
G01*
X234737500Y-94075000D01*
G75*
G02*
X234675000Y-94012500I0J62500D01*
G01*
G37*
G36*
G01*
X234175000Y-94012500D02*
X234175000Y-93312500D01*
G75*
G02*
X234237500Y-93250000I62500J0D01*
G01*
X234362500Y-93250000D01*
G75*
G02*
X234425000Y-93312500I0J-62500D01*
G01*
X234425000Y-94012500D01*
G75*
G02*
X234362500Y-94075000I-62500J0D01*
G01*
X234237500Y-94075000D01*
G75*
G02*
X234175000Y-94012500I0J62500D01*
G01*
G37*
G36*
G01*
X233675000Y-94012500D02*
X233675000Y-93312500D01*
G75*
G02*
X233737500Y-93250000I62500J0D01*
G01*
X233862500Y-93250000D01*
G75*
G02*
X233925000Y-93312500I0J-62500D01*
G01*
X233925000Y-94012500D01*
G75*
G02*
X233862500Y-94075000I-62500J0D01*
G01*
X233737500Y-94075000D01*
G75*
G02*
X233675000Y-94012500I0J62500D01*
G01*
G37*
G36*
G01*
X233175000Y-94012500D02*
X233175000Y-93312500D01*
G75*
G02*
X233237500Y-93250000I62500J0D01*
G01*
X233362500Y-93250000D01*
G75*
G02*
X233425000Y-93312500I0J-62500D01*
G01*
X233425000Y-94012500D01*
G75*
G02*
X233362500Y-94075000I-62500J0D01*
G01*
X233237500Y-94075000D01*
G75*
G02*
X233175000Y-94012500I0J62500D01*
G01*
G37*
G36*
G01*
X232675000Y-94012500D02*
X232675000Y-93312500D01*
G75*
G02*
X232737500Y-93250000I62500J0D01*
G01*
X232862500Y-93250000D01*
G75*
G02*
X232925000Y-93312500I0J-62500D01*
G01*
X232925000Y-94012500D01*
G75*
G02*
X232862500Y-94075000I-62500J0D01*
G01*
X232737500Y-94075000D01*
G75*
G02*
X232675000Y-94012500I0J62500D01*
G01*
G37*
%TD*%
%TO.C,R31*%
G36*
G01*
X208856250Y-88150000D02*
X207943750Y-88150000D01*
G75*
G02*
X207700000Y-87906250I0J243750D01*
G01*
X207700000Y-87418750D01*
G75*
G02*
X207943750Y-87175000I243750J0D01*
G01*
X208856250Y-87175000D01*
G75*
G02*
X209100000Y-87418750I0J-243750D01*
G01*
X209100000Y-87906250D01*
G75*
G02*
X208856250Y-88150000I-243750J0D01*
G01*
G37*
G36*
G01*
X208856250Y-90025000D02*
X207943750Y-90025000D01*
G75*
G02*
X207700000Y-89781250I0J243750D01*
G01*
X207700000Y-89293750D01*
G75*
G02*
X207943750Y-89050000I243750J0D01*
G01*
X208856250Y-89050000D01*
G75*
G02*
X209100000Y-89293750I0J-243750D01*
G01*
X209100000Y-89781250D01*
G75*
G02*
X208856250Y-90025000I-243750J0D01*
G01*
G37*
%TD*%
%TO.C,C29*%
G36*
G01*
X205261177Y-72077610D02*
X204362540Y-72236064D01*
G75*
G02*
X204080166Y-72038344I-42327J240047D01*
G01*
X203995513Y-71558250D01*
G75*
G02*
X204193233Y-71275876I240047J42327D01*
G01*
X205091870Y-71117422D01*
G75*
G02*
X205374244Y-71315142I42327J-240047D01*
G01*
X205458897Y-71795236D01*
G75*
G02*
X205261177Y-72077610I-240047J-42327D01*
G01*
G37*
G36*
G01*
X205586767Y-73924124D02*
X204688130Y-74082578D01*
G75*
G02*
X204405756Y-73884858I-42327J240047D01*
G01*
X204321103Y-73404764D01*
G75*
G02*
X204518823Y-73122390I240047J42327D01*
G01*
X205417460Y-72963936D01*
G75*
G02*
X205699834Y-73161656I42327J-240047D01*
G01*
X205784487Y-73641750D01*
G75*
G02*
X205586767Y-73924124I-240047J-42327D01*
G01*
G37*
%TD*%
D10*
%TO.C,U13*%
X206450000Y-61700000D03*
X206450000Y-66300000D03*
X206450000Y-64000000D03*
D11*
X212750000Y-64000000D03*
%TD*%
D12*
%TO.C,BZ1*%
G36*
X201829184Y-49992884D02*
G01*
X200799108Y-48278550D01*
X203542044Y-46630428D01*
X204572120Y-48344762D01*
X201829184Y-49992884D01*
G37*
G36*
X208857956Y-45769572D02*
G01*
X207827880Y-44055238D01*
X210570816Y-42407116D01*
X211600892Y-44121450D01*
X208857956Y-45769572D01*
G37*
%TD*%
%TO.C,C30*%
G36*
G01*
X227075000Y-102175000D02*
X228325000Y-102175000D01*
G75*
G02*
X228575000Y-102425000I0J-250000D01*
G01*
X228575000Y-103175000D01*
G75*
G02*
X228325000Y-103425000I-250000J0D01*
G01*
X227075000Y-103425000D01*
G75*
G02*
X226825000Y-103175000I0J250000D01*
G01*
X226825000Y-102425000D01*
G75*
G02*
X227075000Y-102175000I250000J0D01*
G01*
G37*
G36*
G01*
X227075000Y-99375000D02*
X228325000Y-99375000D01*
G75*
G02*
X228575000Y-99625000I0J-250000D01*
G01*
X228575000Y-100375000D01*
G75*
G02*
X228325000Y-100625000I-250000J0D01*
G01*
X227075000Y-100625000D01*
G75*
G02*
X226825000Y-100375000I0J250000D01*
G01*
X226825000Y-99625000D01*
G75*
G02*
X227075000Y-99375000I250000J0D01*
G01*
G37*
%TD*%
%TO.C,D16*%
G36*
G01*
X237829876Y-103617837D02*
X238620124Y-103161586D01*
G75*
G02*
X238953093Y-103250805I121875J-211094D01*
G01*
X239196843Y-103672993D01*
G75*
G02*
X239107624Y-104005962I-211094J-121875D01*
G01*
X238317376Y-104462212D01*
G75*
G02*
X237984407Y-104372993I-121875J211094D01*
G01*
X237740657Y-103950805D01*
G75*
G02*
X237829876Y-103617836I211094J121875D01*
G01*
G37*
G36*
G01*
X236892376Y-101994039D02*
X237682624Y-101537788D01*
G75*
G02*
X238015593Y-101627007I121875J-211094D01*
G01*
X238259343Y-102049195D01*
G75*
G02*
X238170124Y-102382164I-211094J-121875D01*
G01*
X237379876Y-102838414D01*
G75*
G02*
X237046907Y-102749195I-121875J211094D01*
G01*
X236803157Y-102327007D01*
G75*
G02*
X236892376Y-101994038I211094J121875D01*
G01*
G37*
%TD*%
D13*
%TO.C,J4*%
X217960000Y-101850000D03*
X218460000Y-101850000D03*
X218960000Y-101850000D03*
X219460000Y-101850000D03*
X219960000Y-101850000D03*
X220460000Y-101850000D03*
X220960000Y-101850000D03*
X221460000Y-101850000D03*
X221960000Y-101850000D03*
X222460000Y-101850000D03*
X222960000Y-101850000D03*
X223460000Y-101850000D03*
%TD*%
%TO.C,C1*%
G36*
G01*
X225343750Y-59050000D02*
X226256250Y-59050000D01*
G75*
G02*
X226500000Y-59293750I0J-243750D01*
G01*
X226500000Y-59781250D01*
G75*
G02*
X226256250Y-60025000I-243750J0D01*
G01*
X225343750Y-60025000D01*
G75*
G02*
X225100000Y-59781250I0J243750D01*
G01*
X225100000Y-59293750D01*
G75*
G02*
X225343750Y-59050000I243750J0D01*
G01*
G37*
G36*
G01*
X225343750Y-57175000D02*
X226256250Y-57175000D01*
G75*
G02*
X226500000Y-57418750I0J-243750D01*
G01*
X226500000Y-57906250D01*
G75*
G02*
X226256250Y-58150000I-243750J0D01*
G01*
X225343750Y-58150000D01*
G75*
G02*
X225100000Y-57906250I0J243750D01*
G01*
X225100000Y-57418750D01*
G75*
G02*
X225343750Y-57175000I243750J0D01*
G01*
G37*
%TD*%
%TO.C,C2*%
G36*
G01*
X223225000Y-44143750D02*
X223225000Y-45056250D01*
G75*
G02*
X222981250Y-45300000I-243750J0D01*
G01*
X222493750Y-45300000D01*
G75*
G02*
X222250000Y-45056250I0J243750D01*
G01*
X222250000Y-44143750D01*
G75*
G02*
X222493750Y-43900000I243750J0D01*
G01*
X222981250Y-43900000D01*
G75*
G02*
X223225000Y-44143750I0J-243750D01*
G01*
G37*
G36*
G01*
X221350000Y-44143750D02*
X221350000Y-45056250D01*
G75*
G02*
X221106250Y-45300000I-243750J0D01*
G01*
X220618750Y-45300000D01*
G75*
G02*
X220375000Y-45056250I0J243750D01*
G01*
X220375000Y-44143750D01*
G75*
G02*
X220618750Y-43900000I243750J0D01*
G01*
X221106250Y-43900000D01*
G75*
G02*
X221350000Y-44143750I0J-243750D01*
G01*
G37*
%TD*%
%TO.C,C3*%
G36*
G01*
X226543750Y-63575000D02*
X227456250Y-63575000D01*
G75*
G02*
X227700000Y-63818750I0J-243750D01*
G01*
X227700000Y-64306250D01*
G75*
G02*
X227456250Y-64550000I-243750J0D01*
G01*
X226543750Y-64550000D01*
G75*
G02*
X226300000Y-64306250I0J243750D01*
G01*
X226300000Y-63818750D01*
G75*
G02*
X226543750Y-63575000I243750J0D01*
G01*
G37*
G36*
G01*
X226543750Y-65450000D02*
X227456250Y-65450000D01*
G75*
G02*
X227700000Y-65693750I0J-243750D01*
G01*
X227700000Y-66181250D01*
G75*
G02*
X227456250Y-66425000I-243750J0D01*
G01*
X226543750Y-66425000D01*
G75*
G02*
X226300000Y-66181250I0J243750D01*
G01*
X226300000Y-65693750D01*
G75*
G02*
X226543750Y-65450000I243750J0D01*
G01*
G37*
%TD*%
%TO.C,C4*%
G36*
G01*
X228775000Y-66375000D02*
X230025000Y-66375000D01*
G75*
G02*
X230275000Y-66625000I0J-250000D01*
G01*
X230275000Y-67375000D01*
G75*
G02*
X230025000Y-67625000I-250000J0D01*
G01*
X228775000Y-67625000D01*
G75*
G02*
X228525000Y-67375000I0J250000D01*
G01*
X228525000Y-66625000D01*
G75*
G02*
X228775000Y-66375000I250000J0D01*
G01*
G37*
G36*
G01*
X228775000Y-63575000D02*
X230025000Y-63575000D01*
G75*
G02*
X230275000Y-63825000I0J-250000D01*
G01*
X230275000Y-64575000D01*
G75*
G02*
X230025000Y-64825000I-250000J0D01*
G01*
X228775000Y-64825000D01*
G75*
G02*
X228525000Y-64575000I0J250000D01*
G01*
X228525000Y-63825000D01*
G75*
G02*
X228775000Y-63575000I250000J0D01*
G01*
G37*
%TD*%
%TO.C,C5*%
G36*
G01*
X227456250Y-76425000D02*
X226543750Y-76425000D01*
G75*
G02*
X226300000Y-76181250I0J243750D01*
G01*
X226300000Y-75693750D01*
G75*
G02*
X226543750Y-75450000I243750J0D01*
G01*
X227456250Y-75450000D01*
G75*
G02*
X227700000Y-75693750I0J-243750D01*
G01*
X227700000Y-76181250D01*
G75*
G02*
X227456250Y-76425000I-243750J0D01*
G01*
G37*
G36*
G01*
X227456250Y-74550000D02*
X226543750Y-74550000D01*
G75*
G02*
X226300000Y-74306250I0J243750D01*
G01*
X226300000Y-73818750D01*
G75*
G02*
X226543750Y-73575000I243750J0D01*
G01*
X227456250Y-73575000D01*
G75*
G02*
X227700000Y-73818750I0J-243750D01*
G01*
X227700000Y-74306250D01*
G75*
G02*
X227456250Y-74550000I-243750J0D01*
G01*
G37*
%TD*%
%TO.C,C6*%
G36*
G01*
X247425000Y-78575000D02*
X247425000Y-79825000D01*
G75*
G02*
X247175000Y-80075000I-250000J0D01*
G01*
X246425000Y-80075000D01*
G75*
G02*
X246175000Y-79825000I0J250000D01*
G01*
X246175000Y-78575000D01*
G75*
G02*
X246425000Y-78325000I250000J0D01*
G01*
X247175000Y-78325000D01*
G75*
G02*
X247425000Y-78575000I0J-250000D01*
G01*
G37*
G36*
G01*
X244625000Y-78575000D02*
X244625000Y-79825000D01*
G75*
G02*
X244375000Y-80075000I-250000J0D01*
G01*
X243625000Y-80075000D01*
G75*
G02*
X243375000Y-79825000I0J250000D01*
G01*
X243375000Y-78575000D01*
G75*
G02*
X243625000Y-78325000I250000J0D01*
G01*
X244375000Y-78325000D01*
G75*
G02*
X244625000Y-78575000I0J-250000D01*
G01*
G37*
%TD*%
%TO.C,C7*%
G36*
G01*
X243650000Y-71656250D02*
X243650000Y-70743750D01*
G75*
G02*
X243893750Y-70500000I243750J0D01*
G01*
X244381250Y-70500000D01*
G75*
G02*
X244625000Y-70743750I0J-243750D01*
G01*
X244625000Y-71656250D01*
G75*
G02*
X244381250Y-71900000I-243750J0D01*
G01*
X243893750Y-71900000D01*
G75*
G02*
X243650000Y-71656250I0J243750D01*
G01*
G37*
G36*
G01*
X241775000Y-71656250D02*
X241775000Y-70743750D01*
G75*
G02*
X242018750Y-70500000I243750J0D01*
G01*
X242506250Y-70500000D01*
G75*
G02*
X242750000Y-70743750I0J-243750D01*
G01*
X242750000Y-71656250D01*
G75*
G02*
X242506250Y-71900000I-243750J0D01*
G01*
X242018750Y-71900000D01*
G75*
G02*
X241775000Y-71656250I0J243750D01*
G01*
G37*
%TD*%
%TO.C,C8*%
G36*
G01*
X217350000Y-44143750D02*
X217350000Y-45056250D01*
G75*
G02*
X217106250Y-45300000I-243750J0D01*
G01*
X216618750Y-45300000D01*
G75*
G02*
X216375000Y-45056250I0J243750D01*
G01*
X216375000Y-44143750D01*
G75*
G02*
X216618750Y-43900000I243750J0D01*
G01*
X217106250Y-43900000D01*
G75*
G02*
X217350000Y-44143750I0J-243750D01*
G01*
G37*
G36*
G01*
X219225000Y-44143750D02*
X219225000Y-45056250D01*
G75*
G02*
X218981250Y-45300000I-243750J0D01*
G01*
X218493750Y-45300000D01*
G75*
G02*
X218250000Y-45056250I0J243750D01*
G01*
X218250000Y-44143750D01*
G75*
G02*
X218493750Y-43900000I243750J0D01*
G01*
X218981250Y-43900000D01*
G75*
G02*
X219225000Y-44143750I0J-243750D01*
G01*
G37*
%TD*%
%TO.C,C9*%
G36*
G01*
X220100000Y-49050000D02*
X220100000Y-50150000D01*
G75*
G02*
X219850000Y-50400000I-250000J0D01*
G01*
X217350000Y-50400000D01*
G75*
G02*
X217100000Y-50150000I0J250000D01*
G01*
X217100000Y-49050000D01*
G75*
G02*
X217350000Y-48800000I250000J0D01*
G01*
X219850000Y-48800000D01*
G75*
G02*
X220100000Y-49050000I0J-250000D01*
G01*
G37*
G36*
G01*
X224500000Y-49050000D02*
X224500000Y-50150000D01*
G75*
G02*
X224250000Y-50400000I-250000J0D01*
G01*
X221750000Y-50400000D01*
G75*
G02*
X221500000Y-50150000I0J250000D01*
G01*
X221500000Y-49050000D01*
G75*
G02*
X221750000Y-48800000I250000J0D01*
G01*
X224250000Y-48800000D01*
G75*
G02*
X224500000Y-49050000I0J-250000D01*
G01*
G37*
%TD*%
%TO.C,C10*%
G36*
G01*
X228225000Y-52775000D02*
X228225000Y-54025000D01*
G75*
G02*
X227975000Y-54275000I-250000J0D01*
G01*
X227225000Y-54275000D01*
G75*
G02*
X226975000Y-54025000I0J250000D01*
G01*
X226975000Y-52775000D01*
G75*
G02*
X227225000Y-52525000I250000J0D01*
G01*
X227975000Y-52525000D01*
G75*
G02*
X228225000Y-52775000I0J-250000D01*
G01*
G37*
G36*
G01*
X231025000Y-52775000D02*
X231025000Y-54025000D01*
G75*
G02*
X230775000Y-54275000I-250000J0D01*
G01*
X230025000Y-54275000D01*
G75*
G02*
X229775000Y-54025000I0J250000D01*
G01*
X229775000Y-52775000D01*
G75*
G02*
X230025000Y-52525000I250000J0D01*
G01*
X230775000Y-52525000D01*
G75*
G02*
X231025000Y-52775000I0J-250000D01*
G01*
G37*
%TD*%
%TO.C,C11*%
G36*
G01*
X217850000Y-57656250D02*
X217850000Y-56743750D01*
G75*
G02*
X218093750Y-56500000I243750J0D01*
G01*
X218581250Y-56500000D01*
G75*
G02*
X218825000Y-56743750I0J-243750D01*
G01*
X218825000Y-57656250D01*
G75*
G02*
X218581250Y-57900000I-243750J0D01*
G01*
X218093750Y-57900000D01*
G75*
G02*
X217850000Y-57656250I0J243750D01*
G01*
G37*
G36*
G01*
X215975000Y-57656250D02*
X215975000Y-56743750D01*
G75*
G02*
X216218750Y-56500000I243750J0D01*
G01*
X216706250Y-56500000D01*
G75*
G02*
X216950000Y-56743750I0J-243750D01*
G01*
X216950000Y-57656250D01*
G75*
G02*
X216706250Y-57900000I-243750J0D01*
G01*
X216218750Y-57900000D01*
G75*
G02*
X215975000Y-57656250I0J243750D01*
G01*
G37*
%TD*%
%TO.C,C12*%
G36*
G01*
X224543750Y-41650000D02*
X225456250Y-41650000D01*
G75*
G02*
X225700000Y-41893750I0J-243750D01*
G01*
X225700000Y-42381250D01*
G75*
G02*
X225456250Y-42625000I-243750J0D01*
G01*
X224543750Y-42625000D01*
G75*
G02*
X224300000Y-42381250I0J243750D01*
G01*
X224300000Y-41893750D01*
G75*
G02*
X224543750Y-41650000I243750J0D01*
G01*
G37*
G36*
G01*
X224543750Y-39775000D02*
X225456250Y-39775000D01*
G75*
G02*
X225700000Y-40018750I0J-243750D01*
G01*
X225700000Y-40506250D01*
G75*
G02*
X225456250Y-40750000I-243750J0D01*
G01*
X224543750Y-40750000D01*
G75*
G02*
X224300000Y-40506250I0J243750D01*
G01*
X224300000Y-40018750D01*
G75*
G02*
X224543750Y-39775000I243750J0D01*
G01*
G37*
%TD*%
%TO.C,C13*%
G36*
G01*
X231656250Y-47625000D02*
X230743750Y-47625000D01*
G75*
G02*
X230500000Y-47381250I0J243750D01*
G01*
X230500000Y-46893750D01*
G75*
G02*
X230743750Y-46650000I243750J0D01*
G01*
X231656250Y-46650000D01*
G75*
G02*
X231900000Y-46893750I0J-243750D01*
G01*
X231900000Y-47381250D01*
G75*
G02*
X231656250Y-47625000I-243750J0D01*
G01*
G37*
G36*
G01*
X231656250Y-45750000D02*
X230743750Y-45750000D01*
G75*
G02*
X230500000Y-45506250I0J243750D01*
G01*
X230500000Y-45018750D01*
G75*
G02*
X230743750Y-44775000I243750J0D01*
G01*
X231656250Y-44775000D01*
G75*
G02*
X231900000Y-45018750I0J-243750D01*
G01*
X231900000Y-45506250D01*
G75*
G02*
X231656250Y-45750000I-243750J0D01*
G01*
G37*
%TD*%
%TO.C,C15*%
G36*
G01*
X206724124Y-77703233D02*
X206882578Y-78601870D01*
G75*
G02*
X206684858Y-78884244I-240047J-42327D01*
G01*
X206204764Y-78968897D01*
G75*
G02*
X205922390Y-78771177I-42327J240047D01*
G01*
X205763936Y-77872540D01*
G75*
G02*
X205961656Y-77590166I240047J42327D01*
G01*
X206441750Y-77505513D01*
G75*
G02*
X206724124Y-77703233I42327J-240047D01*
G01*
G37*
G36*
G01*
X204877610Y-78028823D02*
X205036064Y-78927460D01*
G75*
G02*
X204838344Y-79209834I-240047J-42327D01*
G01*
X204358250Y-79294487D01*
G75*
G02*
X204075876Y-79096767I-42327J240047D01*
G01*
X203917422Y-78198130D01*
G75*
G02*
X204115142Y-77915756I240047J42327D01*
G01*
X204595236Y-77831103D01*
G75*
G02*
X204877610Y-78028823I42327J-240047D01*
G01*
G37*
%TD*%
%TO.C,C16*%
G36*
G01*
X204477610Y-76028823D02*
X204636064Y-76927460D01*
G75*
G02*
X204438344Y-77209834I-240047J-42327D01*
G01*
X203958250Y-77294487D01*
G75*
G02*
X203675876Y-77096767I-42327J240047D01*
G01*
X203517422Y-76198130D01*
G75*
G02*
X203715142Y-75915756I240047J42327D01*
G01*
X204195236Y-75831103D01*
G75*
G02*
X204477610Y-76028823I42327J-240047D01*
G01*
G37*
G36*
G01*
X206324124Y-75703233D02*
X206482578Y-76601870D01*
G75*
G02*
X206284858Y-76884244I-240047J-42327D01*
G01*
X205804764Y-76968897D01*
G75*
G02*
X205522390Y-76771177I-42327J240047D01*
G01*
X205363936Y-75872540D01*
G75*
G02*
X205561656Y-75590166I240047J42327D01*
G01*
X206041750Y-75505513D01*
G75*
G02*
X206324124Y-75703233I42327J-240047D01*
G01*
G37*
%TD*%
%TO.C,C23*%
G36*
G01*
X206270000Y-98193750D02*
X206270000Y-99106250D01*
G75*
G02*
X206026250Y-99350000I-243750J0D01*
G01*
X205538750Y-99350000D01*
G75*
G02*
X205295000Y-99106250I0J243750D01*
G01*
X205295000Y-98193750D01*
G75*
G02*
X205538750Y-97950000I243750J0D01*
G01*
X206026250Y-97950000D01*
G75*
G02*
X206270000Y-98193750I0J-243750D01*
G01*
G37*
G36*
G01*
X208145000Y-98193750D02*
X208145000Y-99106250D01*
G75*
G02*
X207901250Y-99350000I-243750J0D01*
G01*
X207413750Y-99350000D01*
G75*
G02*
X207170000Y-99106250I0J243750D01*
G01*
X207170000Y-98193750D01*
G75*
G02*
X207413750Y-97950000I243750J0D01*
G01*
X207901250Y-97950000D01*
G75*
G02*
X208145000Y-98193750I0J-243750D01*
G01*
G37*
%TD*%
%TO.C,C24*%
G36*
G01*
X218056250Y-91225000D02*
X217143750Y-91225000D01*
G75*
G02*
X216900000Y-90981250I0J243750D01*
G01*
X216900000Y-90493750D01*
G75*
G02*
X217143750Y-90250000I243750J0D01*
G01*
X218056250Y-90250000D01*
G75*
G02*
X218300000Y-90493750I0J-243750D01*
G01*
X218300000Y-90981250D01*
G75*
G02*
X218056250Y-91225000I-243750J0D01*
G01*
G37*
G36*
G01*
X218056250Y-89350000D02*
X217143750Y-89350000D01*
G75*
G02*
X216900000Y-89106250I0J243750D01*
G01*
X216900000Y-88618750D01*
G75*
G02*
X217143750Y-88375000I243750J0D01*
G01*
X218056250Y-88375000D01*
G75*
G02*
X218300000Y-88618750I0J-243750D01*
G01*
X218300000Y-89106250D01*
G75*
G02*
X218056250Y-89350000I-243750J0D01*
G01*
G37*
%TD*%
%TO.C,C27*%
G36*
G01*
X203817142Y-74865706D02*
X202586132Y-75082766D01*
G75*
G02*
X202296518Y-74879976I-43412J246202D01*
G01*
X202166282Y-74141370D01*
G75*
G02*
X202369072Y-73851756I246202J43412D01*
G01*
X203600082Y-73634696D01*
G75*
G02*
X203889696Y-73837486I43412J-246202D01*
G01*
X204019932Y-74576092D01*
G75*
G02*
X203817142Y-74865706I-246202J-43412D01*
G01*
G37*
G36*
G01*
X203330928Y-72108244D02*
X202099918Y-72325304D01*
G75*
G02*
X201810304Y-72122514I-43412J246202D01*
G01*
X201680068Y-71383908D01*
G75*
G02*
X201882858Y-71094294I246202J43412D01*
G01*
X203113868Y-70877234D01*
G75*
G02*
X203403482Y-71080024I43412J-246202D01*
G01*
X203533718Y-71818630D01*
G75*
G02*
X203330928Y-72108244I-246202J-43412D01*
G01*
G37*
%TD*%
%TO.C,C28*%
G36*
G01*
X201120928Y-72498244D02*
X199889918Y-72715304D01*
G75*
G02*
X199600304Y-72512514I-43412J246202D01*
G01*
X199470068Y-71773908D01*
G75*
G02*
X199672858Y-71484294I246202J43412D01*
G01*
X200903868Y-71267234D01*
G75*
G02*
X201193482Y-71470024I43412J-246202D01*
G01*
X201323718Y-72208630D01*
G75*
G02*
X201120928Y-72498244I-246202J-43412D01*
G01*
G37*
G36*
G01*
X201607142Y-75255706D02*
X200376132Y-75472766D01*
G75*
G02*
X200086518Y-75269976I-43412J246202D01*
G01*
X199956282Y-74531370D01*
G75*
G02*
X200159072Y-74241756I246202J43412D01*
G01*
X201390082Y-74024696D01*
G75*
G02*
X201679696Y-74227486I43412J-246202D01*
G01*
X201809932Y-74966092D01*
G75*
G02*
X201607142Y-75255706I-246202J-43412D01*
G01*
G37*
%TD*%
%TO.C,C31*%
G36*
G01*
X233343750Y-90810000D02*
X234256250Y-90810000D01*
G75*
G02*
X234500000Y-91053750I0J-243750D01*
G01*
X234500000Y-91541250D01*
G75*
G02*
X234256250Y-91785000I-243750J0D01*
G01*
X233343750Y-91785000D01*
G75*
G02*
X233100000Y-91541250I0J243750D01*
G01*
X233100000Y-91053750D01*
G75*
G02*
X233343750Y-90810000I243750J0D01*
G01*
G37*
G36*
G01*
X233343750Y-88935000D02*
X234256250Y-88935000D01*
G75*
G02*
X234500000Y-89178750I0J-243750D01*
G01*
X234500000Y-89666250D01*
G75*
G02*
X234256250Y-89910000I-243750J0D01*
G01*
X233343750Y-89910000D01*
G75*
G02*
X233100000Y-89666250I0J243750D01*
G01*
X233100000Y-89178750D01*
G75*
G02*
X233343750Y-88935000I243750J0D01*
G01*
G37*
%TD*%
%TO.C,C32*%
G36*
G01*
X232225000Y-89165000D02*
X230975000Y-89165000D01*
G75*
G02*
X230725000Y-88915000I0J250000D01*
G01*
X230725000Y-88165000D01*
G75*
G02*
X230975000Y-87915000I250000J0D01*
G01*
X232225000Y-87915000D01*
G75*
G02*
X232475000Y-88165000I0J-250000D01*
G01*
X232475000Y-88915000D01*
G75*
G02*
X232225000Y-89165000I-250000J0D01*
G01*
G37*
G36*
G01*
X232225000Y-91965000D02*
X230975000Y-91965000D01*
G75*
G02*
X230725000Y-91715000I0J250000D01*
G01*
X230725000Y-90965000D01*
G75*
G02*
X230975000Y-90715000I250000J0D01*
G01*
X232225000Y-90715000D01*
G75*
G02*
X232475000Y-90965000I0J-250000D01*
G01*
X232475000Y-91715000D01*
G75*
G02*
X232225000Y-91965000I-250000J0D01*
G01*
G37*
%TD*%
%TO.C,C33*%
G36*
G01*
X210575000Y-68975000D02*
X211825000Y-68975000D01*
G75*
G02*
X212075000Y-69225000I0J-250000D01*
G01*
X212075000Y-69975000D01*
G75*
G02*
X211825000Y-70225000I-250000J0D01*
G01*
X210575000Y-70225000D01*
G75*
G02*
X210325000Y-69975000I0J250000D01*
G01*
X210325000Y-69225000D01*
G75*
G02*
X210575000Y-68975000I250000J0D01*
G01*
G37*
G36*
G01*
X210575000Y-71775000D02*
X211825000Y-71775000D01*
G75*
G02*
X212075000Y-72025000I0J-250000D01*
G01*
X212075000Y-72775000D01*
G75*
G02*
X211825000Y-73025000I-250000J0D01*
G01*
X210575000Y-73025000D01*
G75*
G02*
X210325000Y-72775000I0J250000D01*
G01*
X210325000Y-72025000D01*
G75*
G02*
X210575000Y-71775000I250000J0D01*
G01*
G37*
%TD*%
%TO.C,C35*%
G36*
G01*
X211950000Y-48743750D02*
X211950000Y-49656250D01*
G75*
G02*
X211706250Y-49900000I-243750J0D01*
G01*
X211218750Y-49900000D01*
G75*
G02*
X210975000Y-49656250I0J243750D01*
G01*
X210975000Y-48743750D01*
G75*
G02*
X211218750Y-48500000I243750J0D01*
G01*
X211706250Y-48500000D01*
G75*
G02*
X211950000Y-48743750I0J-243750D01*
G01*
G37*
G36*
G01*
X213825000Y-48743750D02*
X213825000Y-49656250D01*
G75*
G02*
X213581250Y-49900000I-243750J0D01*
G01*
X213093750Y-49900000D01*
G75*
G02*
X212850000Y-49656250I0J243750D01*
G01*
X212850000Y-48743750D01*
G75*
G02*
X213093750Y-48500000I243750J0D01*
G01*
X213581250Y-48500000D01*
G75*
G02*
X213825000Y-48743750I0J-243750D01*
G01*
G37*
%TD*%
%TO.C,C36*%
G36*
G01*
X240025000Y-47743750D02*
X240025000Y-48656250D01*
G75*
G02*
X239781250Y-48900000I-243750J0D01*
G01*
X239293750Y-48900000D01*
G75*
G02*
X239050000Y-48656250I0J243750D01*
G01*
X239050000Y-47743750D01*
G75*
G02*
X239293750Y-47500000I243750J0D01*
G01*
X239781250Y-47500000D01*
G75*
G02*
X240025000Y-47743750I0J-243750D01*
G01*
G37*
G36*
G01*
X238150000Y-47743750D02*
X238150000Y-48656250D01*
G75*
G02*
X237906250Y-48900000I-243750J0D01*
G01*
X237418750Y-48900000D01*
G75*
G02*
X237175000Y-48656250I0J243750D01*
G01*
X237175000Y-47743750D01*
G75*
G02*
X237418750Y-47500000I243750J0D01*
G01*
X237906250Y-47500000D01*
G75*
G02*
X238150000Y-47743750I0J-243750D01*
G01*
G37*
%TD*%
%TO.C,C37*%
G36*
G01*
X235650000Y-53550000D02*
X235650000Y-52450000D01*
G75*
G02*
X235900000Y-52200000I250000J0D01*
G01*
X238900000Y-52200000D01*
G75*
G02*
X239150000Y-52450000I0J-250000D01*
G01*
X239150000Y-53550000D01*
G75*
G02*
X238900000Y-53800000I-250000J0D01*
G01*
X235900000Y-53800000D01*
G75*
G02*
X235650000Y-53550000I0J250000D01*
G01*
G37*
G36*
G01*
X241250000Y-53550000D02*
X241250000Y-52450000D01*
G75*
G02*
X241500000Y-52200000I250000J0D01*
G01*
X244500000Y-52200000D01*
G75*
G02*
X244750000Y-52450000I0J-250000D01*
G01*
X244750000Y-53550000D01*
G75*
G02*
X244500000Y-53800000I-250000J0D01*
G01*
X241500000Y-53800000D01*
G75*
G02*
X241250000Y-53550000I0J250000D01*
G01*
G37*
%TD*%
D14*
%TO.C,D1*%
X242150000Y-73200000D03*
X244250000Y-73200000D03*
%TD*%
%TO.C,D12*%
G36*
G01*
X192590313Y-92785629D02*
X192066924Y-92038152D01*
G75*
G02*
X192126783Y-91698675I199668J139809D01*
G01*
X192526120Y-91419057D01*
G75*
G02*
X192865597Y-91478916I139809J-199668D01*
G01*
X193388986Y-92226392D01*
G75*
G02*
X193329127Y-92565869I-199668J-139809D01*
G01*
X192929790Y-92845487D01*
G75*
G02*
X192590313Y-92785628I-139809J199668D01*
G01*
G37*
G36*
G01*
X191054403Y-93861085D02*
X190531014Y-93113608D01*
G75*
G02*
X190590873Y-92774131I199668J139809D01*
G01*
X190990210Y-92494513D01*
G75*
G02*
X191329687Y-92554372I139809J-199668D01*
G01*
X191853076Y-93301848D01*
G75*
G02*
X191793217Y-93641325I-199668J-139809D01*
G01*
X191393880Y-93920943D01*
G75*
G02*
X191054403Y-93861084I-139809J199668D01*
G01*
G37*
%TD*%
%TO.C,D13*%
G36*
G01*
X245495010Y-45009755D02*
X246140245Y-45654990D01*
G75*
G02*
X246140245Y-45999704I-172357J-172357D01*
G01*
X245795530Y-46344419D01*
G75*
G02*
X245450816Y-46344419I-172357J172357D01*
G01*
X244805581Y-45699184D01*
G75*
G02*
X244805581Y-45354470I172357J172357D01*
G01*
X245150296Y-45009755D01*
G75*
G02*
X245495010Y-45009755I172357J-172357D01*
G01*
G37*
G36*
G01*
X244169184Y-46335581D02*
X244814419Y-46980816D01*
G75*
G02*
X244814419Y-47325530I-172357J-172357D01*
G01*
X244469704Y-47670245D01*
G75*
G02*
X244124990Y-47670245I-172357J172357D01*
G01*
X243479755Y-47025010D01*
G75*
G02*
X243479755Y-46680296I172357J172357D01*
G01*
X243824470Y-46335581D01*
G75*
G02*
X244169184Y-46335581I172357J-172357D01*
G01*
G37*
%TD*%
%TO.C,D14*%
G36*
G01*
X250385597Y-50478915D02*
X250908986Y-51226392D01*
G75*
G02*
X250849127Y-51565869I-199668J-139809D01*
G01*
X250449790Y-51845487D01*
G75*
G02*
X250110313Y-51785628I-139809J199668D01*
G01*
X249586924Y-51038152D01*
G75*
G02*
X249646783Y-50698675I199668J139809D01*
G01*
X250046120Y-50419057D01*
G75*
G02*
X250385597Y-50478916I139809J-199668D01*
G01*
G37*
G36*
G01*
X248849687Y-51554371D02*
X249373076Y-52301848D01*
G75*
G02*
X249313217Y-52641325I-199668J-139809D01*
G01*
X248913880Y-52920943D01*
G75*
G02*
X248574403Y-52861084I-139809J199668D01*
G01*
X248051014Y-52113608D01*
G75*
G02*
X248110873Y-51774131I199668J139809D01*
G01*
X248510210Y-51494513D01*
G75*
G02*
X248849687Y-51554372I139809J-199668D01*
G01*
G37*
%TD*%
%TO.C,D15*%
G36*
G01*
X231113886Y-104436985D02*
X231971356Y-104124891D01*
G75*
G02*
X232283773Y-104270574I83367J-229050D01*
G01*
X232450508Y-104728674D01*
G75*
G02*
X232304825Y-105041091I-229050J-83367D01*
G01*
X231447356Y-105353185D01*
G75*
G02*
X231134939Y-105207502I-83367J229050D01*
G01*
X230968204Y-104749402D01*
G75*
G02*
X231113887Y-104436985I229050J83367D01*
G01*
G37*
G36*
G01*
X231755174Y-106198909D02*
X232612644Y-105886815D01*
G75*
G02*
X232925061Y-106032498I83367J-229050D01*
G01*
X233091796Y-106490598D01*
G75*
G02*
X232946113Y-106803015I-229050J-83367D01*
G01*
X232088644Y-107115109D01*
G75*
G02*
X231776227Y-106969426I-83367J229050D01*
G01*
X231609492Y-106511326D01*
G75*
G02*
X231755175Y-106198909I229050J83367D01*
G01*
G37*
%TD*%
D12*
%TO.C,Q3*%
G36*
X190674535Y-83885520D02*
G01*
X191461891Y-83743852D01*
X191621267Y-84629628D01*
X190833911Y-84771296D01*
X190674535Y-83885520D01*
G37*
G36*
X188804563Y-84221981D02*
G01*
X189591919Y-84080313D01*
X189751295Y-84966089D01*
X188963939Y-85107757D01*
X188804563Y-84221981D01*
G37*
G36*
X190093719Y-86022142D02*
G01*
X190881075Y-85880474D01*
X191040451Y-86766250D01*
X190253095Y-86907918D01*
X190093719Y-86022142D01*
G37*
%TD*%
D15*
%TO.C,Q4*%
X246050000Y-62000000D03*
X247950000Y-62000000D03*
X247000000Y-60000000D03*
%TD*%
%TO.C,R1*%
G36*
G01*
X221256250Y-38425000D02*
X220343750Y-38425000D01*
G75*
G02*
X220100000Y-38181250I0J243750D01*
G01*
X220100000Y-37693750D01*
G75*
G02*
X220343750Y-37450000I243750J0D01*
G01*
X221256250Y-37450000D01*
G75*
G02*
X221500000Y-37693750I0J-243750D01*
G01*
X221500000Y-38181250D01*
G75*
G02*
X221256250Y-38425000I-243750J0D01*
G01*
G37*
G36*
G01*
X221256250Y-36550000D02*
X220343750Y-36550000D01*
G75*
G02*
X220100000Y-36306250I0J243750D01*
G01*
X220100000Y-35818750D01*
G75*
G02*
X220343750Y-35575000I243750J0D01*
G01*
X221256250Y-35575000D01*
G75*
G02*
X221500000Y-35818750I0J-243750D01*
G01*
X221500000Y-36306250D01*
G75*
G02*
X221256250Y-36550000I-243750J0D01*
G01*
G37*
%TD*%
%TO.C,R2*%
G36*
G01*
X216950000Y-58743750D02*
X216950000Y-59656250D01*
G75*
G02*
X216706250Y-59900000I-243750J0D01*
G01*
X216218750Y-59900000D01*
G75*
G02*
X215975000Y-59656250I0J243750D01*
G01*
X215975000Y-58743750D01*
G75*
G02*
X216218750Y-58500000I243750J0D01*
G01*
X216706250Y-58500000D01*
G75*
G02*
X216950000Y-58743750I0J-243750D01*
G01*
G37*
G36*
G01*
X218825000Y-58743750D02*
X218825000Y-59656250D01*
G75*
G02*
X218581250Y-59900000I-243750J0D01*
G01*
X218093750Y-59900000D01*
G75*
G02*
X217850000Y-59656250I0J243750D01*
G01*
X217850000Y-58743750D01*
G75*
G02*
X218093750Y-58500000I243750J0D01*
G01*
X218581250Y-58500000D01*
G75*
G02*
X218825000Y-58743750I0J-243750D01*
G01*
G37*
%TD*%
%TO.C,R3*%
G36*
G01*
X228450000Y-42456250D02*
X228450000Y-41543750D01*
G75*
G02*
X228693750Y-41300000I243750J0D01*
G01*
X229181250Y-41300000D01*
G75*
G02*
X229425000Y-41543750I0J-243750D01*
G01*
X229425000Y-42456250D01*
G75*
G02*
X229181250Y-42700000I-243750J0D01*
G01*
X228693750Y-42700000D01*
G75*
G02*
X228450000Y-42456250I0J243750D01*
G01*
G37*
G36*
G01*
X226575000Y-42456250D02*
X226575000Y-41543750D01*
G75*
G02*
X226818750Y-41300000I243750J0D01*
G01*
X227306250Y-41300000D01*
G75*
G02*
X227550000Y-41543750I0J-243750D01*
G01*
X227550000Y-42456250D01*
G75*
G02*
X227306250Y-42700000I-243750J0D01*
G01*
X226818750Y-42700000D01*
G75*
G02*
X226575000Y-42456250I0J243750D01*
G01*
G37*
%TD*%
%TO.C,R4*%
G36*
G01*
X218143750Y-37450000D02*
X219056250Y-37450000D01*
G75*
G02*
X219300000Y-37693750I0J-243750D01*
G01*
X219300000Y-38181250D01*
G75*
G02*
X219056250Y-38425000I-243750J0D01*
G01*
X218143750Y-38425000D01*
G75*
G02*
X217900000Y-38181250I0J243750D01*
G01*
X217900000Y-37693750D01*
G75*
G02*
X218143750Y-37450000I243750J0D01*
G01*
G37*
G36*
G01*
X218143750Y-35575000D02*
X219056250Y-35575000D01*
G75*
G02*
X219300000Y-35818750I0J-243750D01*
G01*
X219300000Y-36306250D01*
G75*
G02*
X219056250Y-36550000I-243750J0D01*
G01*
X218143750Y-36550000D01*
G75*
G02*
X217900000Y-36306250I0J243750D01*
G01*
X217900000Y-35818750D01*
G75*
G02*
X218143750Y-35575000I243750J0D01*
G01*
G37*
%TD*%
%TO.C,R5*%
G36*
G01*
X227025000Y-44143750D02*
X227025000Y-45056250D01*
G75*
G02*
X226781250Y-45300000I-243750J0D01*
G01*
X226293750Y-45300000D01*
G75*
G02*
X226050000Y-45056250I0J243750D01*
G01*
X226050000Y-44143750D01*
G75*
G02*
X226293750Y-43900000I243750J0D01*
G01*
X226781250Y-43900000D01*
G75*
G02*
X227025000Y-44143750I0J-243750D01*
G01*
G37*
G36*
G01*
X225150000Y-44143750D02*
X225150000Y-45056250D01*
G75*
G02*
X224906250Y-45300000I-243750J0D01*
G01*
X224418750Y-45300000D01*
G75*
G02*
X224175000Y-45056250I0J243750D01*
G01*
X224175000Y-44143750D01*
G75*
G02*
X224418750Y-43900000I243750J0D01*
G01*
X224906250Y-43900000D01*
G75*
G02*
X225150000Y-44143750I0J-243750D01*
G01*
G37*
%TD*%
%TO.C,R6*%
G36*
G01*
X215975000Y-61656250D02*
X215975000Y-60743750D01*
G75*
G02*
X216218750Y-60500000I243750J0D01*
G01*
X216706250Y-60500000D01*
G75*
G02*
X216950000Y-60743750I0J-243750D01*
G01*
X216950000Y-61656250D01*
G75*
G02*
X216706250Y-61900000I-243750J0D01*
G01*
X216218750Y-61900000D01*
G75*
G02*
X215975000Y-61656250I0J243750D01*
G01*
G37*
G36*
G01*
X217850000Y-61656250D02*
X217850000Y-60743750D01*
G75*
G02*
X218093750Y-60500000I243750J0D01*
G01*
X218581250Y-60500000D01*
G75*
G02*
X218825000Y-60743750I0J-243750D01*
G01*
X218825000Y-61656250D01*
G75*
G02*
X218581250Y-61900000I-243750J0D01*
G01*
X218093750Y-61900000D01*
G75*
G02*
X217850000Y-61656250I0J243750D01*
G01*
G37*
%TD*%
%TO.C,R7*%
G36*
G01*
X211775000Y-42856250D02*
X211775000Y-41943750D01*
G75*
G02*
X212018750Y-41700000I243750J0D01*
G01*
X212506250Y-41700000D01*
G75*
G02*
X212750000Y-41943750I0J-243750D01*
G01*
X212750000Y-42856250D01*
G75*
G02*
X212506250Y-43100000I-243750J0D01*
G01*
X212018750Y-43100000D01*
G75*
G02*
X211775000Y-42856250I0J243750D01*
G01*
G37*
G36*
G01*
X213650000Y-42856250D02*
X213650000Y-41943750D01*
G75*
G02*
X213893750Y-41700000I243750J0D01*
G01*
X214381250Y-41700000D01*
G75*
G02*
X214625000Y-41943750I0J-243750D01*
G01*
X214625000Y-42856250D01*
G75*
G02*
X214381250Y-43100000I-243750J0D01*
G01*
X213893750Y-43100000D01*
G75*
G02*
X213650000Y-42856250I0J243750D01*
G01*
G37*
%TD*%
%TO.C,R8*%
G36*
G01*
X213650000Y-40656250D02*
X213650000Y-39743750D01*
G75*
G02*
X213893750Y-39500000I243750J0D01*
G01*
X214381250Y-39500000D01*
G75*
G02*
X214625000Y-39743750I0J-243750D01*
G01*
X214625000Y-40656250D01*
G75*
G02*
X214381250Y-40900000I-243750J0D01*
G01*
X213893750Y-40900000D01*
G75*
G02*
X213650000Y-40656250I0J243750D01*
G01*
G37*
G36*
G01*
X211775000Y-40656250D02*
X211775000Y-39743750D01*
G75*
G02*
X212018750Y-39500000I243750J0D01*
G01*
X212506250Y-39500000D01*
G75*
G02*
X212750000Y-39743750I0J-243750D01*
G01*
X212750000Y-40656250D01*
G75*
G02*
X212506250Y-40900000I-243750J0D01*
G01*
X212018750Y-40900000D01*
G75*
G02*
X211775000Y-40656250I0J243750D01*
G01*
G37*
%TD*%
%TO.C,R9*%
G36*
G01*
X211775000Y-38456250D02*
X211775000Y-37543750D01*
G75*
G02*
X212018750Y-37300000I243750J0D01*
G01*
X212506250Y-37300000D01*
G75*
G02*
X212750000Y-37543750I0J-243750D01*
G01*
X212750000Y-38456250D01*
G75*
G02*
X212506250Y-38700000I-243750J0D01*
G01*
X212018750Y-38700000D01*
G75*
G02*
X211775000Y-38456250I0J243750D01*
G01*
G37*
G36*
G01*
X213650000Y-38456250D02*
X213650000Y-37543750D01*
G75*
G02*
X213893750Y-37300000I243750J0D01*
G01*
X214381250Y-37300000D01*
G75*
G02*
X214625000Y-37543750I0J-243750D01*
G01*
X214625000Y-38456250D01*
G75*
G02*
X214381250Y-38700000I-243750J0D01*
G01*
X213893750Y-38700000D01*
G75*
G02*
X213650000Y-38456250I0J243750D01*
G01*
G37*
%TD*%
%TO.C,R10*%
G36*
G01*
X239775000Y-73975000D02*
X241025000Y-73975000D01*
G75*
G02*
X241275000Y-74225000I0J-250000D01*
G01*
X241275000Y-74975000D01*
G75*
G02*
X241025000Y-75225000I-250000J0D01*
G01*
X239775000Y-75225000D01*
G75*
G02*
X239525000Y-74975000I0J250000D01*
G01*
X239525000Y-74225000D01*
G75*
G02*
X239775000Y-73975000I250000J0D01*
G01*
G37*
G36*
G01*
X239775000Y-76775000D02*
X241025000Y-76775000D01*
G75*
G02*
X241275000Y-77025000I0J-250000D01*
G01*
X241275000Y-77775000D01*
G75*
G02*
X241025000Y-78025000I-250000J0D01*
G01*
X239775000Y-78025000D01*
G75*
G02*
X239525000Y-77775000I0J250000D01*
G01*
X239525000Y-77025000D01*
G75*
G02*
X239775000Y-76775000I250000J0D01*
G01*
G37*
%TD*%
%TO.C,R11*%
G36*
G01*
X226575000Y-40256250D02*
X226575000Y-39343750D01*
G75*
G02*
X226818750Y-39100000I243750J0D01*
G01*
X227306250Y-39100000D01*
G75*
G02*
X227550000Y-39343750I0J-243750D01*
G01*
X227550000Y-40256250D01*
G75*
G02*
X227306250Y-40500000I-243750J0D01*
G01*
X226818750Y-40500000D01*
G75*
G02*
X226575000Y-40256250I0J243750D01*
G01*
G37*
G36*
G01*
X228450000Y-40256250D02*
X228450000Y-39343750D01*
G75*
G02*
X228693750Y-39100000I243750J0D01*
G01*
X229181250Y-39100000D01*
G75*
G02*
X229425000Y-39343750I0J-243750D01*
G01*
X229425000Y-40256250D01*
G75*
G02*
X229181250Y-40500000I-243750J0D01*
G01*
X228693750Y-40500000D01*
G75*
G02*
X228450000Y-40256250I0J243750D01*
G01*
G37*
%TD*%
%TO.C,R12*%
G36*
G01*
X233856250Y-45750000D02*
X232943750Y-45750000D01*
G75*
G02*
X232700000Y-45506250I0J243750D01*
G01*
X232700000Y-45018750D01*
G75*
G02*
X232943750Y-44775000I243750J0D01*
G01*
X233856250Y-44775000D01*
G75*
G02*
X234100000Y-45018750I0J-243750D01*
G01*
X234100000Y-45506250D01*
G75*
G02*
X233856250Y-45750000I-243750J0D01*
G01*
G37*
G36*
G01*
X233856250Y-47625000D02*
X232943750Y-47625000D01*
G75*
G02*
X232700000Y-47381250I0J243750D01*
G01*
X232700000Y-46893750D01*
G75*
G02*
X232943750Y-46650000I243750J0D01*
G01*
X233856250Y-46650000D01*
G75*
G02*
X234100000Y-46893750I0J-243750D01*
G01*
X234100000Y-47381250D01*
G75*
G02*
X233856250Y-47625000I-243750J0D01*
G01*
G37*
%TD*%
%TO.C,R13*%
G36*
G01*
X240950000Y-78943750D02*
X240950000Y-79856250D01*
G75*
G02*
X240706250Y-80100000I-243750J0D01*
G01*
X240218750Y-80100000D01*
G75*
G02*
X239975000Y-79856250I0J243750D01*
G01*
X239975000Y-78943750D01*
G75*
G02*
X240218750Y-78700000I243750J0D01*
G01*
X240706250Y-78700000D01*
G75*
G02*
X240950000Y-78943750I0J-243750D01*
G01*
G37*
G36*
G01*
X242825000Y-78943750D02*
X242825000Y-79856250D01*
G75*
G02*
X242581250Y-80100000I-243750J0D01*
G01*
X242093750Y-80100000D01*
G75*
G02*
X241850000Y-79856250I0J243750D01*
G01*
X241850000Y-78943750D01*
G75*
G02*
X242093750Y-78700000I243750J0D01*
G01*
X242581250Y-78700000D01*
G75*
G02*
X242825000Y-78943750I0J-243750D01*
G01*
G37*
%TD*%
%TO.C,R14*%
G36*
G01*
X228543750Y-61050000D02*
X229456250Y-61050000D01*
G75*
G02*
X229700000Y-61293750I0J-243750D01*
G01*
X229700000Y-61781250D01*
G75*
G02*
X229456250Y-62025000I-243750J0D01*
G01*
X228543750Y-62025000D01*
G75*
G02*
X228300000Y-61781250I0J243750D01*
G01*
X228300000Y-61293750D01*
G75*
G02*
X228543750Y-61050000I243750J0D01*
G01*
G37*
G36*
G01*
X228543750Y-59175000D02*
X229456250Y-59175000D01*
G75*
G02*
X229700000Y-59418750I0J-243750D01*
G01*
X229700000Y-59906250D01*
G75*
G02*
X229456250Y-60150000I-243750J0D01*
G01*
X228543750Y-60150000D01*
G75*
G02*
X228300000Y-59906250I0J243750D01*
G01*
X228300000Y-59418750D01*
G75*
G02*
X228543750Y-59175000I243750J0D01*
G01*
G37*
%TD*%
%TO.C,R15*%
G36*
G01*
X228543750Y-55375000D02*
X229456250Y-55375000D01*
G75*
G02*
X229700000Y-55618750I0J-243750D01*
G01*
X229700000Y-56106250D01*
G75*
G02*
X229456250Y-56350000I-243750J0D01*
G01*
X228543750Y-56350000D01*
G75*
G02*
X228300000Y-56106250I0J243750D01*
G01*
X228300000Y-55618750D01*
G75*
G02*
X228543750Y-55375000I243750J0D01*
G01*
G37*
G36*
G01*
X228543750Y-57250000D02*
X229456250Y-57250000D01*
G75*
G02*
X229700000Y-57493750I0J-243750D01*
G01*
X229700000Y-57981250D01*
G75*
G02*
X229456250Y-58225000I-243750J0D01*
G01*
X228543750Y-58225000D01*
G75*
G02*
X228300000Y-57981250I0J243750D01*
G01*
X228300000Y-57493750D01*
G75*
G02*
X228543750Y-57250000I243750J0D01*
G01*
G37*
%TD*%
%TO.C,R17*%
G36*
G01*
X211543750Y-77975000D02*
X212456250Y-77975000D01*
G75*
G02*
X212700000Y-78218750I0J-243750D01*
G01*
X212700000Y-78706250D01*
G75*
G02*
X212456250Y-78950000I-243750J0D01*
G01*
X211543750Y-78950000D01*
G75*
G02*
X211300000Y-78706250I0J243750D01*
G01*
X211300000Y-78218750D01*
G75*
G02*
X211543750Y-77975000I243750J0D01*
G01*
G37*
G36*
G01*
X211543750Y-79850000D02*
X212456250Y-79850000D01*
G75*
G02*
X212700000Y-80093750I0J-243750D01*
G01*
X212700000Y-80581250D01*
G75*
G02*
X212456250Y-80825000I-243750J0D01*
G01*
X211543750Y-80825000D01*
G75*
G02*
X211300000Y-80581250I0J243750D01*
G01*
X211300000Y-80093750D01*
G75*
G02*
X211543750Y-79850000I243750J0D01*
G01*
G37*
%TD*%
%TO.C,R18*%
G36*
G01*
X209543750Y-79850000D02*
X210456250Y-79850000D01*
G75*
G02*
X210700000Y-80093750I0J-243750D01*
G01*
X210700000Y-80581250D01*
G75*
G02*
X210456250Y-80825000I-243750J0D01*
G01*
X209543750Y-80825000D01*
G75*
G02*
X209300000Y-80581250I0J243750D01*
G01*
X209300000Y-80093750D01*
G75*
G02*
X209543750Y-79850000I243750J0D01*
G01*
G37*
G36*
G01*
X209543750Y-77975000D02*
X210456250Y-77975000D01*
G75*
G02*
X210700000Y-78218750I0J-243750D01*
G01*
X210700000Y-78706250D01*
G75*
G02*
X210456250Y-78950000I-243750J0D01*
G01*
X209543750Y-78950000D01*
G75*
G02*
X209300000Y-78706250I0J243750D01*
G01*
X209300000Y-78218750D01*
G75*
G02*
X209543750Y-77975000I243750J0D01*
G01*
G37*
%TD*%
%TO.C,R19*%
G36*
G01*
X221225000Y-96143750D02*
X221225000Y-97056250D01*
G75*
G02*
X220981250Y-97300000I-243750J0D01*
G01*
X220493750Y-97300000D01*
G75*
G02*
X220250000Y-97056250I0J243750D01*
G01*
X220250000Y-96143750D01*
G75*
G02*
X220493750Y-95900000I243750J0D01*
G01*
X220981250Y-95900000D01*
G75*
G02*
X221225000Y-96143750I0J-243750D01*
G01*
G37*
G36*
G01*
X219350000Y-96143750D02*
X219350000Y-97056250D01*
G75*
G02*
X219106250Y-97300000I-243750J0D01*
G01*
X218618750Y-97300000D01*
G75*
G02*
X218375000Y-97056250I0J243750D01*
G01*
X218375000Y-96143750D01*
G75*
G02*
X218618750Y-95900000I243750J0D01*
G01*
X219106250Y-95900000D01*
G75*
G02*
X219350000Y-96143750I0J-243750D01*
G01*
G37*
%TD*%
%TO.C,R26*%
G36*
G01*
X218825000Y-54743750D02*
X218825000Y-55656250D01*
G75*
G02*
X218581250Y-55900000I-243750J0D01*
G01*
X218093750Y-55900000D01*
G75*
G02*
X217850000Y-55656250I0J243750D01*
G01*
X217850000Y-54743750D01*
G75*
G02*
X218093750Y-54500000I243750J0D01*
G01*
X218581250Y-54500000D01*
G75*
G02*
X218825000Y-54743750I0J-243750D01*
G01*
G37*
G36*
G01*
X216950000Y-54743750D02*
X216950000Y-55656250D01*
G75*
G02*
X216706250Y-55900000I-243750J0D01*
G01*
X216218750Y-55900000D01*
G75*
G02*
X215975000Y-55656250I0J243750D01*
G01*
X215975000Y-54743750D01*
G75*
G02*
X216218750Y-54500000I243750J0D01*
G01*
X216706250Y-54500000D01*
G75*
G02*
X216950000Y-54743750I0J-243750D01*
G01*
G37*
%TD*%
%TO.C,R30*%
G36*
G01*
X189608317Y-89101385D02*
X189446726Y-88203306D01*
G75*
G02*
X189643460Y-87920244I239898J43164D01*
G01*
X190123256Y-87833915D01*
G75*
G02*
X190406318Y-88030649I43164J-239898D01*
G01*
X190567908Y-88928728D01*
G75*
G02*
X190371174Y-89211790I-239898J-43164D01*
G01*
X189891378Y-89298119D01*
G75*
G02*
X189608316Y-89101385I-43164J239898D01*
G01*
G37*
G36*
G01*
X191453683Y-88769351D02*
X191292092Y-87871272D01*
G75*
G02*
X191488826Y-87588210I239898J43164D01*
G01*
X191968622Y-87501881D01*
G75*
G02*
X192251684Y-87698615I43164J-239898D01*
G01*
X192413274Y-88596694D01*
G75*
G02*
X192216540Y-88879756I-239898J-43164D01*
G01*
X191736744Y-88966085D01*
G75*
G02*
X191453682Y-88769351I-43164J239898D01*
G01*
G37*
%TD*%
%TO.C,R29*%
G36*
G01*
X195650000Y-89456250D02*
X195650000Y-88543750D01*
G75*
G02*
X195893750Y-88300000I243750J0D01*
G01*
X196381250Y-88300000D01*
G75*
G02*
X196625000Y-88543750I0J-243750D01*
G01*
X196625000Y-89456250D01*
G75*
G02*
X196381250Y-89700000I-243750J0D01*
G01*
X195893750Y-89700000D01*
G75*
G02*
X195650000Y-89456250I0J243750D01*
G01*
G37*
G36*
G01*
X193775000Y-89456250D02*
X193775000Y-88543750D01*
G75*
G02*
X194018750Y-88300000I243750J0D01*
G01*
X194506250Y-88300000D01*
G75*
G02*
X194750000Y-88543750I0J-243750D01*
G01*
X194750000Y-89456250D01*
G75*
G02*
X194506250Y-89700000I-243750J0D01*
G01*
X194018750Y-89700000D01*
G75*
G02*
X193775000Y-89456250I0J243750D01*
G01*
G37*
%TD*%
%TO.C,R32*%
G36*
G01*
X206856250Y-90025000D02*
X205943750Y-90025000D01*
G75*
G02*
X205700000Y-89781250I0J243750D01*
G01*
X205700000Y-89293750D01*
G75*
G02*
X205943750Y-89050000I243750J0D01*
G01*
X206856250Y-89050000D01*
G75*
G02*
X207100000Y-89293750I0J-243750D01*
G01*
X207100000Y-89781250D01*
G75*
G02*
X206856250Y-90025000I-243750J0D01*
G01*
G37*
G36*
G01*
X206856250Y-88150000D02*
X205943750Y-88150000D01*
G75*
G02*
X205700000Y-87906250I0J243750D01*
G01*
X205700000Y-87418750D01*
G75*
G02*
X205943750Y-87175000I243750J0D01*
G01*
X206856250Y-87175000D01*
G75*
G02*
X207100000Y-87418750I0J-243750D01*
G01*
X207100000Y-87906250D01*
G75*
G02*
X206856250Y-88150000I-243750J0D01*
G01*
G37*
%TD*%
%TO.C,R33*%
G36*
G01*
X225343750Y-95850000D02*
X226256250Y-95850000D01*
G75*
G02*
X226500000Y-96093750I0J-243750D01*
G01*
X226500000Y-96581250D01*
G75*
G02*
X226256250Y-96825000I-243750J0D01*
G01*
X225343750Y-96825000D01*
G75*
G02*
X225100000Y-96581250I0J243750D01*
G01*
X225100000Y-96093750D01*
G75*
G02*
X225343750Y-95850000I243750J0D01*
G01*
G37*
G36*
G01*
X225343750Y-93975000D02*
X226256250Y-93975000D01*
G75*
G02*
X226500000Y-94218750I0J-243750D01*
G01*
X226500000Y-94706250D01*
G75*
G02*
X226256250Y-94950000I-243750J0D01*
G01*
X225343750Y-94950000D01*
G75*
G02*
X225100000Y-94706250I0J243750D01*
G01*
X225100000Y-94218750D01*
G75*
G02*
X225343750Y-93975000I243750J0D01*
G01*
G37*
%TD*%
%TO.C,R34*%
G36*
G01*
X239050000Y-46656250D02*
X239050000Y-45743750D01*
G75*
G02*
X239293750Y-45500000I243750J0D01*
G01*
X239781250Y-45500000D01*
G75*
G02*
X240025000Y-45743750I0J-243750D01*
G01*
X240025000Y-46656250D01*
G75*
G02*
X239781250Y-46900000I-243750J0D01*
G01*
X239293750Y-46900000D01*
G75*
G02*
X239050000Y-46656250I0J243750D01*
G01*
G37*
G36*
G01*
X237175000Y-46656250D02*
X237175000Y-45743750D01*
G75*
G02*
X237418750Y-45500000I243750J0D01*
G01*
X237906250Y-45500000D01*
G75*
G02*
X238150000Y-45743750I0J-243750D01*
G01*
X238150000Y-46656250D01*
G75*
G02*
X237906250Y-46900000I-243750J0D01*
G01*
X237418750Y-46900000D01*
G75*
G02*
X237175000Y-46656250I0J243750D01*
G01*
G37*
%TD*%
%TO.C,R35*%
G36*
G01*
X250656250Y-60550000D02*
X249743750Y-60550000D01*
G75*
G02*
X249500000Y-60306250I0J243750D01*
G01*
X249500000Y-59818750D01*
G75*
G02*
X249743750Y-59575000I243750J0D01*
G01*
X250656250Y-59575000D01*
G75*
G02*
X250900000Y-59818750I0J-243750D01*
G01*
X250900000Y-60306250D01*
G75*
G02*
X250656250Y-60550000I-243750J0D01*
G01*
G37*
G36*
G01*
X250656250Y-62425000D02*
X249743750Y-62425000D01*
G75*
G02*
X249500000Y-62181250I0J243750D01*
G01*
X249500000Y-61693750D01*
G75*
G02*
X249743750Y-61450000I243750J0D01*
G01*
X250656250Y-61450000D01*
G75*
G02*
X250900000Y-61693750I0J-243750D01*
G01*
X250900000Y-62181250D01*
G75*
G02*
X250656250Y-62425000I-243750J0D01*
G01*
G37*
%TD*%
%TO.C,R36*%
G36*
G01*
X228156250Y-96825000D02*
X227243750Y-96825000D01*
G75*
G02*
X227000000Y-96581250I0J243750D01*
G01*
X227000000Y-96093750D01*
G75*
G02*
X227243750Y-95850000I243750J0D01*
G01*
X228156250Y-95850000D01*
G75*
G02*
X228400000Y-96093750I0J-243750D01*
G01*
X228400000Y-96581250D01*
G75*
G02*
X228156250Y-96825000I-243750J0D01*
G01*
G37*
G36*
G01*
X228156250Y-94950000D02*
X227243750Y-94950000D01*
G75*
G02*
X227000000Y-94706250I0J243750D01*
G01*
X227000000Y-94218750D01*
G75*
G02*
X227243750Y-93975000I243750J0D01*
G01*
X228156250Y-93975000D01*
G75*
G02*
X228400000Y-94218750I0J-243750D01*
G01*
X228400000Y-94706250D01*
G75*
G02*
X228156250Y-94950000I-243750J0D01*
G01*
G37*
%TD*%
%TO.C,R37*%
G36*
G01*
X241250000Y-58656250D02*
X241250000Y-57743750D01*
G75*
G02*
X241493750Y-57500000I243750J0D01*
G01*
X241981250Y-57500000D01*
G75*
G02*
X242225000Y-57743750I0J-243750D01*
G01*
X242225000Y-58656250D01*
G75*
G02*
X241981250Y-58900000I-243750J0D01*
G01*
X241493750Y-58900000D01*
G75*
G02*
X241250000Y-58656250I0J243750D01*
G01*
G37*
G36*
G01*
X239375000Y-58656250D02*
X239375000Y-57743750D01*
G75*
G02*
X239618750Y-57500000I243750J0D01*
G01*
X240106250Y-57500000D01*
G75*
G02*
X240350000Y-57743750I0J-243750D01*
G01*
X240350000Y-58656250D01*
G75*
G02*
X240106250Y-58900000I-243750J0D01*
G01*
X239618750Y-58900000D01*
G75*
G02*
X239375000Y-58656250I0J243750D01*
G01*
G37*
%TD*%
%TO.C,R38*%
G36*
G01*
X247256250Y-70425000D02*
X246343750Y-70425000D01*
G75*
G02*
X246100000Y-70181250I0J243750D01*
G01*
X246100000Y-69693750D01*
G75*
G02*
X246343750Y-69450000I243750J0D01*
G01*
X247256250Y-69450000D01*
G75*
G02*
X247500000Y-69693750I0J-243750D01*
G01*
X247500000Y-70181250D01*
G75*
G02*
X247256250Y-70425000I-243750J0D01*
G01*
G37*
G36*
G01*
X247256250Y-68550000D02*
X246343750Y-68550000D01*
G75*
G02*
X246100000Y-68306250I0J243750D01*
G01*
X246100000Y-67818750D01*
G75*
G02*
X246343750Y-67575000I243750J0D01*
G01*
X247256250Y-67575000D01*
G75*
G02*
X247500000Y-67818750I0J-243750D01*
G01*
X247500000Y-68306250D01*
G75*
G02*
X247256250Y-68550000I-243750J0D01*
G01*
G37*
%TD*%
%TO.C,R39*%
G36*
G01*
X242975000Y-58656250D02*
X242975000Y-57743750D01*
G75*
G02*
X243218750Y-57500000I243750J0D01*
G01*
X243706250Y-57500000D01*
G75*
G02*
X243950000Y-57743750I0J-243750D01*
G01*
X243950000Y-58656250D01*
G75*
G02*
X243706250Y-58900000I-243750J0D01*
G01*
X243218750Y-58900000D01*
G75*
G02*
X242975000Y-58656250I0J243750D01*
G01*
G37*
G36*
G01*
X244850000Y-58656250D02*
X244850000Y-57743750D01*
G75*
G02*
X245093750Y-57500000I243750J0D01*
G01*
X245581250Y-57500000D01*
G75*
G02*
X245825000Y-57743750I0J-243750D01*
G01*
X245825000Y-58656250D01*
G75*
G02*
X245581250Y-58900000I-243750J0D01*
G01*
X245093750Y-58900000D01*
G75*
G02*
X244850000Y-58656250I0J243750D01*
G01*
G37*
%TD*%
%TO.C,R40*%
G36*
G01*
X240743750Y-95975000D02*
X241656250Y-95975000D01*
G75*
G02*
X241900000Y-96218750I0J-243750D01*
G01*
X241900000Y-96706250D01*
G75*
G02*
X241656250Y-96950000I-243750J0D01*
G01*
X240743750Y-96950000D01*
G75*
G02*
X240500000Y-96706250I0J243750D01*
G01*
X240500000Y-96218750D01*
G75*
G02*
X240743750Y-95975000I243750J0D01*
G01*
G37*
G36*
G01*
X240743750Y-97850000D02*
X241656250Y-97850000D01*
G75*
G02*
X241900000Y-98093750I0J-243750D01*
G01*
X241900000Y-98581250D01*
G75*
G02*
X241656250Y-98825000I-243750J0D01*
G01*
X240743750Y-98825000D01*
G75*
G02*
X240500000Y-98581250I0J243750D01*
G01*
X240500000Y-98093750D01*
G75*
G02*
X240743750Y-97850000I243750J0D01*
G01*
G37*
%TD*%
%TO.C,R41*%
G36*
G01*
X247256250Y-65150000D02*
X246343750Y-65150000D01*
G75*
G02*
X246100000Y-64906250I0J243750D01*
G01*
X246100000Y-64418750D01*
G75*
G02*
X246343750Y-64175000I243750J0D01*
G01*
X247256250Y-64175000D01*
G75*
G02*
X247500000Y-64418750I0J-243750D01*
G01*
X247500000Y-64906250D01*
G75*
G02*
X247256250Y-65150000I-243750J0D01*
G01*
G37*
G36*
G01*
X247256250Y-67025000D02*
X246343750Y-67025000D01*
G75*
G02*
X246100000Y-66781250I0J243750D01*
G01*
X246100000Y-66293750D01*
G75*
G02*
X246343750Y-66050000I243750J0D01*
G01*
X247256250Y-66050000D01*
G75*
G02*
X247500000Y-66293750I0J-243750D01*
G01*
X247500000Y-66781250D01*
G75*
G02*
X247256250Y-67025000I-243750J0D01*
G01*
G37*
%TD*%
%TO.C,R42*%
G36*
G01*
X238843750Y-97850000D02*
X239756250Y-97850000D01*
G75*
G02*
X240000000Y-98093750I0J-243750D01*
G01*
X240000000Y-98581250D01*
G75*
G02*
X239756250Y-98825000I-243750J0D01*
G01*
X238843750Y-98825000D01*
G75*
G02*
X238600000Y-98581250I0J243750D01*
G01*
X238600000Y-98093750D01*
G75*
G02*
X238843750Y-97850000I243750J0D01*
G01*
G37*
G36*
G01*
X238843750Y-95975000D02*
X239756250Y-95975000D01*
G75*
G02*
X240000000Y-96218750I0J-243750D01*
G01*
X240000000Y-96706250D01*
G75*
G02*
X239756250Y-96950000I-243750J0D01*
G01*
X238843750Y-96950000D01*
G75*
G02*
X238600000Y-96706250I0J243750D01*
G01*
X238600000Y-96218750D01*
G75*
G02*
X238843750Y-95975000I243750J0D01*
G01*
G37*
%TD*%
%TO.C,R43*%
G36*
G01*
X214056250Y-104825000D02*
X213143750Y-104825000D01*
G75*
G02*
X212900000Y-104581250I0J243750D01*
G01*
X212900000Y-104093750D01*
G75*
G02*
X213143750Y-103850000I243750J0D01*
G01*
X214056250Y-103850000D01*
G75*
G02*
X214300000Y-104093750I0J-243750D01*
G01*
X214300000Y-104581250D01*
G75*
G02*
X214056250Y-104825000I-243750J0D01*
G01*
G37*
G36*
G01*
X214056250Y-102950000D02*
X213143750Y-102950000D01*
G75*
G02*
X212900000Y-102706250I0J243750D01*
G01*
X212900000Y-102218750D01*
G75*
G02*
X213143750Y-101975000I243750J0D01*
G01*
X214056250Y-101975000D01*
G75*
G02*
X214300000Y-102218750I0J-243750D01*
G01*
X214300000Y-102706250D01*
G75*
G02*
X214056250Y-102950000I-243750J0D01*
G01*
G37*
%TD*%
%TO.C,R44*%
G36*
G01*
X249256250Y-68550000D02*
X248343750Y-68550000D01*
G75*
G02*
X248100000Y-68306250I0J243750D01*
G01*
X248100000Y-67818750D01*
G75*
G02*
X248343750Y-67575000I243750J0D01*
G01*
X249256250Y-67575000D01*
G75*
G02*
X249500000Y-67818750I0J-243750D01*
G01*
X249500000Y-68306250D01*
G75*
G02*
X249256250Y-68550000I-243750J0D01*
G01*
G37*
G36*
G01*
X249256250Y-70425000D02*
X248343750Y-70425000D01*
G75*
G02*
X248100000Y-70181250I0J243750D01*
G01*
X248100000Y-69693750D01*
G75*
G02*
X248343750Y-69450000I243750J0D01*
G01*
X249256250Y-69450000D01*
G75*
G02*
X249500000Y-69693750I0J-243750D01*
G01*
X249500000Y-70181250D01*
G75*
G02*
X249256250Y-70425000I-243750J0D01*
G01*
G37*
%TD*%
%TO.C,R45*%
G36*
G01*
X232543750Y-100575000D02*
X233456250Y-100575000D01*
G75*
G02*
X233700000Y-100818750I0J-243750D01*
G01*
X233700000Y-101306250D01*
G75*
G02*
X233456250Y-101550000I-243750J0D01*
G01*
X232543750Y-101550000D01*
G75*
G02*
X232300000Y-101306250I0J243750D01*
G01*
X232300000Y-100818750D01*
G75*
G02*
X232543750Y-100575000I243750J0D01*
G01*
G37*
G36*
G01*
X232543750Y-102450000D02*
X233456250Y-102450000D01*
G75*
G02*
X233700000Y-102693750I0J-243750D01*
G01*
X233700000Y-103181250D01*
G75*
G02*
X233456250Y-103425000I-243750J0D01*
G01*
X232543750Y-103425000D01*
G75*
G02*
X232300000Y-103181250I0J243750D01*
G01*
X232300000Y-102693750D01*
G75*
G02*
X232543750Y-102450000I243750J0D01*
G01*
G37*
%TD*%
%TO.C,R46*%
G36*
G01*
X234443750Y-100575000D02*
X235356250Y-100575000D01*
G75*
G02*
X235600000Y-100818750I0J-243750D01*
G01*
X235600000Y-101306250D01*
G75*
G02*
X235356250Y-101550000I-243750J0D01*
G01*
X234443750Y-101550000D01*
G75*
G02*
X234200000Y-101306250I0J243750D01*
G01*
X234200000Y-100818750D01*
G75*
G02*
X234443750Y-100575000I243750J0D01*
G01*
G37*
G36*
G01*
X234443750Y-102450000D02*
X235356250Y-102450000D01*
G75*
G02*
X235600000Y-102693750I0J-243750D01*
G01*
X235600000Y-103181250D01*
G75*
G02*
X235356250Y-103425000I-243750J0D01*
G01*
X234443750Y-103425000D01*
G75*
G02*
X234200000Y-103181250I0J243750D01*
G01*
X234200000Y-102693750D01*
G75*
G02*
X234443750Y-102450000I243750J0D01*
G01*
G37*
%TD*%
%TO.C,R47*%
G36*
G01*
X228056250Y-106950000D02*
X227143750Y-106950000D01*
G75*
G02*
X226900000Y-106706250I0J243750D01*
G01*
X226900000Y-106218750D01*
G75*
G02*
X227143750Y-105975000I243750J0D01*
G01*
X228056250Y-105975000D01*
G75*
G02*
X228300000Y-106218750I0J-243750D01*
G01*
X228300000Y-106706250D01*
G75*
G02*
X228056250Y-106950000I-243750J0D01*
G01*
G37*
G36*
G01*
X228056250Y-108825000D02*
X227143750Y-108825000D01*
G75*
G02*
X226900000Y-108581250I0J243750D01*
G01*
X226900000Y-108093750D01*
G75*
G02*
X227143750Y-107850000I243750J0D01*
G01*
X228056250Y-107850000D01*
G75*
G02*
X228300000Y-108093750I0J-243750D01*
G01*
X228300000Y-108581250D01*
G75*
G02*
X228056250Y-108825000I-243750J0D01*
G01*
G37*
%TD*%
%TO.C,R48*%
G36*
G01*
X249256250Y-65150000D02*
X248343750Y-65150000D01*
G75*
G02*
X248100000Y-64906250I0J243750D01*
G01*
X248100000Y-64418750D01*
G75*
G02*
X248343750Y-64175000I243750J0D01*
G01*
X249256250Y-64175000D01*
G75*
G02*
X249500000Y-64418750I0J-243750D01*
G01*
X249500000Y-64906250D01*
G75*
G02*
X249256250Y-65150000I-243750J0D01*
G01*
G37*
G36*
G01*
X249256250Y-67025000D02*
X248343750Y-67025000D01*
G75*
G02*
X248100000Y-66781250I0J243750D01*
G01*
X248100000Y-66293750D01*
G75*
G02*
X248343750Y-66050000I243750J0D01*
G01*
X249256250Y-66050000D01*
G75*
G02*
X249500000Y-66293750I0J-243750D01*
G01*
X249500000Y-66781250D01*
G75*
G02*
X249256250Y-67025000I-243750J0D01*
G01*
G37*
%TD*%
D16*
%TO.C,U1*%
X223100000Y-57650000D03*
X223100000Y-59550000D03*
X220900000Y-59550000D03*
X220900000Y-58600000D03*
X220900000Y-57650000D03*
%TD*%
D17*
%TO.C,U2*%
X243850000Y-75050000D03*
X242550000Y-75050000D03*
X243200000Y-75050000D03*
X242550000Y-76950000D03*
X243850000Y-76950000D03*
%TD*%
D18*
%TO.C,U3*%
X226800000Y-50975000D03*
X226800000Y-50325000D03*
X226800000Y-49675000D03*
X226800000Y-49025000D03*
X231200000Y-49025000D03*
X231200000Y-49675000D03*
X231200000Y-50325000D03*
X231200000Y-50975000D03*
%TD*%
%TO.C,U5*%
G36*
G01*
X218325000Y-42325000D02*
X218325000Y-42475000D01*
G75*
G02*
X218250000Y-42550000I-75000J0D01*
G01*
X216950000Y-42550000D01*
G75*
G02*
X216875000Y-42475000I0J75000D01*
G01*
X216875000Y-42325000D01*
G75*
G02*
X216950000Y-42250000I75000J0D01*
G01*
X218250000Y-42250000D01*
G75*
G02*
X218325000Y-42325000I0J-75000D01*
G01*
G37*
G36*
G01*
X218325000Y-41825000D02*
X218325000Y-41975000D01*
G75*
G02*
X218250000Y-42050000I-75000J0D01*
G01*
X216950000Y-42050000D01*
G75*
G02*
X216875000Y-41975000I0J75000D01*
G01*
X216875000Y-41825000D01*
G75*
G02*
X216950000Y-41750000I75000J0D01*
G01*
X218250000Y-41750000D01*
G75*
G02*
X218325000Y-41825000I0J-75000D01*
G01*
G37*
G36*
G01*
X218325000Y-41325000D02*
X218325000Y-41475000D01*
G75*
G02*
X218250000Y-41550000I-75000J0D01*
G01*
X216950000Y-41550000D01*
G75*
G02*
X216875000Y-41475000I0J75000D01*
G01*
X216875000Y-41325000D01*
G75*
G02*
X216950000Y-41250000I75000J0D01*
G01*
X218250000Y-41250000D01*
G75*
G02*
X218325000Y-41325000I0J-75000D01*
G01*
G37*
G36*
G01*
X218325000Y-40825000D02*
X218325000Y-40975000D01*
G75*
G02*
X218250000Y-41050000I-75000J0D01*
G01*
X216950000Y-41050000D01*
G75*
G02*
X216875000Y-40975000I0J75000D01*
G01*
X216875000Y-40825000D01*
G75*
G02*
X216950000Y-40750000I75000J0D01*
G01*
X218250000Y-40750000D01*
G75*
G02*
X218325000Y-40825000I0J-75000D01*
G01*
G37*
G36*
G01*
X218325000Y-40325000D02*
X218325000Y-40475000D01*
G75*
G02*
X218250000Y-40550000I-75000J0D01*
G01*
X216950000Y-40550000D01*
G75*
G02*
X216875000Y-40475000I0J75000D01*
G01*
X216875000Y-40325000D01*
G75*
G02*
X216950000Y-40250000I75000J0D01*
G01*
X218250000Y-40250000D01*
G75*
G02*
X218325000Y-40325000I0J-75000D01*
G01*
G37*
G36*
G01*
X222725000Y-40325000D02*
X222725000Y-40475000D01*
G75*
G02*
X222650000Y-40550000I-75000J0D01*
G01*
X221350000Y-40550000D01*
G75*
G02*
X221275000Y-40475000I0J75000D01*
G01*
X221275000Y-40325000D01*
G75*
G02*
X221350000Y-40250000I75000J0D01*
G01*
X222650000Y-40250000D01*
G75*
G02*
X222725000Y-40325000I0J-75000D01*
G01*
G37*
G36*
G01*
X222725000Y-40825000D02*
X222725000Y-40975000D01*
G75*
G02*
X222650000Y-41050000I-75000J0D01*
G01*
X221350000Y-41050000D01*
G75*
G02*
X221275000Y-40975000I0J75000D01*
G01*
X221275000Y-40825000D01*
G75*
G02*
X221350000Y-40750000I75000J0D01*
G01*
X222650000Y-40750000D01*
G75*
G02*
X222725000Y-40825000I0J-75000D01*
G01*
G37*
G36*
G01*
X222725000Y-41325000D02*
X222725000Y-41475000D01*
G75*
G02*
X222650000Y-41550000I-75000J0D01*
G01*
X221350000Y-41550000D01*
G75*
G02*
X221275000Y-41475000I0J75000D01*
G01*
X221275000Y-41325000D01*
G75*
G02*
X221350000Y-41250000I75000J0D01*
G01*
X222650000Y-41250000D01*
G75*
G02*
X222725000Y-41325000I0J-75000D01*
G01*
G37*
G36*
G01*
X222725000Y-41825000D02*
X222725000Y-41975000D01*
G75*
G02*
X222650000Y-42050000I-75000J0D01*
G01*
X221350000Y-42050000D01*
G75*
G02*
X221275000Y-41975000I0J75000D01*
G01*
X221275000Y-41825000D01*
G75*
G02*
X221350000Y-41750000I75000J0D01*
G01*
X222650000Y-41750000D01*
G75*
G02*
X222725000Y-41825000I0J-75000D01*
G01*
G37*
G36*
G01*
X222725000Y-42325000D02*
X222725000Y-42475000D01*
G75*
G02*
X222650000Y-42550000I-75000J0D01*
G01*
X221350000Y-42550000D01*
G75*
G02*
X221275000Y-42475000I0J75000D01*
G01*
X221275000Y-42325000D01*
G75*
G02*
X221350000Y-42250000I75000J0D01*
G01*
X222650000Y-42250000D01*
G75*
G02*
X222725000Y-42325000I0J-75000D01*
G01*
G37*
%TD*%
%TO.C,U7*%
X208450000Y-92650000D03*
X208450000Y-93300000D03*
X208450000Y-93950000D03*
X208450000Y-94600000D03*
X208450000Y-95250000D03*
X208450000Y-95900000D03*
X208450000Y-96550000D03*
X214350000Y-96550000D03*
X214350000Y-95900000D03*
X214350000Y-95250000D03*
X214350000Y-94600000D03*
X214350000Y-93950000D03*
X214350000Y-93300000D03*
X214350000Y-92650000D03*
%TD*%
D12*
%TO.C,U11*%
G36*
X188602676Y-82950419D02*
G01*
X188208997Y-83021253D01*
X188102746Y-82430735D01*
X188496425Y-82359901D01*
X188602676Y-82950419D01*
G37*
G36*
X189685291Y-82755626D02*
G01*
X189291612Y-82826460D01*
X189185361Y-82235942D01*
X189579040Y-82165108D01*
X189685291Y-82755626D01*
G37*
G36*
X190472647Y-82613958D02*
G01*
X190078968Y-82684792D01*
X189972717Y-82094274D01*
X190366396Y-82023440D01*
X190472647Y-82613958D01*
G37*
G36*
X192047360Y-82330623D02*
G01*
X191653681Y-82401457D01*
X191547430Y-81810939D01*
X191941109Y-81740105D01*
X192047360Y-82330623D01*
G37*
G36*
X192281662Y-81374013D02*
G01*
X191887983Y-81444847D01*
X191781732Y-80854329D01*
X192175411Y-80783495D01*
X192281662Y-81374013D01*
G37*
G36*
X192834717Y-82188955D02*
G01*
X192441038Y-82259789D01*
X192334787Y-81669271D01*
X192728466Y-81598437D01*
X192834717Y-82188955D01*
G37*
G36*
X193069019Y-81232345D02*
G01*
X192675340Y-81303179D01*
X192569089Y-80712661D01*
X192962768Y-80641827D01*
X193069019Y-81232345D01*
G37*
G36*
X193622073Y-82047287D02*
G01*
X193228394Y-82118121D01*
X193122143Y-81527603D01*
X193515822Y-81456769D01*
X193622073Y-82047287D01*
G37*
G36*
X193856375Y-81090677D02*
G01*
X193462696Y-81161511D01*
X193356445Y-80570993D01*
X193750124Y-80500159D01*
X193856375Y-81090677D01*
G37*
G36*
X194409430Y-81905619D02*
G01*
X194015751Y-81976453D01*
X193909500Y-81385935D01*
X194303179Y-81315101D01*
X194409430Y-81905619D01*
G37*
G36*
X194643732Y-80949009D02*
G01*
X194250053Y-81019843D01*
X194143802Y-80429325D01*
X194537481Y-80358491D01*
X194643732Y-80949009D01*
G37*
G36*
X195196786Y-81763952D02*
G01*
X194803107Y-81834786D01*
X194696856Y-81244268D01*
X195090535Y-81173434D01*
X195196786Y-81763952D01*
G37*
G36*
X195431088Y-80807342D02*
G01*
X195037409Y-80878176D01*
X194931158Y-80287658D01*
X195324837Y-80216824D01*
X195431088Y-80807342D01*
G37*
G36*
X195984143Y-81622284D02*
G01*
X195590464Y-81693118D01*
X195484213Y-81102600D01*
X195877892Y-81031766D01*
X195984143Y-81622284D01*
G37*
G36*
X199366847Y-80658018D02*
G01*
X199437681Y-81051697D01*
X198847163Y-81157948D01*
X198776329Y-80764269D01*
X199366847Y-80658018D01*
G37*
G36*
X199225180Y-79870662D02*
G01*
X199296014Y-80264341D01*
X198705496Y-80370592D01*
X198634662Y-79976913D01*
X199225180Y-79870662D01*
G37*
G36*
X199083512Y-79083305D02*
G01*
X199154346Y-79476984D01*
X198563828Y-79583235D01*
X198492994Y-79189556D01*
X199083512Y-79083305D01*
G37*
G36*
X198941844Y-78295949D02*
G01*
X199012678Y-78689628D01*
X198422160Y-78795879D01*
X198351326Y-78402200D01*
X198941844Y-78295949D01*
G37*
G36*
X197985234Y-78061647D02*
G01*
X198056068Y-78455326D01*
X197465550Y-78561577D01*
X197394716Y-78167898D01*
X197985234Y-78061647D01*
G37*
G36*
X198800176Y-77508592D02*
G01*
X198871010Y-77902271D01*
X198280492Y-78008522D01*
X198209658Y-77614843D01*
X198800176Y-77508592D01*
G37*
G36*
X197843566Y-77274290D02*
G01*
X197914400Y-77667969D01*
X197323882Y-77774220D01*
X197253048Y-77380541D01*
X197843566Y-77274290D01*
G37*
G36*
X198658508Y-76721236D02*
G01*
X198729342Y-77114915D01*
X198138824Y-77221166D01*
X198067990Y-76827487D01*
X198658508Y-76721236D01*
G37*
G36*
X197701898Y-76486934D02*
G01*
X197772732Y-76880613D01*
X197182214Y-76986864D01*
X197111380Y-76593185D01*
X197701898Y-76486934D01*
G37*
G36*
X198516841Y-75933879D02*
G01*
X198587675Y-76327558D01*
X197997157Y-76433809D01*
X197926323Y-76040130D01*
X198516841Y-75933879D01*
G37*
G36*
X197560231Y-75699577D02*
G01*
X197631065Y-76093256D01*
X197040547Y-76199507D01*
X196969713Y-75805828D01*
X197560231Y-75699577D01*
G37*
G36*
X198375173Y-75146523D02*
G01*
X198446007Y-75540202D01*
X197855489Y-75646453D01*
X197784655Y-75252774D01*
X198375173Y-75146523D01*
G37*
G36*
X197418563Y-74912221D02*
G01*
X197489397Y-75305900D01*
X196898879Y-75412151D01*
X196828045Y-75018472D01*
X197418563Y-74912221D01*
G37*
G36*
X198233505Y-74359166D02*
G01*
X198304339Y-74752845D01*
X197713821Y-74859096D01*
X197642987Y-74465417D01*
X198233505Y-74359166D01*
G37*
G36*
X197276895Y-74124864D02*
G01*
X197347729Y-74518543D01*
X196757211Y-74624794D01*
X196686377Y-74231115D01*
X197276895Y-74124864D01*
G37*
G36*
X198091837Y-73571810D02*
G01*
X198162671Y-73965489D01*
X197572153Y-74071740D01*
X197501319Y-73678061D01*
X198091837Y-73571810D01*
G37*
G36*
X197950169Y-72784453D02*
G01*
X198021003Y-73178132D01*
X197430485Y-73284383D01*
X197359651Y-72890704D01*
X197950169Y-72784453D01*
G37*
G36*
X197808502Y-71997097D02*
G01*
X197879336Y-72390776D01*
X197288818Y-72497027D01*
X197217984Y-72103348D01*
X197808502Y-71997097D01*
G37*
G36*
X197666834Y-71209740D02*
G01*
X197737668Y-71603419D01*
X197147150Y-71709670D01*
X197076316Y-71315991D01*
X197666834Y-71209740D01*
G37*
G36*
X196199394Y-71524577D02*
G01*
X196593073Y-71453743D01*
X196699324Y-72044261D01*
X196305645Y-72115095D01*
X196199394Y-71524577D01*
G37*
G36*
X195412037Y-71666245D02*
G01*
X195805716Y-71595411D01*
X195911967Y-72185929D01*
X195518288Y-72256763D01*
X195412037Y-71666245D01*
G37*
G36*
X195177735Y-72622855D02*
G01*
X195571414Y-72552021D01*
X195677665Y-73142539D01*
X195283986Y-73213373D01*
X195177735Y-72622855D01*
G37*
G36*
X194624681Y-71807913D02*
G01*
X195018360Y-71737079D01*
X195124611Y-72327597D01*
X194730932Y-72398431D01*
X194624681Y-71807913D01*
G37*
G36*
X194390379Y-72764523D02*
G01*
X194784058Y-72693689D01*
X194890309Y-73284207D01*
X194496630Y-73355041D01*
X194390379Y-72764523D01*
G37*
G36*
X193837324Y-71949581D02*
G01*
X194231003Y-71878747D01*
X194337254Y-72469265D01*
X193943575Y-72540099D01*
X193837324Y-71949581D01*
G37*
G36*
X193603023Y-72906191D02*
G01*
X193996702Y-72835357D01*
X194102953Y-73425875D01*
X193709274Y-73496709D01*
X193603023Y-72906191D01*
G37*
G36*
X193049968Y-72091248D02*
G01*
X193443647Y-72020414D01*
X193549898Y-72610932D01*
X193156219Y-72681766D01*
X193049968Y-72091248D01*
G37*
G36*
X192815666Y-73047858D02*
G01*
X193209345Y-72977024D01*
X193315596Y-73567542D01*
X192921917Y-73638376D01*
X192815666Y-73047858D01*
G37*
G36*
X192028310Y-73189526D02*
G01*
X192421989Y-73118692D01*
X192528240Y-73709210D01*
X192134561Y-73780044D01*
X192028310Y-73189526D01*
G37*
G36*
X191475255Y-72374584D02*
G01*
X191868934Y-72303750D01*
X191975185Y-72894268D01*
X191581506Y-72965102D01*
X191475255Y-72374584D01*
G37*
G36*
X191240953Y-73331194D02*
G01*
X191634632Y-73260360D01*
X191740883Y-73850878D01*
X191347204Y-73921712D01*
X191240953Y-73331194D01*
G37*
G36*
X190687899Y-72516252D02*
G01*
X191081578Y-72445418D01*
X191187829Y-73035936D01*
X190794150Y-73106770D01*
X190687899Y-72516252D01*
G37*
G36*
X190453597Y-73472862D02*
G01*
X190847276Y-73402028D01*
X190953527Y-73992546D01*
X190559848Y-74063380D01*
X190453597Y-73472862D01*
G37*
G36*
X189900542Y-72657920D02*
G01*
X190294221Y-72587086D01*
X190400472Y-73177604D01*
X190006793Y-73248438D01*
X189900542Y-72657920D01*
G37*
G36*
X189666240Y-73614530D02*
G01*
X190059919Y-73543696D01*
X190166170Y-74134214D01*
X189772491Y-74205048D01*
X189666240Y-73614530D01*
G37*
G36*
X188878884Y-73756197D02*
G01*
X189272563Y-73685363D01*
X189378814Y-74275881D01*
X188985135Y-74346715D01*
X188878884Y-73756197D01*
G37*
G36*
X188325829Y-72941255D02*
G01*
X188719508Y-72870421D01*
X188825759Y-73460939D01*
X188432080Y-73531773D01*
X188325829Y-72941255D01*
G37*
G36*
X188091527Y-73897865D02*
G01*
X188485206Y-73827031D01*
X188591457Y-74417549D01*
X188197778Y-74488383D01*
X188091527Y-73897865D01*
G37*
G36*
X187538473Y-73082923D02*
G01*
X187932152Y-73012089D01*
X188038403Y-73602607D01*
X187644724Y-73673441D01*
X187538473Y-73082923D01*
G37*
G36*
X187304171Y-74039533D02*
G01*
X187697850Y-73968699D01*
X187804101Y-74559217D01*
X187410422Y-74630051D01*
X187304171Y-74039533D01*
G37*
G36*
X186455857Y-73277716D02*
G01*
X186849536Y-73206882D01*
X186955787Y-73797400D01*
X186562108Y-73868234D01*
X186455857Y-73277716D01*
G37*
G36*
X191855635Y-79570960D02*
G01*
X191784801Y-79177281D01*
X192375319Y-79071030D01*
X192446153Y-79464709D01*
X191855635Y-79570960D01*
G37*
G36*
X191713967Y-78783603D02*
G01*
X191643133Y-78389924D01*
X192233651Y-78283673D01*
X192304485Y-78677352D01*
X191713967Y-78783603D01*
G37*
G36*
X191572299Y-77996247D02*
G01*
X191501465Y-77602568D01*
X192091983Y-77496317D01*
X192162817Y-77889996D01*
X191572299Y-77996247D01*
G37*
G36*
X191430632Y-77208890D02*
G01*
X191359798Y-76815211D01*
X191950316Y-76708960D01*
X192021150Y-77102639D01*
X191430632Y-77208890D01*
G37*
G36*
X191288964Y-76421534D02*
G01*
X191218130Y-76027855D01*
X191808648Y-75921604D01*
X191879482Y-76315283D01*
X191288964Y-76421534D01*
G37*
G36*
X191147296Y-75634177D02*
G01*
X191076462Y-75240498D01*
X191666980Y-75134247D01*
X191737814Y-75527926D01*
X191147296Y-75634177D01*
G37*
%TD*%
%TO.C,U14*%
G36*
G01*
X239972703Y-62688649D02*
X239972703Y-62211351D01*
G75*
G02*
X240211351Y-61972703I238648J0D01*
G01*
X240688649Y-61972703D01*
G75*
G02*
X240927297Y-62211351I0J-238648D01*
G01*
X240927297Y-62688649D01*
G75*
G02*
X240688649Y-62927297I-238648J0D01*
G01*
X240211351Y-62927297D01*
G75*
G02*
X239972703Y-62688649I0J238648D01*
G01*
G37*
G36*
G01*
X239972703Y-63788649D02*
X239972703Y-63311351D01*
G75*
G02*
X240211351Y-63072703I238648J0D01*
G01*
X240688649Y-63072703D01*
G75*
G02*
X240927297Y-63311351I0J-238648D01*
G01*
X240927297Y-63788649D01*
G75*
G02*
X240688649Y-64027297I-238648J0D01*
G01*
X240211351Y-64027297D01*
G75*
G02*
X239972703Y-63788649I0J238648D01*
G01*
G37*
G36*
G01*
X241072703Y-62688649D02*
X241072703Y-62211351D01*
G75*
G02*
X241311351Y-61972703I238648J0D01*
G01*
X241788649Y-61972703D01*
G75*
G02*
X242027297Y-62211351I0J-238648D01*
G01*
X242027297Y-62688649D01*
G75*
G02*
X241788649Y-62927297I-238648J0D01*
G01*
X241311351Y-62927297D01*
G75*
G02*
X241072703Y-62688649I0J238648D01*
G01*
G37*
G36*
G01*
X241072703Y-63788649D02*
X241072703Y-63311351D01*
G75*
G02*
X241311351Y-63072703I238648J0D01*
G01*
X241788649Y-63072703D01*
G75*
G02*
X242027297Y-63311351I0J-238648D01*
G01*
X242027297Y-63788649D01*
G75*
G02*
X241788649Y-64027297I-238648J0D01*
G01*
X241311351Y-64027297D01*
G75*
G02*
X241072703Y-63788649I0J238648D01*
G01*
G37*
G36*
G01*
X238625000Y-62112500D02*
X238625000Y-61937500D01*
G75*
G02*
X238712500Y-61850000I87500J0D01*
G01*
X239362500Y-61850000D01*
G75*
G02*
X239450000Y-61937500I0J-87500D01*
G01*
X239450000Y-62112500D01*
G75*
G02*
X239362500Y-62200000I-87500J0D01*
G01*
X238712500Y-62200000D01*
G75*
G02*
X238625000Y-62112500I0J87500D01*
G01*
G37*
G36*
G01*
X238625000Y-62762500D02*
X238625000Y-62587500D01*
G75*
G02*
X238712500Y-62500000I87500J0D01*
G01*
X239362500Y-62500000D01*
G75*
G02*
X239450000Y-62587500I0J-87500D01*
G01*
X239450000Y-62762500D01*
G75*
G02*
X239362500Y-62850000I-87500J0D01*
G01*
X238712500Y-62850000D01*
G75*
G02*
X238625000Y-62762500I0J87500D01*
G01*
G37*
G36*
G01*
X238625000Y-63412500D02*
X238625000Y-63237500D01*
G75*
G02*
X238712500Y-63150000I87500J0D01*
G01*
X239362500Y-63150000D01*
G75*
G02*
X239450000Y-63237500I0J-87500D01*
G01*
X239450000Y-63412500D01*
G75*
G02*
X239362500Y-63500000I-87500J0D01*
G01*
X238712500Y-63500000D01*
G75*
G02*
X238625000Y-63412500I0J87500D01*
G01*
G37*
G36*
G01*
X238625000Y-64062500D02*
X238625000Y-63887500D01*
G75*
G02*
X238712500Y-63800000I87500J0D01*
G01*
X239362500Y-63800000D01*
G75*
G02*
X239450000Y-63887500I0J-87500D01*
G01*
X239450000Y-64062500D01*
G75*
G02*
X239362500Y-64150000I-87500J0D01*
G01*
X238712500Y-64150000D01*
G75*
G02*
X238625000Y-64062500I0J87500D01*
G01*
G37*
G36*
G01*
X239850000Y-65287500D02*
X239850000Y-64637500D01*
G75*
G02*
X239937500Y-64550000I87500J0D01*
G01*
X240112500Y-64550000D01*
G75*
G02*
X240200000Y-64637500I0J-87500D01*
G01*
X240200000Y-65287500D01*
G75*
G02*
X240112500Y-65375000I-87500J0D01*
G01*
X239937500Y-65375000D01*
G75*
G02*
X239850000Y-65287500I0J87500D01*
G01*
G37*
G36*
G01*
X240500000Y-65287500D02*
X240500000Y-64637500D01*
G75*
G02*
X240587500Y-64550000I87500J0D01*
G01*
X240762500Y-64550000D01*
G75*
G02*
X240850000Y-64637500I0J-87500D01*
G01*
X240850000Y-65287500D01*
G75*
G02*
X240762500Y-65375000I-87500J0D01*
G01*
X240587500Y-65375000D01*
G75*
G02*
X240500000Y-65287500I0J87500D01*
G01*
G37*
G36*
G01*
X241150000Y-65287500D02*
X241150000Y-64637500D01*
G75*
G02*
X241237500Y-64550000I87500J0D01*
G01*
X241412500Y-64550000D01*
G75*
G02*
X241500000Y-64637500I0J-87500D01*
G01*
X241500000Y-65287500D01*
G75*
G02*
X241412500Y-65375000I-87500J0D01*
G01*
X241237500Y-65375000D01*
G75*
G02*
X241150000Y-65287500I0J87500D01*
G01*
G37*
G36*
G01*
X241800000Y-65287500D02*
X241800000Y-64637500D01*
G75*
G02*
X241887500Y-64550000I87500J0D01*
G01*
X242062500Y-64550000D01*
G75*
G02*
X242150000Y-64637500I0J-87500D01*
G01*
X242150000Y-65287500D01*
G75*
G02*
X242062500Y-65375000I-87500J0D01*
G01*
X241887500Y-65375000D01*
G75*
G02*
X241800000Y-65287500I0J87500D01*
G01*
G37*
G36*
G01*
X242550000Y-64062500D02*
X242550000Y-63887500D01*
G75*
G02*
X242637500Y-63800000I87500J0D01*
G01*
X243287500Y-63800000D01*
G75*
G02*
X243375000Y-63887500I0J-87500D01*
G01*
X243375000Y-64062500D01*
G75*
G02*
X243287500Y-64150000I-87500J0D01*
G01*
X242637500Y-64150000D01*
G75*
G02*
X242550000Y-64062500I0J87500D01*
G01*
G37*
G36*
G01*
X242550000Y-63412500D02*
X242550000Y-63237500D01*
G75*
G02*
X242637500Y-63150000I87500J0D01*
G01*
X243287500Y-63150000D01*
G75*
G02*
X243375000Y-63237500I0J-87500D01*
G01*
X243375000Y-63412500D01*
G75*
G02*
X243287500Y-63500000I-87500J0D01*
G01*
X242637500Y-63500000D01*
G75*
G02*
X242550000Y-63412500I0J87500D01*
G01*
G37*
G36*
G01*
X242550000Y-62762500D02*
X242550000Y-62587500D01*
G75*
G02*
X242637500Y-62500000I87500J0D01*
G01*
X243287500Y-62500000D01*
G75*
G02*
X243375000Y-62587500I0J-87500D01*
G01*
X243375000Y-62762500D01*
G75*
G02*
X243287500Y-62850000I-87500J0D01*
G01*
X242637500Y-62850000D01*
G75*
G02*
X242550000Y-62762500I0J87500D01*
G01*
G37*
G36*
G01*
X242550000Y-62112500D02*
X242550000Y-61937500D01*
G75*
G02*
X242637500Y-61850000I87500J0D01*
G01*
X243287500Y-61850000D01*
G75*
G02*
X243375000Y-61937500I0J-87500D01*
G01*
X243375000Y-62112500D01*
G75*
G02*
X243287500Y-62200000I-87500J0D01*
G01*
X242637500Y-62200000D01*
G75*
G02*
X242550000Y-62112500I0J87500D01*
G01*
G37*
G36*
G01*
X241800000Y-61362500D02*
X241800000Y-60712500D01*
G75*
G02*
X241887500Y-60625000I87500J0D01*
G01*
X242062500Y-60625000D01*
G75*
G02*
X242150000Y-60712500I0J-87500D01*
G01*
X242150000Y-61362500D01*
G75*
G02*
X242062500Y-61450000I-87500J0D01*
G01*
X241887500Y-61450000D01*
G75*
G02*
X241800000Y-61362500I0J87500D01*
G01*
G37*
G36*
G01*
X241150000Y-61362500D02*
X241150000Y-60712500D01*
G75*
G02*
X241237500Y-60625000I87500J0D01*
G01*
X241412500Y-60625000D01*
G75*
G02*
X241500000Y-60712500I0J-87500D01*
G01*
X241500000Y-61362500D01*
G75*
G02*
X241412500Y-61450000I-87500J0D01*
G01*
X241237500Y-61450000D01*
G75*
G02*
X241150000Y-61362500I0J87500D01*
G01*
G37*
G36*
G01*
X240500000Y-61362500D02*
X240500000Y-60712500D01*
G75*
G02*
X240587500Y-60625000I87500J0D01*
G01*
X240762500Y-60625000D01*
G75*
G02*
X240850000Y-60712500I0J-87500D01*
G01*
X240850000Y-61362500D01*
G75*
G02*
X240762500Y-61450000I-87500J0D01*
G01*
X240587500Y-61450000D01*
G75*
G02*
X240500000Y-61362500I0J87500D01*
G01*
G37*
G36*
G01*
X239850000Y-61362500D02*
X239850000Y-60712500D01*
G75*
G02*
X239937500Y-60625000I87500J0D01*
G01*
X240112500Y-60625000D01*
G75*
G02*
X240200000Y-60712500I0J-87500D01*
G01*
X240200000Y-61362500D01*
G75*
G02*
X240112500Y-61450000I-87500J0D01*
G01*
X239937500Y-61450000D01*
G75*
G02*
X239850000Y-61362500I0J87500D01*
G01*
G37*
%TD*%
%TO.C,Y1*%
G36*
X202790211Y-79567131D02*
G01*
X201017557Y-79879697D01*
X200843909Y-78894889D01*
X202616563Y-78582323D01*
X202790211Y-79567131D01*
G37*
G36*
X202356091Y-77105111D02*
G01*
X200583437Y-77417677D01*
X200409789Y-76432869D01*
X202182443Y-76120303D01*
X202356091Y-77105111D01*
G37*
%TD*%
D19*
%TO.C,L1*%
X247400000Y-76350000D03*
X247400000Y-73650000D03*
%TD*%
D20*
%TO.C,L2*%
X234400000Y-63300000D03*
X234400000Y-66700000D03*
%TD*%
%TO.C,C34*%
G36*
G01*
X210500000Y-52650000D02*
X210500000Y-53750000D01*
G75*
G02*
X210250000Y-54000000I-250000J0D01*
G01*
X207750000Y-54000000D01*
G75*
G02*
X207500000Y-53750000I0J250000D01*
G01*
X207500000Y-52650000D01*
G75*
G02*
X207750000Y-52400000I250000J0D01*
G01*
X210250000Y-52400000D01*
G75*
G02*
X210500000Y-52650000I0J-250000D01*
G01*
G37*
G36*
G01*
X214900000Y-52650000D02*
X214900000Y-53750000D01*
G75*
G02*
X214650000Y-54000000I-250000J0D01*
G01*
X212150000Y-54000000D01*
G75*
G02*
X211900000Y-53750000I0J250000D01*
G01*
X211900000Y-52650000D01*
G75*
G02*
X212150000Y-52400000I250000J0D01*
G01*
X214650000Y-52400000D01*
G75*
G02*
X214900000Y-52650000I0J-250000D01*
G01*
G37*
%TD*%
D21*
%TO.C,D11*%
X205100000Y-54200000D03*
X203700000Y-54200000D03*
%TD*%
D15*
%TO.C,Q1*%
X200650000Y-61600000D03*
X202550000Y-61600000D03*
X201600000Y-59600000D03*
%TD*%
%TO.C,R20*%
G36*
G01*
X203025000Y-63343750D02*
X203025000Y-64256250D01*
G75*
G02*
X202781250Y-64500000I-243750J0D01*
G01*
X202293750Y-64500000D01*
G75*
G02*
X202050000Y-64256250I0J243750D01*
G01*
X202050000Y-63343750D01*
G75*
G02*
X202293750Y-63100000I243750J0D01*
G01*
X202781250Y-63100000D01*
G75*
G02*
X203025000Y-63343750I0J-243750D01*
G01*
G37*
G36*
G01*
X201150000Y-63343750D02*
X201150000Y-64256250D01*
G75*
G02*
X200906250Y-64500000I-243750J0D01*
G01*
X200418750Y-64500000D01*
G75*
G02*
X200175000Y-64256250I0J243750D01*
G01*
X200175000Y-63343750D01*
G75*
G02*
X200418750Y-63100000I243750J0D01*
G01*
X200906250Y-63100000D01*
G75*
G02*
X201150000Y-63343750I0J-243750D01*
G01*
G37*
%TD*%
%TO.C,C26*%
G36*
G01*
X232943750Y-68725000D02*
X233856250Y-68725000D01*
G75*
G02*
X234100000Y-68968750I0J-243750D01*
G01*
X234100000Y-69456250D01*
G75*
G02*
X233856250Y-69700000I-243750J0D01*
G01*
X232943750Y-69700000D01*
G75*
G02*
X232700000Y-69456250I0J243750D01*
G01*
X232700000Y-68968750D01*
G75*
G02*
X232943750Y-68725000I243750J0D01*
G01*
G37*
G36*
G01*
X232943750Y-70600000D02*
X233856250Y-70600000D01*
G75*
G02*
X234100000Y-70843750I0J-243750D01*
G01*
X234100000Y-71331250D01*
G75*
G02*
X233856250Y-71575000I-243750J0D01*
G01*
X232943750Y-71575000D01*
G75*
G02*
X232700000Y-71331250I0J243750D01*
G01*
X232700000Y-70843750D01*
G75*
G02*
X232943750Y-70600000I243750J0D01*
G01*
G37*
%TD*%
D22*
%TO.C,Q2*%
X231600000Y-71020000D03*
X231600000Y-69120000D03*
X229600000Y-70070000D03*
%TD*%
%TO.C,C39*%
G36*
G01*
X238685000Y-82996250D02*
X238685000Y-82083750D01*
G75*
G02*
X238928750Y-81840000I243750J0D01*
G01*
X239416250Y-81840000D01*
G75*
G02*
X239660000Y-82083750I0J-243750D01*
G01*
X239660000Y-82996250D01*
G75*
G02*
X239416250Y-83240000I-243750J0D01*
G01*
X238928750Y-83240000D01*
G75*
G02*
X238685000Y-82996250I0J243750D01*
G01*
G37*
G36*
G01*
X240560000Y-82996250D02*
X240560000Y-82083750D01*
G75*
G02*
X240803750Y-81840000I243750J0D01*
G01*
X241291250Y-81840000D01*
G75*
G02*
X241535000Y-82083750I0J-243750D01*
G01*
X241535000Y-82996250D01*
G75*
G02*
X241291250Y-83240000I-243750J0D01*
G01*
X240803750Y-83240000D01*
G75*
G02*
X240560000Y-82996250I0J243750D01*
G01*
G37*
%TD*%
%TO.C,C40*%
G36*
G01*
X244225000Y-89975000D02*
X244225000Y-91225000D01*
G75*
G02*
X243975000Y-91475000I-250000J0D01*
G01*
X243225000Y-91475000D01*
G75*
G02*
X242975000Y-91225000I0J250000D01*
G01*
X242975000Y-89975000D01*
G75*
G02*
X243225000Y-89725000I250000J0D01*
G01*
X243975000Y-89725000D01*
G75*
G02*
X244225000Y-89975000I0J-250000D01*
G01*
G37*
G36*
G01*
X241425000Y-89975000D02*
X241425000Y-91225000D01*
G75*
G02*
X241175000Y-91475000I-250000J0D01*
G01*
X240425000Y-91475000D01*
G75*
G02*
X240175000Y-91225000I0J250000D01*
G01*
X240175000Y-89975000D01*
G75*
G02*
X240425000Y-89725000I250000J0D01*
G01*
X241175000Y-89725000D01*
G75*
G02*
X241425000Y-89975000I0J-250000D01*
G01*
G37*
%TD*%
D14*
%TO.C,D17*%
X239060000Y-84540000D03*
X241160000Y-84540000D03*
%TD*%
D19*
%TO.C,L3*%
X244310000Y-84650000D03*
X244310000Y-87350000D03*
%TD*%
%TO.C,R49*%
G36*
G01*
X236575000Y-85175000D02*
X237825000Y-85175000D01*
G75*
G02*
X238075000Y-85425000I0J-250000D01*
G01*
X238075000Y-86175000D01*
G75*
G02*
X237825000Y-86425000I-250000J0D01*
G01*
X236575000Y-86425000D01*
G75*
G02*
X236325000Y-86175000I0J250000D01*
G01*
X236325000Y-85425000D01*
G75*
G02*
X236575000Y-85175000I250000J0D01*
G01*
G37*
G36*
G01*
X236575000Y-87975000D02*
X237825000Y-87975000D01*
G75*
G02*
X238075000Y-88225000I0J-250000D01*
G01*
X238075000Y-88975000D01*
G75*
G02*
X237825000Y-89225000I-250000J0D01*
G01*
X236575000Y-89225000D01*
G75*
G02*
X236325000Y-88975000I0J250000D01*
G01*
X236325000Y-88225000D01*
G75*
G02*
X236575000Y-87975000I250000J0D01*
G01*
G37*
%TD*%
%TO.C,R50*%
G36*
G01*
X239625000Y-90283750D02*
X239625000Y-91196250D01*
G75*
G02*
X239381250Y-91440000I-243750J0D01*
G01*
X238893750Y-91440000D01*
G75*
G02*
X238650000Y-91196250I0J243750D01*
G01*
X238650000Y-90283750D01*
G75*
G02*
X238893750Y-90040000I243750J0D01*
G01*
X239381250Y-90040000D01*
G75*
G02*
X239625000Y-90283750I0J-243750D01*
G01*
G37*
G36*
G01*
X237750000Y-90283750D02*
X237750000Y-91196250D01*
G75*
G02*
X237506250Y-91440000I-243750J0D01*
G01*
X237018750Y-91440000D01*
G75*
G02*
X236775000Y-91196250I0J243750D01*
G01*
X236775000Y-90283750D01*
G75*
G02*
X237018750Y-90040000I243750J0D01*
G01*
X237506250Y-90040000D01*
G75*
G02*
X237750000Y-90283750I0J-243750D01*
G01*
G37*
%TD*%
D17*
%TO.C,U16*%
X240760000Y-86250000D03*
X239460000Y-86250000D03*
X240110000Y-86250000D03*
X239460000Y-88150000D03*
X240760000Y-88150000D03*
%TD*%
M02*
