M48
; DRILL file {KiCad 5.1.6+dfsg1-1} date Sat Aug  8 17:15:26 2020
; FORMAT={-:-/ absolute / inch / decimal}
; #@! TF.CreationDate,2020-08-08T17:15:26+09:00
; #@! TF.GenerationSoftware,Kicad,Pcbnew,5.1.6+dfsg1-1
; #@! TF.FileFunction,Plated,1,2,PTH
FMAT,2
INCH
T1C0.0079
T2C0.0098
T3C0.0157
T4C0.0197
T5C0.0236
T6C0.0256
T7C0.0276
T8C0.0295
T9C0.0300
T10C0.0315
T11C0.0390
T12C0.0512
T13C0.1260
%
G90
G05
T1
X9.4449Y-2.437
X9.4449Y-2.4803
X9.4449Y-2.5236
X9.4882Y-2.437
X9.4882Y-2.4803
X9.4882Y-2.5236
X9.5315Y-2.437
X9.5315Y-2.4803
X9.5315Y-2.5236
T2
X7.9429Y-2.7542
X7.9506Y-2.7105
X7.9583Y-2.6669
X7.9701Y-2.7589
X7.9778Y-2.7153
X7.9855Y-2.6717
X7.9972Y-2.7637
X8.0049Y-2.7201
X8.0126Y-2.6765
X8.0244Y-2.7685
X8.032Y-2.7249
X8.0397Y-2.6813
X9.1654Y-3.7244
X9.1654Y-3.7638
X9.1654Y-3.8031
X9.2047Y-3.7244
X9.2047Y-3.7638
X9.2047Y-3.8031
X9.2441Y-3.7244
X9.2441Y-3.7638
X9.2441Y-3.8031
X8.3912Y-3.5306
X8.4006Y-3.5047
X8.4101Y-3.4788
X8.4195Y-3.4529
X8.4328Y-3.5457
X8.4422Y-3.5198
X8.4517Y-3.494
X8.4611Y-3.4681
X8.4744Y-3.5609
X8.4839Y-3.535
X8.4933Y-3.5091
X8.5027Y-3.4832
X8.8761Y-3.4834
X8.8856Y-3.5093
X8.895Y-3.5352
X8.9044Y-3.5611
X8.9178Y-3.4682
X8.9272Y-3.4941
X8.9366Y-3.52
X8.946Y-3.5459
X8.9594Y-3.4531
X8.9688Y-3.479
X8.9782Y-3.5049
X8.9876Y-3.5308
X9.339Y-2.6813
X9.3467Y-2.7249
X9.3544Y-2.7685
X9.3661Y-2.6765
X9.3738Y-2.7201
X9.3815Y-2.7637
X9.3933Y-2.6717
X9.401Y-2.7153
X9.4087Y-2.7589
X9.4204Y-2.6669
X9.4281Y-2.7105
X9.4358Y-2.7542
X9.2453Y-3.2129
X9.2674Y-3.1745
X9.2692Y-3.2266
X9.2896Y-3.1362
X9.2913Y-3.1883
X9.293Y-3.2404
X9.3134Y-3.1499
X9.3152Y-3.2021
X9.3169Y-3.2542
X9.3373Y-3.1637
X9.339Y-3.2158
X9.3612Y-3.1775
X8.6451Y-2.0909
X8.6451Y-2.1185
X8.6451Y-2.1461
X8.6451Y-2.1736
X8.6894Y-2.0909
X8.6894Y-2.1185
X8.6894Y-2.1461
X8.6894Y-2.1736
X8.7337Y-2.0909
X8.7337Y-2.1185
X8.7337Y-2.1461
X8.7337Y-2.1736
X9.0844Y-2.3012
X9.1021Y-2.2801
X9.1183Y-2.3297
X9.1198Y-2.259
X9.136Y-2.3086
X9.1375Y-2.2379
X9.1522Y-2.3582
X9.1537Y-2.2875
X9.17Y-2.3371
X9.1715Y-2.2664
X9.1877Y-2.3159
X9.2054Y-2.2948
X8.0176Y-3.1777
X8.0398Y-3.216
X8.0415Y-3.1639
X8.0619Y-3.2544
X8.0637Y-3.2023
X8.0654Y-3.1501
X8.0858Y-3.2406
X8.0875Y-3.1885
X8.0892Y-3.1364
X8.1097Y-3.2268
X8.1114Y-3.1747
X8.1335Y-3.2131
X8.1734Y-2.2948
X8.1911Y-2.3159
X8.2073Y-2.2664
X8.2088Y-2.3371
X8.225Y-2.2875
X8.2265Y-2.3582
X8.2412Y-2.2379
X8.2427Y-2.3086
X8.2589Y-2.259
X8.2604Y-2.3297
X8.2766Y-2.2801
X8.2944Y-2.3012
T3
X7.3579Y-2.8268
X7.3819Y-2.9673
X7.402Y-3.0752
X7.4291Y-3.2146
X7.4433Y-2.7846
X7.4437Y-3.2894
X7.4823Y-2.9645
X7.5024Y-3.0173
X7.5173Y-3.0661
X7.5197Y-2.4016
X7.5268Y-3.1138
X7.5453Y-3.1579
X7.5591Y-2.3622
X7.5591Y-2.4016
X7.5591Y-2.4409
X7.5783Y-2.8512
X7.5827Y-3.378
X7.5827Y-3.4252
X7.5925Y-3.1469
X7.5984Y-2.3622
X7.5984Y-2.4016
X7.5984Y-2.4409
X7.6083Y-3.2839
X7.6134Y-3.0906
X7.6299Y-3.4252
X7.6378Y-2.4016
X7.6378Y-2.9217
X7.6453Y-2.963
X7.6512Y-3.3165
X7.6524Y-3.0894
X7.6807Y-3.3543
X7.7031Y-2.9909
X7.7476Y-2.8906
X7.7528Y-2.6965
X7.7559Y-1.7126
X7.7559Y-1.752
X7.7693Y-2.7846
X7.7744Y-2.6429
X7.7953Y-1.6732
X7.7953Y-1.7126
X7.7953Y-1.752
X7.8201Y-3.7705
X7.8346Y-1.6732
X7.8346Y-1.7126
X7.8358Y-2.9933
X7.839Y-2.6354
X7.839Y-3.2228
X7.8492Y-3.0307
X7.8504Y-2.5118
X7.874Y-3.2087
X7.874Y-3.9764
X7.874Y-4.0157
X7.8752Y-3.702
X7.876Y-3.6626
X7.8827Y-2.7866
X7.8937Y-2.0866
X7.8937Y-2.126
X7.8937Y-2.1654
X7.8937Y-2.2047
X7.8965Y-3.4976
X7.8976Y-3.0787
X7.8996Y-2.7488
X7.9134Y-3.9764
X7.9134Y-4.0157
X7.9134Y-4.0551
X7.915Y-3.7024
X7.9331Y-2.0866
X7.9331Y-2.126
X7.9331Y-2.1654
X7.9331Y-2.2047
X7.9339Y-3.6067
X7.9449Y-3.1772
X7.9528Y-3.9764
X7.9528Y-4.0157
X7.9528Y-4.0551
X7.9528Y-4.0945
X7.9606Y-2.8819
X7.9764Y-3.2559
X7.9797Y-3.8726
X7.9921Y-2.2835
X7.9921Y-3.0591
X7.9921Y-3.9764
X7.9921Y-4.0157
X7.9921Y-4.0551
X7.9921Y-4.0945
X8.0039Y-2.874
X8.0118Y-2.4626
X8.0118Y-3.1417
X8.0315Y-1.9685
X8.0315Y-2.0079
X8.0315Y-2.2441
X8.0709Y-1.9685
X8.0709Y-2.0079
X8.0709Y-2.2047
X8.0827Y-2.7205
X8.0906Y-2.752
X8.1102Y-1.811
X8.1102Y-2.1654
X8.1102Y-2.3228
X8.1102Y-2.3622
X8.1197Y-3.3248
X8.1362Y-3.7953
X8.1417Y-3.1457
X8.1496Y-1.7717
X8.1496Y-1.811
X8.1496Y-2.3622
X8.1602Y-1.8705
X8.1693Y-3.2874
X8.1967Y-2.6691
X8.2024Y-3.0898
X8.2043Y-3.024
X8.2047Y-3.8386
X8.2059Y-3.5941
X8.2087Y-2.8937
X8.2087Y-2.9331
X8.2087Y-2.9724
X8.2087Y-3.3661
X8.2283Y-2.7165
X8.2283Y-2.7559
X8.2283Y-2.7953
X8.2362Y-3.8386
X8.248Y-3.3661
X8.265Y-3.4169
X8.2661Y-3.4622
X8.2677Y-2.0079
X8.2677Y-2.1654
X8.2806Y-3.9198
X8.3071Y-2.0079
X8.3071Y-2.1654
X8.3071Y-2.9134
X8.3071Y-2.9528
X8.3071Y-2.9921
X8.3071Y-4.2126
X8.3071Y-4.252
X8.3431Y-3.417
X8.3431Y-3.4598
X8.3449Y-3.548
X8.3465Y-2.0079
X8.3465Y-2.1654
X8.3465Y-4.2126
X8.3465Y-4.252
X8.3661Y-3.248
X8.3661Y-3.2874
X8.3661Y-3.3268
X8.3843Y-2.6425
X8.3858Y-1.7717
X8.3858Y-1.811
X8.3858Y-4.252
X8.3969Y-1.8701
X8.4201Y-3.9211
X8.4224Y-3.3358
X8.4252Y-1.7717
X8.4252Y-1.811
X8.4252Y-4.252
X8.4331Y-2.8346
X8.4476Y-3.6102
X8.4528Y-3.1969
X8.4575Y-2.2913
X8.4646Y-1.7717
X8.4646Y-1.811
X8.4685Y-3.4173
X8.4693Y-2.6291
X8.4866Y-3.0709
X8.489Y-3.6114
X8.5039Y-2.1063
X8.5039Y-3.4173
X8.5079Y-2.7598
X8.5209Y-3.8474
X8.5394Y-3.4173
X8.5433Y-2.1063
X8.5669Y-2.7402
X8.5748Y-3.4173
X8.5787Y-3.374
X8.5827Y-2.1063
X8.5827Y-2.4803
X8.5827Y-4.252
X8.5827Y-4.2913
X8.5965Y-2.7724
X8.5965Y-2.8114
X8.6004Y-2.9236
X8.6047Y-2.6039
X8.6063Y-2.6535
X8.6072Y-3.2275
X8.613Y-3.5602
X8.6209Y-3.9646
X8.622Y-2.4803
X8.622Y-4.252
X8.622Y-4.2913
X8.6417Y-2.3071
X8.6417Y-2.8598
X8.648Y-3.0386
X8.6512Y-3.7343
X8.6614Y-1.8504
X8.6614Y-1.8898
X8.6614Y-2.4803
X8.6614Y-4.252
X8.6614Y-4.2913
X8.6736Y-3.9358
X8.6929Y-3.0031
X8.6969Y-3.7362
X8.7008Y-1.8504
X8.7008Y-1.8898
X8.7008Y-2.0079
X8.7008Y-2.4803
X8.7008Y-4.252
X8.7008Y-4.2913
X8.7051Y-3.9602
X8.7063Y-2.8406
X8.7087Y-2.6772
X8.7217Y-3.0362
X8.7283Y-3.1535
X8.7324Y-2.8786
X8.7362Y-3.737
X8.7362Y-3.7717
X8.7386Y-3.937
X8.7402Y-1.8504
X8.7402Y-1.8898
X8.7402Y-2.4803
X8.7402Y-4.252
X8.7402Y-4.2913
X8.7604Y-2.9066
X8.7709Y-3.7972
X8.7795Y-1.4173
X8.7795Y-1.4567
X8.7795Y-1.4961
X8.7795Y-1.8504
X8.7795Y-1.8898
X8.7795Y-2.126
X8.7795Y-2.1654
X8.7795Y-4.252
X8.7795Y-4.2913
X8.7811Y-2.7728
X8.7874Y-3.5535
X8.8059Y-2.8102
X8.8189Y-1.4173
X8.8189Y-1.4567
X8.8189Y-1.4961
X8.8189Y-2.126
X8.8189Y-2.1654
X8.8189Y-2.4409
X8.8189Y-3.8583
X8.8244Y-2.7713
X8.8307Y-3.7362
X8.8307Y-3.7756
X8.8307Y-3.8189
X8.837Y-3.3673
X8.837Y-3.5295
X8.8583Y-1.4173
X8.8583Y-1.4567
X8.8583Y-1.4961
X8.8583Y-2.126
X8.8583Y-2.1654
X8.8583Y-2.4409
X8.8583Y-3.8583
X8.8583Y-3.8976
X8.8705Y-3.6169
X8.8976Y-1.4173
X8.8976Y-1.4567
X8.8976Y-1.4567
X8.8976Y-1.4961
X8.8976Y-2.126
X8.8976Y-2.1654
X8.8976Y-2.4409
X8.8976Y-2.4803
X8.8976Y-3.8583
X8.8976Y-3.8976
X8.9122Y-3.6035
X8.9197Y-3.1949
X8.937Y-2.4409
X8.9547Y-3.5878
X8.9638Y-2.737
X8.9646Y-2.6937
X8.965Y-2.6516
X8.9843Y-3.378
X8.9898Y-3.3008
X8.9903Y-3.2272
X9.0079Y-3.8425
X9.0157Y-3.8898
X9.0177Y-3.3339
X9.0472Y-3.8661
X9.0504Y-3.2008
X9.061Y-3.3256
X9.0709Y-2.8835
X9.0709Y-3.126
X9.0787Y-3.5354
X9.085Y-3.7835
X9.1102Y-3.126
X9.1496Y-3.126
X9.2008Y-2.1579
X9.2031Y-3.3055
X9.2047Y-3.6492
X9.2126Y-1.9685
X9.2126Y-2.0079
X9.2126Y-2.0472
X9.2244Y-3.8882
X9.2287Y-2.1925
X9.2374Y-3.2713
X9.252Y-1.9685
X9.252Y-2.0079
X9.252Y-2.0472
X9.252Y-2.1594
X9.2524Y-3.3776
X9.2677Y-3.4724
X9.2677Y-3.5118
X9.2677Y-3.5512
X9.2835Y-3.8543
X9.2894Y-2.8291
X9.2894Y-2.8685
X9.3228Y-3.8543
X9.3287Y-2.8291
X9.3287Y-2.8685
X9.3307Y-3.815
X9.3343Y-3.3051
X9.3622Y-3.8543
X9.3661Y-3.815
X9.3681Y-2.8291
X9.3681Y-2.8685
X9.4075Y-2.8291
X9.4075Y-2.8685
X9.4094Y-1.6142
X9.4094Y-1.6535
X9.4094Y-1.6929
X9.4094Y-1.7323
X9.4488Y-1.6142
X9.4488Y-1.6535
X9.4488Y-1.6929
X9.4488Y-1.7323
X9.4791Y-3.1957
X9.4882Y-1.6535
X9.4882Y-1.6929
X9.4882Y-1.7323
X9.4882Y-2.0079
X9.5276Y-1.9685
X9.5276Y-2.0079
X9.5276Y-3.937
X9.5276Y-3.9764
X9.5669Y-1.9291
X9.5669Y-1.9685
X9.5669Y-2.0079
X9.5669Y-3.2283
X9.5669Y-3.2677
X9.5669Y-3.8583
X9.5669Y-3.8976
X9.5669Y-3.937
X9.5669Y-3.9764
X9.5787Y-2.5598
X9.6063Y-1.9291
X9.6063Y-1.9685
X9.6063Y-2.0079
X9.6063Y-3.2283
X9.6063Y-3.2677
X9.6063Y-3.8583
X9.6063Y-3.8976
X9.6063Y-3.937
X9.6063Y-3.9764
X9.6386Y-2.4441
X9.6457Y-1.9291
X9.6457Y-1.9685
X9.6457Y-2.0079
X9.6457Y-2.1654
X9.6457Y-2.2047
X9.6457Y-3.2283
X9.6457Y-3.2677
X9.6457Y-3.8583
X9.6457Y-3.8976
X9.6457Y-3.937
X9.685Y-1.9291
X9.685Y-1.9685
X9.685Y-2.0079
X9.685Y-2.1654
X9.685Y-2.2047
X9.6909Y-2.8067
X9.7244Y-1.9291
X9.7244Y-1.9685
X9.7244Y-2.0079
X9.7244Y-2.1654
X9.7244Y-2.2047
X9.7409Y-2.8047
X9.7988Y-2.8039
X9.8425Y-3.1102
X9.8425Y-3.1496
X9.8425Y-3.189
X9.8819Y-3.1102
X9.8819Y-3.1496
X9.8819Y-3.189
X9.9213Y-2.2047
X9.9213Y-2.2441
X9.9213Y-2.2835
X9.9213Y-2.3228
X9.9213Y-3.1102
X9.9213Y-3.1496
X9.9213Y-3.189
X9.9606Y-2.2047
X9.9606Y-2.2441
X9.9606Y-2.2835
X9.9606Y-2.3228
X9.9606Y-3.1102
X9.9606Y-3.1496
X9.9606Y-3.189
X10.0Y-2.2047
X10.0Y-2.2441
X10.0Y-2.2835
X10.0Y-2.3228
X10.0Y-3.1102
X10.0Y-3.1496
X10.0Y-3.189
X10.0394Y-3.1102
X10.0394Y-3.1496
X10.0394Y-3.189
X8.5791Y-4.0614
X8.5949Y-4.089
X8.6264Y-4.089
X8.6421Y-4.0614
X8.6579Y-4.089
X8.6736Y-4.0614
X8.7051Y-4.0614
X8.7209Y-4.089
X8.7366Y-4.0614
X8.7524Y-4.089
X8.7839Y-4.089
X8.7996Y-4.0614
T4
X9.835Y-3.3594
X9.8627Y-3.2926
X9.8627Y-3.4263
X9.9295Y-3.265
X9.9295Y-3.4539
X9.9963Y-3.2926
X9.9963Y-3.4263
X10.024Y-3.3594
X8.076Y-4.0807
X8.1037Y-4.0139
X8.1037Y-4.1475
X8.1705Y-3.9862
X8.1705Y-4.1752
X8.2373Y-4.0139
X8.2373Y-4.1475
X8.265Y-4.0807
X7.4902Y-2.0756
X7.5178Y-2.0088
X7.5178Y-2.1424
X7.5846Y-1.9811
X7.5846Y-2.1701
X7.6515Y-2.0088
X7.6515Y-2.1424
X7.6791Y-2.0756
X9.1142Y-1.6012
X9.1418Y-1.5344
X9.1418Y-1.668
X9.2087Y-1.5067
X9.2087Y-1.6957
X9.2755Y-1.5344
X9.2755Y-1.668
X9.3031Y-1.6012
T5
X8.5189Y-4.0949
X8.5317Y-4.0752
X8.847Y-4.0752
X8.8598Y-4.0949
T6
X7.3476Y-2.7253
X7.3519Y-2.6755
X7.3974Y-2.7296
X7.4018Y-2.6798
X7.4472Y-2.734
X7.4516Y-2.6842
X7.497Y-2.7384
X7.5014Y-2.6886
X7.5468Y-2.7427
X7.5512Y-2.6929
X9.0748Y-3.9843
X9.0748Y-4.0343
T8
X9.7244Y-3.735
X9.774Y-3.6738
T9
X8.5394Y-2.5213
X8.5394Y-2.6213
X8.5394Y-2.9213
X8.5394Y-3.0213
X8.5394Y-3.1213
X8.8394Y-2.5213
X8.8394Y-2.6213
X8.8394Y-2.9213
X8.8394Y-3.0213
X8.8394Y-3.1213
T10
X9.9998Y-2.6729
X10.0039Y-2.7909
X10.0081Y-2.909
T11
X7.7444Y-3.7138
X7.874Y-3.8346
X7.4587Y-2.4764
X7.5163Y-2.3089
T12
X7.775Y-3.6083
X7.9769Y-3.7965
X7.5353Y-2.5548
X7.6252Y-2.2939
T13
X9.9295Y-3.3594
X8.1705Y-4.0807
X7.5846Y-2.0756
X9.2087Y-1.6012
T5
G00X8.5189Y-4.2622
M15
G01X8.5189Y-4.2819
M16
G05
G00X8.8598Y-4.2622
M15
G01X8.8598Y-4.2819
M16
G05
T7
G00X10.0288Y-2.5439
M15
G01X9.9619Y-2.5462
M16
G05
G00X10.046Y-3.0357
M15
G01X9.9791Y-3.038
M16
G05
T0
M30
